<?xml version="1.0" encoding="utf-8"?>
<!-- Generator: Adobe Illustrator 23.0.1, SVG Export Plug-In . SVG Version: 6.00 Build 0)  -->
<svg version="1.1" xmlns="http://www.w3.org/2000/svg" xmlns:xlink="http://www.w3.org/1999/xlink" x="0px" y="0px"
	 viewBox="0 0 1000 1000" style="enable-background:new 0 0 1000 1000;" xml:space="preserve">
<style type="text/css">
	.st0{fill:#202020;}
</style>
<g id="Layer_1">
</g>
<g id="Layer_2">
	<g>
		<g>
			<g>
				<path class="st0" d="M444.91,127.22c0.08-0.06-1.61-0.67,1.07,0.13c3.42,1.04,6.55,2.04,9.62,3.04
					c2.62,0.85,5.19,1.69,7.91,2.57l0,0.06c0,0.29,0,0.59,0,0.88c0,0.81,0.01,1.63,0.01,2.47c0.04,0.21,0.09,0.42,0.13,0.64
					c-0.06,6.83-0.12,13.94-0.19,21.21c0.03,13.38,0.06,26.68,0.09,39.94c0.05-0.34,0.09-0.51,0.11,0.81
					c-0.01,5.51-0.02,13.15-0.02,21.06c0.01,1.17,0.02,2.34,0.02,3.49c0,0.06,0,0.11,0.01,0.16c0,0.01,0,0.01,0.01,0.02l0.01,0.03
					c0.01,0.02,0.02,0.04,0.03,0.06c0.02,0.03,0.04,0.06,0.05,0.08c0,0.11,0,0.21,0,0.29c-2-0.64-3.74-1.19-5.37-1.71
					c-37.14-11.32-74.86-22.81-115.74-35.27c-7.01-2.1-14.02-4.2-20.84-6.24c-1.2-1.06-2.39-2.1-3.57-3.14
					c-9.61-8.6-21.88-19.58-31.25-27.97c1.13,1.63-21.89-18.62-17.64-14.2c-1.43-1.28-3.01-2.69-4.62-4.14
					c3.07-2.47,6.25-5.03,8.71-7.02c2.33-1.89,3.98-3.25,4.14-3.45c1.27-1.53,6.02-5.92,23.23-20.05
					c6.76-5.5,17.29-13.76,19.64-15.74c3.69-3.13-8.98,6.86-5.29,3.73c-17.82,14.29-35.41,28.41-52.94,42.47
					c19.4,17.3,38.73,34.53,58.22,51.91c16.52,5.15,33.14,10.34,49.97,15.59c5.3,1.64,18.21,5.62,35.15,10.85
					c17.61,5.48,39.42,12.26,61.73,19.21c-0.01-36.61-0.01-74.52-0.01-98.79c-6.93-2.17-12.61-3.96-16.93-5.31
					c-1.12-0.35-2.23-0.69-3.34-1.04c-20.02-6.28-44.35-13.85-61.35-18.98c-7.8-2.31-15.75-4.66-23.66-7.01
					c3.63,1.22,7,2.35,9.92,3.34c-8.01-2.51-16.01-5.03-19.11-5.91c-17.11-5.14-7.52-1.9-1.05,0.45c4.68,1.61-1.77-0.19,5.58,2.26
					c-5.32-1.67-7.99-2.51-13.34-4.19c-0.65-0.07,16.46,5.07,12.69,4.12c-5.12-1.65-10.9-3.37-16.22-5.05
					c1.79,0.75,18.46,5.84,17.58,5.75c-2.89-0.86-14.92-4.91-16.01-5.03c-0.22-0.02,5.12,1.65,7.79,2.49
					c-16.45-5.07-25.56-7.7-10.64-2.79c-5.2-1.63-12.54-4.02-18.05-5.71c0.01,0,0.03,0.01,0.04,0.02c2.74,0.87,7.47,2.38,10,3.18
					c-3.12-0.98-6.25-1.96-9.37-2.94c0.49,0.18,1.03,0.38,1.61,0.6c2.33,0.75,4.67,1.49,7.1,2.27c-2.07-0.65-4.14-1.3-6.22-1.95
					c1.55,0.55,3.31,1.17,5.24,1.85c7.35,2.44,14.37,4.85,18.37,6.11C380.23,106.87,412.66,117.07,444.91,127.22z"/>
			</g>
		</g>
	</g>
	<g>
		<g>
			<g>
				<path class="st0" d="M663.05,300.55c0.11-0.08-3.09-0.16,1.88-0.2c15.65-0.08,28.23,0.19,43.89,0.12
					c0.36-0.04,0.75-0.09,1.13-0.13c12.12,0.06,24.74,0.12,37.63,0.19c23.74-0.03,47.35-0.06,70.86-0.09
					c-0.61-0.05-0.9-0.09,1.44-0.11c9.78,0.01,23.32,0.02,37.36,0.02c2.08-0.01,4.15-0.02,6.19-0.02c1.6-0.03,2.01-0.07,2.26-0.1
					c6.34,0.01,11.98,0.02,17.21,0.03c4.58-0.02,9.16-0.03,14.27-0.05c17.42-16.22,35-32.6,54.56-50.82
					c-20.73-15.5-42.59-31.84-66.86-49.99c-14.34,0.06-30.96,0.13-47.86,0.2c-16.04,0.1-32.08,0.2-47.53,0.3
					c-22.89-0.02-52.1-0.04-74.42-0.05c3.42,0.46-50.98,0.69-40.13,1.15c-14.87-0.01-37.21-0.03-38.36,0.11
					c-3.46,0.39-14.91,0.84-54.42,1.08c-15.46,0.06-39.21-0.11-44.66-0.03c-8.58,0.13,20.04,0.28,11.46,0.4
					c112.77-0.01,221.43-0.02,334.86-0.02c1.33,1,2.69,2.03,4.05,3.05c8.45,6.35,30.33,22.77,58.69,44.07
					c-15.29,14.16-32.66,30.24-50.78,47.02c-87.21,0-186.71,0-224.73,0.01c-2.07,0-4.13,0-6.2,0.01
					c-37.23-0.03-82.43,0.01-113.94,0.19c-6.25,0.05-12.56,0.11-18.95,0.16c-0.07-7.24-0.14-14.57-0.2-21.88
					c-0.08,6.8-0.16,13.1-0.23,18.56c0.01-14.89,0.02-29.78-0.06-35.5c-0.2-31.7-0.43-13.74-0.74-1.55
					c-0.14,8.77-0.35-3.09-0.49,10.65c0.01-9.9,0.01-14.86,0.02-24.81c-0.13-1.14,0.07,30.56-0.15,23.67
					c-0.01-9.55-0.02-20.24-0.02-30.15c-0.18,3.43-0.07,34.35-0.24,32.82c-0.04-5.35,0.24-27.86,0.02-29.78
					c-0.04-0.38-0.05,9.54-0.05,14.5c-0.07-30.54-0.27-47.36-0.51-19.49c0.02-9.68,0.05-23.36,0.07-33.59c0,0.01,0,0.05,0,0.08
					c-0.02,5.11-0.04,13.91-0.06,18.63c0-5.8,0.01-11.62,0.01-17.42c-0.03,0.92-0.06,1.95-0.09,3.04c-0.02,4.34-0.03,8.7-0.05,13.22
					c0-3.85,0.01-7.7,0.01-11.57c-0.06,2.89-0.13,6.22-0.2,9.86c-0.14,13.74-0.35,26.91-0.35,34.35
					c-0.03,16.56-0.05,33.14-0.08,49.76C573.4,300.48,618.31,300.51,663.05,300.55z"/>
			</g>
		</g>
	</g>
	<g>
		<g>
			<g>
				<path class="st0" d="M613.85,455.11c0.1-0.06-2.3-0.65,1.46,0.1c11.82,2.4,21.24,4.66,33.06,7.07c0.28,0.02,0.58,0.03,0.88,0.05
					c9.12,1.98,18.63,4.04,28.33,6.14c17.9,3.73,35.71,7.44,53.44,11.13c-0.45-0.14-0.66-0.23,1.11,0.12
					c7.37,1.56,17.58,3.71,28.16,5.94c1.57,0.32,3.13,0.64,4.67,0.96c1.21,0.23,1.53,0.25,1.73,0.26c0.85,0.18,1.69,0.36,2.31,0.49
					c3.53-3.08,6.63-5.78,9.52-8.29c18.02-15.92,36.16-31.95,56.14-49.61c-19.69-16.02-41-33.36-63.75-51.88
					c-3.54-0.5-7.74-1.09-11.97-1.68c-12.24-1.68-24.48-3.37-36.27-4.99c-17.45-2.56-39.71-5.83-56.72-8.32
					c2.54,0.84-38.96-4.99-30.75-3.32c-11.33-1.66-28.36-4.16-29.26-4.16c-2.69,0-11.48-0.82-41.64-4.98
					c-11.8-1.66-29.87-4.47-34.04-4.99c-6.56-0.83,15.24,2.5,8.68,1.67c77.76,11.33,152.95,22.29,230.71,33.62
					c7.27,5.98,14.67,12.07,22.12,18.19c5.67,4.64,19.57,16.01,37.81,30.93c-17.61,15.44-39.36,34.51-61.58,53.99
					c-59.65-12.53-121.83-25.6-147.3-30.96c-1.56-0.33-3.12-0.65-4.67-0.98c-13.89-2.91-29.25-6.13-44.11-9.25
					c-14.39-2.96-28.28-5.82-39.76-8.19c0-0.06,0-0.11-0.01-0.16c-0.12-10.89-0.24-21.97-0.37-33c-0.08,5.24-0.16,10.09-0.23,14.3
					c0.01-11.47,0.02-22.94-0.06-27.34c-0.2-24.42-0.43-10.59-0.74-1.19c-0.14,6.76-0.35-2.38-0.49,8.2
					c0.01-7.63,0.01-11.45,0.02-19.11c-0.13-0.88,0.07,23.54-0.15,18.23c0.05-7.35-0.03-15.59-0.02-23.22
					c-0.18,2.64-0.07,26.46-0.24,25.28c-0.04-4.12,0.24-21.46,0.02-22.94c-0.04-0.29-0.05,7.35-0.05,11.17
					c-0.07-23.52-0.27-36.48-0.51-15.01c0.02-7.45,0.05-17.99,0.07-25.88c0,0.01,0,0.04,0,0.06c-0.02,3.93-0.04,10.72-0.06,14.35
					c0-4.47,0.01-8.95,0.01-13.42c-0.03,0.71-0.06,1.5-0.09,2.34c-0.02,3.34-0.03,6.7-0.05,10.19c0-2.96,0.01-5.93,0.01-8.92
					c-0.06,2.23-0.13,4.79-0.2,7.59c-0.14,10.59-0.35,20.73-0.35,26.46c-0.03,18.29-0.07,36.61-0.1,54.94
					C556.99,443.1,585.47,449.12,613.85,455.11z"/>
			</g>
		</g>
	</g>
	<g>
		<g>
			<g>
				<path class="st0" d="M331.33,357.85c-0.11,0.08,3.04,0.27-1.86,0.14c-15.43-0.45-27.81-1.15-43.24-1.6
					c-0.36,0.03-0.74,0.06-1.12,0.09c-11.94-0.47-24.37-0.96-37.07-1.46c-23.39-0.77-46.66-1.54-69.83-2.3
					c0.6,0.07,0.89,0.12-1.42,0.06c-9.64-0.34-22.98-0.8-36.81-1.29c-2.05-0.06-4.09-0.13-6.1-0.19c-1.57-0.03-1.98,0.01-2.24,0.03
					c-5.69-0.21-10.78-0.39-15.44-0.56c-0.06-0.06-0.11-0.11-0.16-0.15c-18.41-16.71-36.92-33.52-57.35-52.08
					c17.15-14.87,35.1-30.43,55.2-47.86c17.11,1,36.76,2.14,56.83,3.31c15.79,0.89,31.58,1.77,46.79,2.63
					c22.52,1.42,51.26,3.24,73.23,4.63c-3.34-0.67,50.21,2.45,39.56,1.32c14.63,0.92,36.62,2.31,37.75,2.25
					c3.43-0.18,14.72,0.08,53.61,2.27c15.22,0.9,38.58,2.52,43.95,2.78c8.46,0.4-19.71-1.51-11.25-1.11
					c-113.09-7.06-221.98-13.86-335.84-20.97c-1.58-0.09-3.48-0.2-5.7-0.33c-10.82,9.34-32.36,27.91-59.14,51.01
					c18.42,16.84,39.43,36.04,61.1,55.84c82.76,2.84,172.91,5.93,208.55,7.15c2.04,0.07,4.07,0.14,6.11,0.2
					c36.68,1.28,81.23,2.78,112.28,3.66c8.33,0.22,16.74,0.44,25.24,0.67c-0.06-6.91-0.11-13.91-0.17-20.89
					c-0.08,6.9-0.16,13.29-0.23,18.83c0-7.53,0-15.05,0-21.42c-0.01-6.21-0.02-11.29-0.07-14.11c-0.2-31.26-0.43-13.55-0.74-1.53
					c-0.14,8.65-0.35-3.05-0.49,10.5c0.01-9.76,0.01-14.65,0.02-24.46c-0.13-1.12,0.07,30.13-0.15,23.34
					c-0.01-9.41-0.02-19.95-0.02-29.72c-0.18,3.38-0.07,33.86-0.24,32.36c-0.04-5.28,0.24-27.47,0.02-29.36
					c-0.04-0.37-0.05,9.41-0.05,14.3c-0.07-30.11-0.27-46.69-0.51-19.21c0.02-9.54,0.05-23.03,0.07-33.12c0,0.01,0,0.05,0,0.08
					c-0.02,5.04-0.04,13.72-0.06,18.37c0-5.72,0.01-11.45,0.01-17.18c-0.03,0.9-0.06,1.92-0.09,3c-0.02,4.28-0.03,8.57-0.05,13.04
					c0-3.79,0.01-7.6,0.01-11.41c-0.06,2.85-0.13,6.13-0.2,9.72c-0.14,13.55-0.35,26.53-0.35,33.87
					c-0.02,13.82-0.05,27.66-0.07,41.52C419.49,360.95,375.33,359.39,331.33,357.85z"/>
			</g>
		</g>
	</g>
	<g>
		<g>
			<g>
				<path class="st0" d="M369.31,511.35c-0.08,0.09,2.57-0.18-1.53,0.41c-12.89,1.81-23.3,2.93-36.2,4.74
					c-0.29,0.08-0.61,0.17-0.91,0.25c-10,1.28-20.41,2.62-31.04,3.98c-19.56,2.66-39.02,5.31-58.4,7.94
					c0.51-0.02,0.76-0.01-1.17,0.27c-8.06,1.08-19.23,2.57-30.8,4.11c-1.71,0.24-3.42,0.47-5.1,0.71c-1.31,0.2-1.64,0.3-1.85,0.35
					c-1.59,0.21-3.12,0.41-4.32,0.57c-2.55-1.95-4.71-3.61-6.77-5.18c-18.75-14.13-37.61-28.35-58.41-44.03
					c16.44-13.29,33.89-27.4,53.13-42.95c9.73-1.3,21.08-2.82,32.58-4.36c13.22-1.8,26.44-3.6,39.17-5.33
					c18.89-2.41,42.99-5.49,61.4-7.84c-2.88-0.09,41.97-6.09,32.96-5.4c12.27-1.57,30.7-3.92,31.63-4.17
					c2.8-0.75,12.19-2.42,44.76-6.84c12.75-1.69,32.36-4.05,36.85-4.71c7.07-1.04-16.57,1.85-9.51,0.82
					c-91.32,11.75-179.38,23.08-271.11,34.88c-2.99,2.39-6.05,4.84-9.12,7.3c-7.06,5.67-24.86,19.98-48.13,38.68
					c20.24,15.38,44.59,33.89,69.57,52.86c66.94-8.99,137.59-18.48,166.23-22.32c1.71-0.23,3.41-0.46,5.11-0.69
					c30.69-4.1,67.96-9.14,93.91-12.8c1.6-0.23,3.21-0.45,4.85-0.68c-0.11-11.33-0.22-22.84-0.34-34.31
					c-0.08,5.66-0.16,10.89-0.23,15.44c0.01-12.39,0.02-24.77-0.06-29.53c-0.2-26.37-0.43-11.43-0.74-1.29
					c-0.14,7.3-0.35-2.57-0.49,8.86c0.01-8.23,0.01-12.36,0.02-20.63c-0.13-0.95,0.07,25.42-0.15,19.69
					c0.05-7.94-0.03-16.83-0.02-25.08c-0.18,2.85-0.07,28.57-0.24,27.3c-0.04-4.45,0.24-23.18,0.02-24.77
					c-0.04-0.32-0.05,7.94-0.05,12.06c-0.07-25.4-0.27-39.39-0.51-16.21c0.02-8.05,0.05-19.43,0.07-27.94c0,0.01,0,0.05,0,0.06
					c-0.02,4.25-0.04,11.57-0.06,15.5c0-4.82,0.01-9.66,0.01-14.49c-0.03,0.76-0.06,1.62-0.09,2.53c-0.02,3.61-0.03,7.23-0.05,11
					c0-3.2,0.01-6.41,0.01-9.63c-0.06,2.41-0.13,5.17-0.2,8.2c-0.14,11.43-0.35,22.39-0.35,28.57c-0.03,17.16-0.06,34.34-0.1,51.55
					C432.12,502.98,400.66,507.17,369.31,511.35z"/>
			</g>
		</g>
	</g>
	<g>
		<g>
			<g>
				<path class="st0" d="M569.38,577.01c0.08-0.06-1.66-0.7,1.1,0.14c8.66,2.67,15.51,5.14,24.18,7.81
					c0.22,0.02,0.44,0.05,0.66,0.07c6.66,2.18,13.61,4.46,20.7,6.78c13.1,4.13,26.14,8.24,39.12,12.34
					c-0.32-0.15-0.47-0.25,0.83,0.15c5.39,1.72,12.86,4.1,20.6,6.57c1.17,0.37,2.35,0.73,3.5,1.09c0.99,0.3,1.53,0.44,1.8,0.51
					c0.23-0.2,0.33-0.3,0.42-0.38c3.08-2.43,5.82-4.58,8.35-6.59c16.35-13.14,32.84-26.39,50.96-40.96
					c-14.53-12.35-30.61-26.02-47.32-40.22c-4.16-3.5-8.32-7-12.43-10.45c-3.76-1.06-7.48-2.11-11.14-3.14
					c-12.72-3.72-28.94-8.47-41.34-12.1c1.77,1-28.52-7.6-22.62-5.39c-8.26-2.42-20.67-6.05-21.35-6.11
					c-2.03-0.18-8.52-1.61-30.54-7.78c-8.61-2.45-21.76-6.45-24.81-7.26c-4.81-1.27,11.06,3.51,6.26,2.24
					c48.68,14.18,95.97,27.96,144.2,42.02c11.64,10.02,23.36,20.12,35.2,30.32c3.37,2.88,10.83,9.26,20.8,17.78
					c-14.82,11.79-34.88,27.74-55.37,44.04c-43.12-13.71-87.76-27.91-106.16-33.76c-1.14-0.36-2.28-0.72-3.42-1.08
					c-12.37-3.92-26.39-8.36-39.27-12.44c-0.05-8.03-0.1-15.63-0.14-22.16c-0.12-8.36-0.24-16.87-0.37-25.33
					c-0.08,3.93-0.16,7.58-0.23,10.74c0.01-8.62,0.02-17.24-0.06-20.55c-0.2-18.35-0.43-7.96-0.74-0.9
					c-0.14,5.08-0.35-1.79-0.49,6.16c0.01-5.73,0.01-8.6,0.02-14.36c-0.13-0.66,0.07,17.69-0.15,13.7
					c0.05-5.52-0.03-11.71-0.02-17.45c-0.18,1.99-0.07,19.88-0.24,19c-0.04-3.1,0.24-16.13,0.02-17.24
					c-0.04-0.22-0.05,5.52-0.05,8.39c-0.07-17.68-0.27-27.41-0.51-11.28c0.01-5.6,0.1-13.52,0.07-19.44c0,0.01,0,0.03,0,0.04
					c-0.02,2.96-0.04,8.05-0.06,10.78c0-3.36,0.01-6.72,0.01-10.09c-0.03,0.53-0.06,1.13-0.09,1.76c-0.02,2.51-0.03,5.03-0.05,7.65
					c0-2.23,0.01-4.46,0.01-6.7c-0.06,1.68-0.13,3.6-0.2,5.71c-0.14,7.96-0.35,15.58-0.35,19.88c-0.05,21.45-0.1,42.95-0.15,64.42
					C542.14,568.32,555.78,572.67,569.38,577.01z"/>
			</g>
		</g>
	</g>
	<g>
		<g>
			<g>
				<path class="st0" d="M478.45,488.53c0.08,0.17,0.16-4.88,0.2,2.97c-0.04,24.71-0.08,44.57-0.12,69.3
					c0.04,0.57,0.09,1.18,0.13,1.78c-0.06,19.13-0.12,39.06-0.19,59.41c0.03,37.48,0.06,74.76,0.09,111.88
					c0.05-0.97,0.09-1.42,0.11,2.27c-0.01,15.44-0.02,36.83-0.02,58.99c0.01,3.28,0.02,6.55,0.02,9.77c0.03,2.52,0.07,3.17,0.1,3.58
					c-0.01,10.01-0.02,18.92-0.03,27.18l0.01,5.1l0,1.28l0,1.1l0.02,1.16l0.01,0.29c0.01,0.09,0.15,0.1,0.22,0.15l0.53,0.24
					l1.06,0.47l1.47,0.58c3.3,1.22,6.69,2.14,10.15,2.75c3.46,0.6,6.98,0.9,10.51,0.84c3.53-0.14,7.07-0.58,10.51-1.52
					c0.87-0.19,1.69-0.55,2.54-0.82c0.84-0.3,1.7-0.54,2.5-0.95l2.92-1.35l0.52-0.24l0.26-0.12l0.13-0.06
					c0.02-0.03,0.01-0.09,0.01-0.14l0-1.15l0-1.77c-0.01-3.42-0.02-6.85-0.03-10.27c-0.02-6.85-0.03-13.72-0.05-20.6
					c-0.07-27.52-0.14-55.27-0.21-83.36c-0.14-56.18-0.29-113.72-0.44-173.58c-0.1-25.32-0.2-50.65-0.3-75.04
					c0.02-36.14,0.04-82.26,0.05-117.5c-0.46,5.4-0.69-80.5-1.15-63.36c0.01-23.48,0.03-58.76-0.11-60.57
					c-0.39-5.46-0.84-23.54-1.08-85.92c0-6.1,0-13.03-0.01-20.11c0-1.77,0-3.55,0.01-5.33l0-0.43c-0.06-0.05-0.13-0.09-0.3-0.19
					c-0.73-0.44-1.48-0.86-2.24-1.27c-3.03-1.62-6.17-2.94-9.29-3.87c-3.11-0.93-6.2-1.45-9.07-1.5c-2.87-0.03-5.51,0.38-7.74,1.18
					c-2.22,0.79-4.05,1.86-5.41,2.96c-0.7,0.53-1.27,1.09-1.79,1.55c-0.48,0.51-0.9,0.95-1.25,1.32c-2.22,2.56-2.01,2.37-0.58,0.8
					c0.36-0.4,0.79-0.87,1.26-1.34c0.24-0.24,0.49-0.5,0.75-0.77c0.28-0.24,0.58-0.5,0.89-0.76c1.23-1.04,2.73-2.07,4.38-2.8
					c1.64-0.75,3.38-1.26,4.96-1.53c1.59-0.23,2.99-0.33,3.98-0.29c0.98-0.01,1.55,0.09,1.46,0.08c-0.08,0.01-0.81-0.03-2.37,0.03
					c5.25-0.18,10.6,1.2,15.59,3.35c1.25,0.54,2.48,1.13,3.68,1.76c0.6,0.32,1.2,0.64,1.78,0.98l0.9,0.53l0,7.19
					c-0.01,11.29-0.01,22.56-0.02,33.81c-0.01,22.5-0.01,44.92-0.02,67.3c0.01,44.75,0.01,89.31,0.02,133.91
					c0.02,89.2,0.04,178.56,0.06,269.91c0.02,15.55,0.07,53.43,0.13,103.18c0.01,24.88,0.03,52.72,0.05,82.23
					c0,3.69,0,7.4,0.01,11.14c0,1.87,0,3.74,0,5.62l0,2.31l0,0.08c-0.02,0.02-0.04,0.02-0.07,0.04l-0.75,0.34
					c-1.6,0.83-3.35,1.31-5.05,1.91c-1.77,0.41-3.52,0.89-5.35,1.08c-3.62,0.49-7.34,0.52-11.04,0.12c-3.7-0.4-7.39-1.22-10.96-2.38
					c-0.9-0.28-1.78-0.61-2.64-0.94l-0.44-0.18c-0.07-0.01-0.02-0.11-0.04-0.16c0-1.88,0-3.77,0-5.66c0-7.82,0-15.68-0.01-23.56
					c0-126.11,0.01-257.9,0.01-311.77c0-3.27,0-6.53-0.01-9.78c0.03-58.78-0.01-130.16-0.19-179.91
					c-0.12-22.81-0.24-46.01-0.37-69.11c-0.08,10.74-0.16,20.68-0.23,29.31c0.01-23.52,0.02-47.02-0.06-56.05
					c-0.2-50.06-0.43-21.7-0.74-2.44c-0.14,13.85-0.35-4.88-0.49,16.81c0.01-15.63,0.01-23.47,0.02-39.17
					c-0.13-1.8,0.07,48.25-0.15,37.37c-0.01-15.07-0.02-31.95-0.02-47.6c-0.18,5.42-0.07,54.23-0.24,51.82
					c-0.04-8.45,0.24-43.99,0.02-47.02c-0.04-0.6-0.05,15.07-0.05,22.9c-0.07-48.21-0.27-74.78-0.51-30.77
					c0.02-15.28,0.05-36.88,0.07-53.04c0,0.02,0,0.09,0,0.12c-0.02,8.06-0.04,21.97-0.06,29.41c0-9.15,0.01-18.34,0.01-27.51
					c-0.03,1.44-0.06,3.08-0.09,4.81c-0.02,6.85-0.03,13.73-0.05,20.88c0-6.07,0.01-12.16,0.01-18.27
					c-0.06,4.56-0.13,9.81-0.2,15.56c-0.14,21.7-0.35,42.49-0.35,54.24C478.57,298.56,478.51,393.79,478.45,488.53z"/>
			</g>
		</g>
	</g>
	<g>
		<g>
			<g>
				<path class="st0" d="M468.06,168.18c0.04-0.07,0.03-0.17,0.13-0.16c0.28,0.07,0.34,0.42,0.62,0.49c0.03-0.03,0.05-0.07,0.08-0.1
					c0.16,0.16,0.32,0.33,0.49,0.5c0.38,0.2,0.76,0.38,1.15,0.55c0.01-0.05,0.03-0.09,0.08-0.08c0.17,0.06,0.36,0.22,0.57,0.36
					c0.04,0.01,0.07,0.02,0.11,0.04c0.04-0.01,0.07-0.05,0.09-0.07c0.1,0.06,0.18,0.12,0.25,0.18c1.2,0.39,2.44,0.76,3.77,1.17
					c0.31,0.04,0.62,0.08,0.89,0.17c0.38,0.16,0.79,0.5,1.13,0.71c0.18-0.43,1.14-0.14,1.2-0.64c0.23,0.14,0.57,0.35,0.65,0.25
					c0.25-0.31,0.65-0.6,1.38-0.45c0.27,0.09,0.56,0.45,0.68,0.43c0.2-0.03-0.17-0.42,0.02-0.45c-1.72-1.15-3.52-1.99-5.32-3.03
					c-0.71-0.17-4.89-2.47-5.91-3.16c-0.03-0.02-0.07-0.03-0.1-0.05c-0.57-0.35-1.29-0.73-1.86-0.86c-0.28-0.04-0.57-0.05-0.86-0.07
					c0.07,0.13,0.13,0.25,0.18,0.36c-0.23-0.14-0.45-0.28-0.58-0.26c-0.59-0.11-0.43,0.25-0.39,0.63c0.07,0.2-0.22,0.27-0.08,0.52
					c-0.15-0.09-0.23-0.14-0.38-0.24c-0.08,0.1,0.51,0.22,0.29,0.34c-0.12-0.13-0.33-0.15-0.48-0.25c-0.03,0.18,0.5,0.36,0.39,0.5
					c-0.1-0.01-0.32-0.45-0.45-0.28c-0.03,0.03,0.12,0.13,0.2,0.18c-0.51-0.22-0.87-0.19-0.56,0.27c-0.15-0.09-0.31-0.29-0.49-0.36
					c0,0,0,0,0,0c0.08,0.05,0.19,0.17,0.26,0.21c-0.09-0.06-0.18-0.11-0.27-0.17c0,0.03,0,0.07,0,0.11
					c0.05,0.06,0.11,0.12,0.18,0.16c-0.06-0.04-0.12-0.07-0.18-0.11c0.01,0.09,0.03,0.18,0.05,0.26c0.14,0.24,0.25,0.54,0.36,0.61
					C466.24,167.03,467.14,167.64,468.06,168.18z"/>
			</g>
		</g>
	</g>
	<g>
		<g>
			<g>
				<path class="st0" d="M468.46,193.68c0.03-0.08,0-0.17,0.09-0.18c0.27,0.01,0.38,0.33,0.65,0.33c0.02-0.04,0.04-0.08,0.06-0.12
					c0.17,0.11,0.35,0.25,0.53,0.37c0.37,0.1,0.75,0.19,1.13,0.26c0.01-0.05,0.01-0.09,0.06-0.1c0.16,0.02,0.36,0.13,0.57,0.21
					c0.03,0,0.07,0.01,0.1,0.01c0.03-0.02,0.05-0.06,0.07-0.09c0.1,0.04,0.18,0.08,0.26,0.12c1.15,0.1,2.33,0.16,3.6,0.26
					c0.29-0.03,0.57-0.07,0.83-0.04c0.37,0.07,0.8,0.29,1.14,0.42c0.09-0.46,1-0.4,0.98-0.9c0.23,0.08,0.57,0.21,0.63,0.09
					c0.17-0.36,0.49-0.73,1.18-0.75c0.26,0.02,0.58,0.3,0.69,0.25c0.17-0.08-0.23-0.36-0.06-0.44c-1.74-0.71-3.52-1.1-5.31-1.68
					c-0.68,0-4.83-1.24-5.87-1.67c-0.03-0.01-0.07-0.02-0.1-0.03c-0.57-0.21-1.28-0.4-1.83-0.39c-0.26,0.03-0.53,0.08-0.79,0.13
					c0.08,0.11,0.16,0.21,0.22,0.31c-0.23-0.08-0.46-0.17-0.57-0.12c-0.55,0.03-0.34,0.34-0.25,0.7c0.09,0.17-0.15,0.32,0.02,0.52
					c-0.15-0.06-0.23-0.08-0.38-0.14c-0.06,0.12,0.5,0.09,0.32,0.26c-0.13-0.1-0.32-0.07-0.48-0.13c0,0.19,0.51,0.24,0.44,0.39
					c-0.1,0.01-0.36-0.37-0.46-0.17c-0.02,0.04,0.13,0.1,0.21,0.12c-0.5-0.09-0.82,0.02-0.46,0.39c-0.15-0.05-0.33-0.21-0.5-0.23
					c0,0,0,0,0,0c0.08,0.03,0.2,0.12,0.27,0.15c-0.09-0.03-0.18-0.07-0.27-0.1c0,0.03,0.01,0.07,0.02,0.1
					c0.06,0.05,0.12,0.09,0.19,0.12c-0.06-0.02-0.12-0.04-0.18-0.07c0.02,0.08,0.05,0.16,0.09,0.24c0.17,0.2,0.31,0.46,0.43,0.51
					C466.61,192.99,467.53,193.36,468.46,193.68z"/>
			</g>
		</g>
	</g>
	<g>
		<g>
			<g>
				<path class="st0" d="M522.89,238.91c0-0.08-0.03-0.16,0.02-0.2c0.16-0.08,0.29,0.19,0.46,0.12c0-0.04,0.01-0.09,0.01-0.13
					c0.13,0.06,0.26,0.13,0.39,0.19c0.25-0.02,0.49-0.05,0.73-0.09c-0.01-0.05-0.01-0.09,0.01-0.11c0.1-0.03,0.24,0.01,0.39,0.02
					c0.02-0.01,0.04-0.02,0.06-0.02c0.02-0.03,0.02-0.07,0.02-0.1c0.07,0,0.12,0.02,0.18,0.03c0.71-0.26,1.44-0.56,2.23-0.86
					c0.17-0.12,0.33-0.24,0.49-0.3c0.24-0.05,0.54,0.04,0.77,0.05c-0.04-0.46,0.53-0.69,0.42-1.15c0.15,0.01,0.39,0.03,0.4-0.11
					c0.04-0.39,0.15-0.84,0.56-1.08c0.16-0.06,0.41,0.11,0.46,0.03c0.09-0.13-0.21-0.28-0.12-0.4c-1.19-0.14-2.34,0.03-3.54,0.02
					c-0.41,0.2-3.16,0.29-3.87,0.2c-0.02,0-0.04,0-0.06,0.01c-0.39-0.03-0.85,0.01-1.18,0.19c-0.15,0.11-0.3,0.24-0.45,0.37
					c0.07,0.08,0.14,0.15,0.19,0.23c-0.15-0.01-0.31-0.02-0.37,0.06c-0.33,0.2-0.14,0.43-0.02,0.74c0.09,0.14-0.03,0.35,0.11,0.49
					c-0.1-0.01-0.15-0.01-0.26-0.02c-0.01,0.13,0.32-0.07,0.25,0.15c-0.1-0.05-0.21,0.03-0.31,0.02c0.04,0.18,0.36,0.07,0.34,0.24
					c-0.06,0.04-0.29-0.24-0.31-0.02c0,0.04,0.1,0.05,0.15,0.05c-0.32,0.07-0.49,0.27-0.2,0.51c-0.1-0.01-0.24-0.1-0.35-0.07
					c0,0,0,0,0,0c0.05,0.01,0.14,0.05,0.19,0.06c-0.06,0-0.12-0.01-0.18-0.01c0.01,0.03,0.02,0.06,0.03,0.09
					c0.04,0.03,0.09,0.05,0.14,0.05c-0.04,0-0.08-0.01-0.12-0.01c0.03,0.07,0.06,0.14,0.1,0.2c0.14,0.14,0.28,0.35,0.36,0.35
					C521.64,238.82,522.27,238.9,522.89,238.91z"/>
			</g>
		</g>
	</g>
	<g>
		<g>
			<g>
				<path class="st0" d="M478.37,304.48c0.01-0.08-0.17-0.16,0.11-0.2c0.37-0.03,0.7,0,1.03,0.04l0.25,0.03
					c0.07,0.01,0.2,0.02,0.17,0.03c0.01,0.02,0.02,0.03,0.02,0.04c0.01,0.01-0.01,0,0.05,0.02l0.08-0.11c0,0.02,0.21,0.16,0.35,0.25
					c0.15,0.1,0.3,0.21,0.45,0.31c0.31,0.2,0.62,0.41,0.94,0.61c1.23,0.62,2.49,1.18,3.76,1.67c-0.01-0.06-0.01-0.1,0.12-0.07
					c0.53,0.19,1.24,0.52,2,0.82l0.35,0.1c0.1,0,0.13-0.03,0.16-0.05c0.34,0.13,0.64,0.25,0.93,0.36c3.86,1.02,7.95,1.61,12.33,1.25
					c0.46-0.05,0.92-0.15,1.37-0.23c0.45-0.07,0.9-0.16,1.33-0.25c1.3-0.17,2.95-0.49,4.18-0.85c-0.16-0.19,0.47-0.59,1.03-0.97
					c0.55-0.41,1.02-0.82,0.65-0.91c0.76-0.28,1.81-0.91,1.81-1.03c-0.01-0.21,0.06-0.49,0.31-0.89c0.26-0.4,0.73-0.88,1.44-1.62
					c0.61-0.5,1.58-1.27,1.75-1.5c0.24-0.39-0.95,0.5-0.71,0.11c-1.06,1.01-2.25,1.8-3.45,2.55c-1.23,0.71-2.53,1.27-3.87,1.72
					c-2.71,0.84-5.64,1.13-8.65,0.85c-0.91,0.04-4.18-0.29-7.74-1.41c-1.78-0.55-3.62-1.26-5.27-2.02
					c-0.83-0.38-1.61-0.77-2.32-1.15c-0.35-0.19-0.68-0.38-1-0.55c-0.18-0.11-0.35-0.21-0.52-0.31c-0.27-0.17-0.52-0.33-0.77-0.48
					c-0.9-0.01-1.64-0.02-2.2-0.02l-0.35,0.01c-2.08-0.03-4.6,0.01-6.36,0.19c-0.78,0.12-1.62,0.24-2.44,0.37
					c0.38,0.08,0.73,0.15,1.04,0.23c-0.83-0.01-1.66-0.02-1.98,0.06c-1.77,0.2-0.77,0.43-0.09,0.74c0.49,0.14-0.17,0.35,0.59,0.49
					c-0.55-0.01-0.83-0.01-1.38-0.02c-0.06,0.13,1.71-0.07,1.32,0.15c-0.53-0.05-1.13,0.03-1.68,0.02c0.19,0.18,1.92,0.07,1.83,0.24
					c-0.3,0.04-1.56-0.24-1.66-0.02c-0.02,0.04,0.53,0.05,0.81,0.05c-1.7,0.07-2.64,0.27-1.09,0.51c-0.54-0.01-1.3-0.1-1.87-0.07
					l0,0c0.28,0.01,0.79,0.04,1.04,0.06l-0.97-0.01l0.17,0.09c0.24,0.03,0.49,0.05,0.74,0.05l-0.65-0.01
					c0.16,0.07,0.35,0.14,0.55,0.2c0.77,0.14,1.5,0.35,1.92,0.35C471.65,304.39,475.02,304.47,478.37,304.48z"/>
			</g>
		</g>
	</g>
	<g>
		<g>
			<g>
				<path class="st0" d="M469.09,331.48c0-0.08-0.05-0.16,0.03-0.2c0.24-0.08,0.44,0.19,0.68,0.12c0.01-0.04,0.01-0.09,0.02-0.13
					c0.19,0.06,0.38,0.13,0.59,0.19c0.37-0.02,0.74-0.05,1.1-0.09c-0.01-0.05-0.01-0.09,0.02-0.11c0.15-0.03,0.36,0.01,0.58,0.02
					c0.03-0.01,0.06-0.02,0.1-0.02c0.02-0.03,0.03-0.07,0.04-0.1c0.1,0,0.19,0.02,0.27,0.03c1.07-0.26,2.16-0.56,3.34-0.86
					c0.25-0.12,0.5-0.24,0.74-0.3c0.36-0.05,0.81,0.04,1.16,0.05c-0.05-0.46,0.79-0.69,0.62-1.15c0.23,0.01,0.58,0.03,0.6-0.11
					c0.05-0.39,0.23-0.84,0.85-1.08c0.24-0.06,0.61,0.11,0.69,0.03c0.13-0.13-0.31-0.28-0.18-0.4c-1.79-0.14-3.51,0.03-5.31,0.02
					c-0.61,0.2-4.74,0.29-5.8,0.2c-0.03,0-0.06,0-0.1,0.01c-0.58-0.03-1.28,0.01-1.77,0.19c-0.22,0.11-0.45,0.24-0.68,0.37
					c0.11,0.08,0.2,0.15,0.29,0.23c-0.23-0.01-0.46-0.02-0.55,0.06c-0.49,0.2-0.21,0.43-0.02,0.74c0.14,0.14-0.05,0.35,0.17,0.49
					c-0.15-0.01-0.23-0.01-0.39-0.02c-0.02,0.13,0.48-0.07,0.37,0.15c-0.15-0.05-0.31,0.03-0.47,0.02c0.05,0.18,0.53,0.07,0.51,0.24
					c-0.08,0.04-0.43-0.24-0.46-0.02c-0.01,0.04,0.15,0.05,0.23,0.05c-0.47,0.07-0.74,0.27-0.3,0.51c-0.15-0.01-0.36-0.1-0.52-0.07
					c0,0,0,0,0,0c0.08,0.01,0.22,0.05,0.29,0.06c-0.09,0-0.18-0.01-0.27-0.01c0.01,0.03,0.03,0.06,0.05,0.09
					c0.07,0.03,0.14,0.05,0.21,0.05c-0.06,0-0.12-0.01-0.18-0.01c0.04,0.07,0.1,0.14,0.15,0.2c0.21,0.14,0.42,0.35,0.53,0.35
					C467.21,331.39,468.15,331.47,469.09,331.48z"/>
			</g>
		</g>
	</g>
	<g>
		<g>
			<g>
				<path class="st0" d="M522.89,375.84c0-0.08-0.03-0.16,0.02-0.2c0.16-0.08,0.29,0.19,0.46,0.12c0-0.04,0.01-0.09,0.01-0.13
					c0.13,0.06,0.26,0.13,0.39,0.19c0.25-0.02,0.49-0.05,0.73-0.09c-0.01-0.05-0.01-0.09,0.01-0.11c0.1-0.03,0.24,0.01,0.39,0.02
					c0.02-0.01,0.04-0.02,0.06-0.02c0.02-0.03,0.02-0.07,0.02-0.1c0.07,0,0.12,0.02,0.18,0.03c0.71-0.26,1.44-0.56,2.23-0.86
					c0.17-0.12,0.33-0.24,0.49-0.3c0.24-0.05,0.54,0.04,0.77,0.05c-0.04-0.46,0.53-0.69,0.42-1.15c0.15,0.01,0.39,0.03,0.4-0.11
					c0.04-0.39,0.15-0.84,0.56-1.08c0.16-0.06,0.41,0.11,0.46,0.03c0.09-0.13-0.21-0.28-0.12-0.4c-1.19-0.14-2.34,0.03-3.54,0.02
					c-0.41,0.2-3.16,0.29-3.87,0.2c-0.02,0-0.04,0-0.06,0.01c-0.39-0.03-0.85,0.01-1.18,0.19c-0.15,0.11-0.3,0.24-0.45,0.37
					c0.07,0.08,0.14,0.15,0.19,0.23c-0.15-0.01-0.31-0.02-0.37,0.06c-0.33,0.2-0.14,0.43-0.02,0.74c0.09,0.14-0.03,0.35,0.11,0.49
					c-0.1-0.01-0.15-0.01-0.26-0.02c-0.01,0.13,0.32-0.07,0.25,0.15c-0.1-0.05-0.21,0.03-0.31,0.02c0.04,0.18,0.36,0.07,0.34,0.24
					c-0.06,0.04-0.29-0.24-0.31-0.02c0,0.04,0.1,0.05,0.15,0.05c-0.32,0.07-0.49,0.27-0.2,0.51c-0.1-0.01-0.24-0.1-0.35-0.07
					c0,0,0,0,0,0c0.05,0.01,0.14,0.05,0.19,0.06c-0.06,0-0.12-0.01-0.18-0.01c0.01,0.03,0.02,0.06,0.03,0.09
					c0.04,0.03,0.09,0.05,0.14,0.05c-0.04,0-0.08-0.01-0.12-0.01c0.03,0.07,0.06,0.14,0.1,0.2c0.14,0.14,0.28,0.35,0.36,0.35
					C521.64,375.75,522.27,375.82,522.89,375.84z"/>
			</g>
		</g>
	</g>
	<g>
		<g>
			<g>
				<path class="st0" d="M522.15,400.73c0.03-0.08,0.03-0.16,0.09-0.18c0.19-0.01,0.22,0.29,0.41,0.29
					c0.02-0.04,0.04-0.08,0.06-0.12c0.11,0.1,0.21,0.22,0.32,0.33c0.25,0.08,0.51,0.14,0.77,0.2c0.01-0.05,0.02-0.09,0.05-0.1
					c0.11,0.01,0.24,0.1,0.38,0.17c0.02,0,0.05,0,0.07,0c0.03-0.02,0.05-0.06,0.06-0.09c0.06,0.03,0.12,0.06,0.17,0.1
					c0.81,0.04,1.64,0.03,2.53,0.06c0.21-0.05,0.42-0.1,0.6-0.09c0.26,0.04,0.53,0.24,0.75,0.34c0.13-0.44,0.78-0.44,0.83-0.92
					c0.15,0.07,0.38,0.17,0.44,0.06c0.18-0.35,0.46-0.73,0.95-0.79c0.18,0.01,0.37,0.26,0.45,0.21c0.13-0.08-0.11-0.34,0.03-0.42
					c-1.14-0.59-2.35-0.88-3.55-1.34c-0.48,0.03-3.27-0.95-3.94-1.3c-0.02-0.01-0.04-0.01-0.07-0.02c-0.38-0.17-0.86-0.32-1.25-0.28
					c-0.19,0.04-0.39,0.11-0.59,0.17c0.04,0.1,0.08,0.19,0.11,0.29c-0.15-0.07-0.3-0.14-0.39-0.08c-0.4,0.06-0.3,0.34-0.28,0.69
					c0.04,0.16-0.16,0.31-0.07,0.5c-0.1-0.05-0.15-0.07-0.25-0.11c-0.06,0.12,0.34,0.06,0.19,0.23c-0.08-0.08-0.22-0.05-0.32-0.1
					c-0.03,0.18,0.33,0.2,0.25,0.36c-0.07,0.02-0.2-0.33-0.3-0.14c-0.02,0.04,0.08,0.08,0.13,0.11c-0.34-0.06-0.59,0.07-0.39,0.4
					c-0.1-0.04-0.21-0.19-0.32-0.2c0,0,0,0,0,0c0.05,0.03,0.13,0.1,0.17,0.13c-0.06-0.03-0.12-0.05-0.18-0.08c0,0.03,0,0.06,0,0.1
					c0.04,0.04,0.07,0.08,0.12,0.1c-0.04-0.02-0.08-0.04-0.12-0.05c0,0.08,0.01,0.15,0.03,0.23c0.09,0.19,0.15,0.43,0.23,0.47
					C520.94,400.17,521.53,400.48,522.15,400.73z"/>
			</g>
		</g>
	</g>
	<g>
		<g>
			<g>
				<path class="st0" d="M521.64,510.33c0.05-0.06,0.07-0.15,0.14-0.14c0.21,0.06,0.17,0.38,0.38,0.44
					c0.03-0.03,0.06-0.06,0.09-0.09c0.09,0.14,0.18,0.3,0.27,0.45c0.26,0.17,0.52,0.34,0.79,0.49c0.02-0.04,0.05-0.08,0.08-0.07
					c0.12,0.05,0.24,0.2,0.37,0.32c0.03,0.01,0.05,0.02,0.08,0.03c0.03-0.01,0.07-0.04,0.09-0.06c0.06,0.05,0.11,0.11,0.16,0.16
					c0.87,0.35,1.78,0.67,2.75,1.04c0.24,0.03,0.48,0.07,0.67,0.15c0.27,0.14,0.52,0.44,0.74,0.63c0.25-0.39,0.95-0.14,1.12-0.59
					c0.15,0.13,0.37,0.32,0.46,0.22c0.27-0.28,0.67-0.55,1.22-0.42c0.19,0.08,0.34,0.4,0.44,0.38c0.17-0.03-0.04-0.38,0.13-0.41
					c-1.1-1.03-2.36-1.78-3.55-2.71c-0.53-0.15-3.34-2.21-3.99-2.82c-0.02-0.02-0.04-0.03-0.07-0.04c-0.37-0.32-0.86-0.65-1.29-0.76
					c-0.22-0.03-0.45-0.04-0.68-0.06c0.02,0.11,0.04,0.23,0.05,0.33c-0.15-0.13-0.3-0.25-0.41-0.23c-0.45-0.1-0.4,0.23-0.47,0.58
					c0.01,0.18-0.24,0.25-0.19,0.47c-0.1-0.08-0.15-0.13-0.25-0.21c-0.09,0.09,0.36,0.19,0.16,0.31c-0.07-0.12-0.23-0.14-0.33-0.22
					c-0.07,0.17,0.32,0.33,0.19,0.45c-0.08-0.01-0.14-0.41-0.3-0.25c-0.03,0.03,0.07,0.12,0.12,0.16c-0.36-0.19-0.66-0.16-0.51,0.25
					c-0.1-0.08-0.18-0.26-0.31-0.32c0,0,0,0,0,0c0.05,0.05,0.11,0.15,0.16,0.19c-0.06-0.05-0.12-0.1-0.17-0.15
					c-0.01,0.03-0.02,0.06-0.02,0.1c0.03,0.06,0.06,0.11,0.11,0.15c-0.04-0.03-0.08-0.07-0.12-0.1c-0.01,0.08-0.02,0.16-0.02,0.24
					c0.06,0.22,0.07,0.49,0.14,0.55C520.44,509.29,521.02,509.83,521.64,510.33z"/>
			</g>
		</g>
	</g>
	<g>
		<g>
			<g>
				<path class="st0" d="M522.04,534.89c0.03-0.07,0.04-0.16,0.1-0.17c0.19,0,0.21,0.31,0.41,0.31c0.02-0.04,0.04-0.08,0.07-0.11
					c0.1,0.11,0.2,0.23,0.31,0.35c0.25,0.1,0.51,0.18,0.77,0.25c0.01-0.05,0.03-0.09,0.06-0.09c0.12,0.01,0.24,0.12,0.38,0.2
					c0.02,0,0.05,0.01,0.07,0.01c0.03-0.02,0.05-0.06,0.07-0.08c0.06,0.03,0.12,0.07,0.17,0.11c0.82,0.09,1.67,0.15,2.58,0.24
					c0.22-0.03,0.43-0.07,0.62-0.04c0.26,0.06,0.53,0.28,0.75,0.4c0.16-0.44,0.81-0.38,0.9-0.86c0.15,0.08,0.38,0.2,0.44,0.09
					c0.2-0.34,0.5-0.7,1.01-0.72c0.18,0.02,0.36,0.29,0.45,0.24c0.14-0.07-0.09-0.35,0.05-0.42c-1.13-0.67-2.35-1.04-3.55-1.6
					c-0.49,0-3.28-1.18-3.95-1.58c-0.02-0.01-0.04-0.02-0.07-0.02c-0.38-0.2-0.86-0.38-1.26-0.37c-0.19,0.03-0.4,0.08-0.61,0.13
					c0.04,0.1,0.07,0.2,0.1,0.29c-0.15-0.08-0.3-0.16-0.39-0.11c-0.41,0.03-0.32,0.32-0.32,0.67c0.03,0.17-0.18,0.3-0.09,0.49
					c-0.1-0.05-0.15-0.08-0.25-0.13c-0.07,0.11,0.34,0.08,0.18,0.25c-0.08-0.09-0.22-0.07-0.32-0.12c-0.04,0.18,0.33,0.22,0.24,0.37
					c-0.07,0.01-0.19-0.35-0.3-0.16c-0.02,0.04,0.08,0.09,0.13,0.12c-0.34-0.08-0.6,0.02-0.41,0.37c-0.1-0.05-0.2-0.2-0.32-0.22
					c0,0,0,0,0,0c0.05,0.03,0.12,0.11,0.17,0.14c-0.06-0.03-0.12-0.06-0.18-0.09c0,0.03-0.01,0.06-0.01,0.1
					c0.03,0.04,0.07,0.09,0.12,0.11c-0.04-0.02-0.08-0.04-0.12-0.06c0,0.08,0.01,0.16,0.02,0.23c0.08,0.19,0.14,0.44,0.21,0.48
					C520.83,534.24,521.42,534.59,522.04,534.89z"/>
			</g>
		</g>
	</g>
	<g>
		<g>
			<g>
				<path class="st0" d="M469.09,467.45c0-0.08-0.05-0.16,0.03-0.2c0.24-0.08,0.44,0.19,0.68,0.12c0.01-0.04,0.01-0.09,0.02-0.13
					c0.19,0.06,0.38,0.13,0.59,0.19c0.37-0.02,0.74-0.05,1.1-0.09c-0.01-0.05-0.01-0.09,0.02-0.11c0.15-0.03,0.36,0.01,0.58,0.02
					c0.03-0.01,0.06-0.02,0.1-0.02c0.02-0.03,0.03-0.07,0.04-0.1c0.1,0,0.19,0.02,0.27,0.03c1.07-0.26,2.16-0.56,3.34-0.86
					c0.25-0.12,0.5-0.24,0.74-0.3c0.36-0.05,0.81,0.04,1.16,0.05c-0.05-0.46,0.79-0.69,0.62-1.15c0.23,0.01,0.58,0.03,0.6-0.11
					c0.05-0.39,0.23-0.84,0.85-1.08c0.24-0.06,0.61,0.11,0.69,0.03c0.13-0.13-0.31-0.28-0.18-0.4c-1.79-0.14-3.51,0.03-5.31,0.02
					c-0.61,0.2-4.74,0.29-5.8,0.2c-0.03,0-0.06,0-0.1,0.01c-0.58-0.03-1.28,0.01-1.77,0.19c-0.22,0.11-0.45,0.24-0.68,0.37
					c0.11,0.08,0.2,0.15,0.29,0.23c-0.23-0.01-0.46-0.02-0.55,0.06c-0.49,0.2-0.21,0.43-0.02,0.74c0.14,0.14-0.05,0.35,0.17,0.49
					c-0.15-0.01-0.23-0.01-0.39-0.02c-0.02,0.13,0.48-0.07,0.37,0.15c-0.15-0.05-0.31,0.03-0.47,0.02c0.05,0.18,0.53,0.07,0.51,0.24
					c-0.08,0.04-0.43-0.24-0.46-0.02c-0.01,0.04,0.15,0.05,0.23,0.05c-0.47,0.07-0.74,0.27-0.3,0.51c-0.15-0.01-0.36-0.1-0.52-0.07
					c0,0,0,0,0,0c0.08,0.01,0.22,0.05,0.29,0.06c-0.09,0-0.18-0.01-0.27-0.01c0.01,0.03,0.03,0.06,0.05,0.09
					c0.07,0.03,0.14,0.05,0.21,0.05c-0.06,0-0.12-0.01-0.18-0.01c0.04,0.07,0.1,0.14,0.15,0.2c0.21,0.14,0.42,0.35,0.53,0.35
					C467.21,467.36,468.15,467.43,469.09,467.45z"/>
			</g>
		</g>
	</g>
	<g>
		<g>
			<g>
				<path class="st0" d="M469.05,444.36c0-0.08-0.05-0.16,0.03-0.2c0.24-0.07,0.44,0.2,0.68,0.13c0.01-0.04,0.01-0.09,0.02-0.13
					c0.19,0.06,0.38,0.13,0.58,0.2c0.37-0.01,0.74-0.04,1.1-0.08c-0.01-0.05-0.01-0.09,0.02-0.11c0.15-0.03,0.36,0.02,0.58,0.03
					c0.03-0.01,0.06-0.01,0.1-0.02c0.03-0.03,0.03-0.07,0.04-0.1c0.1,0.01,0.19,0.02,0.27,0.04c1.08-0.24,2.17-0.52,3.35-0.8
					c0.25-0.12,0.5-0.23,0.74-0.28c0.36-0.04,0.81,0.05,1.16,0.07c-0.05-0.46,0.8-0.67,0.64-1.14c0.23,0.01,0.58,0.03,0.6-0.1
					c0.06-0.39,0.25-0.84,0.86-1.06c0.24-0.05,0.61,0.12,0.69,0.04c0.14-0.12-0.31-0.28-0.17-0.4c-1.78-0.17-3.51-0.03-5.31-0.06
					c-0.62,0.19-4.75,0.22-5.81,0.11c-0.03,0-0.06,0-0.1,0c-0.58-0.03-1.28-0.01-1.77,0.16c-0.23,0.1-0.46,0.23-0.69,0.36
					c0.1,0.08,0.2,0.16,0.28,0.23c-0.23-0.01-0.46-0.03-0.55,0.05c-0.5,0.19-0.22,0.42-0.04,0.74c0.13,0.14-0.05,0.35,0.16,0.49
					c-0.15-0.01-0.23-0.01-0.39-0.02c-0.02,0.13,0.48-0.06,0.37,0.15c-0.15-0.05-0.32,0.02-0.47,0.02c0.05,0.18,0.53,0.08,0.51,0.25
					c-0.08,0.04-0.43-0.24-0.46-0.03c-0.01,0.04,0.15,0.05,0.22,0.06c-0.48,0.06-0.74,0.26-0.31,0.51c-0.15-0.01-0.36-0.1-0.52-0.08
					c0,0,0,0,0,0c0.08,0.01,0.22,0.06,0.29,0.06c-0.09-0.01-0.18-0.01-0.27-0.02c0.01,0.03,0.03,0.06,0.05,0.09
					c0.07,0.03,0.13,0.05,0.2,0.05c-0.06,0-0.12-0.01-0.18-0.01c0.04,0.07,0.09,0.14,0.15,0.21c0.21,0.14,0.41,0.35,0.53,0.36
					C467.18,444.24,468.12,444.33,469.05,444.36z"/>
			</g>
		</g>
	</g>
	<g>
		<g>
			<g>
				<path class="st0" d="M488.89,172.47c0.02-0.08-0.09-0.18,0.11-0.18c0.62,0.03,1.06,0.38,1.68,0.4l0.06-0.12
					c0.45,0.13,0.95,0.28,1.43,0.42c0.93,0.12,1.85,0.22,2.77,0.3c-0.02-0.05-0.02-0.1,0.07-0.1c0.39,0.02,0.91,0.12,1.46,0.2
					l0.24,0.01c0.07-0.02,0.09-0.06,0.1-0.09c0.25,0.03,0.47,0.07,0.67,0.1c2.73,0.03,5.51-0.07,8.5-0.41
					c0.63-0.12,1.26-0.29,1.86-0.36c0.9-0.11,2.05-0.15,2.94-0.29c-0.11-0.21,0.36-0.48,0.77-0.74c0.41-0.27,0.76-0.56,0.5-0.73
					c0.55-0.11,1.32-0.41,1.31-0.54c-0.02-0.2,0.04-0.44,0.19-0.74c0.08-0.15,0.19-0.31,0.33-0.47c0.13-0.18,0.26-0.38,0.45-0.57
					c0.11-0.16,0.32-0.3,0.45-0.44c0.11-0.15,0.23-0.27,0.23-0.34c0.02-0.17-0.14-0.01-0.25,0c-0.12,0.05-0.22,0.09-0.23-0.01
					c-0.3,0.42-0.91,0.83-1.69,1.16c-0.79,0.33-1.73,0.55-2.68,0.74c-1.95,0.33-4.05,0.44-6.21,0.39c-0.73,0.1-3.61,0.05-6.64-0.26
					c-3.03-0.3-6.18-0.81-7.46-1.08l-0.23-0.03c-1.4-0.27-3.1-0.56-4.32-0.63c-0.54,0.01-1.13,0.01-1.72,0.02
					c0.24,0.13,0.46,0.25,0.65,0.37c-0.56-0.13-1.12-0.26-1.35-0.22c-1.23-0.07-0.61,0.3-0.22,0.71c0.3,0.21-0.19,0.31,0.3,0.56
					c-0.37-0.09-0.56-0.13-0.94-0.22c-0.07,0.12,1.17,0.19,0.87,0.34c-0.35-0.13-0.77-0.14-1.15-0.23c0.09,0.2,1.29,0.35,1.19,0.51
					c-0.21,0-1.01-0.46-1.13-0.27c-0.02,0.04,0.35,0.13,0.54,0.17c-1.17-0.19-1.86-0.14-0.85,0.33c-0.37-0.09-0.86-0.3-1.27-0.37
					l0,0c0.2,0.06,0.52,0.18,0.7,0.22l-0.67-0.17l0.1,0.12c0.16,0.07,0.32,0.13,0.5,0.17l-0.44-0.11c0.1,0.1,0.21,0.19,0.33,0.29
					c0.49,0.26,0.95,0.57,1.24,0.64C484.27,171.52,486.58,172.04,488.89,172.47z"/>
			</g>
		</g>
	</g>
	<g>
		<g>
			<g>
				<path class="st0" d="M488.31,238.13c0.02-0.08-0.08-0.18,0.12-0.18c0.63,0.06,1.07,0.44,1.7,0.5l0.07-0.12
					c0.46,0.17,0.96,0.31,1.46,0.45c0.95,0.14,1.9,0.26,2.85,0.28c-0.02-0.05-0.03-0.09,0.07-0.1c0.4,0,0.93,0.1,1.5,0.17
					c0.08,0,0.17,0,0.25-0.01c0.07-0.03,0.09-0.07,0.1-0.1c0.25,0.01,0.48,0.03,0.69,0.05c0.69-0.05,1.38-0.1,2.09-0.15
					c0.69-0.1,1.39-0.2,2.1-0.31c1.41-0.16,2.82-0.58,4.29-0.9c0.61-0.2,1.2-0.48,1.78-0.65c0.86-0.25,2.01-0.35,2.85-0.63
					c-0.24-0.41,1.7-1.23,1.16-1.55c0.54-0.16,1.37-0.37,1.36-0.54c-0.01-0.42,0.24-1.01,1.52-1.77c0.51-0.26,1.4-0.44,1.56-0.59
					c0.24-0.23-0.8,0.02-0.56-0.21c-3.93,1.59-7.84,2.8-12.07,3.29c-0.18,0.05-0.48,0.11-0.89,0.19c-0.41,0.05-0.92,0.09-1.5,0.13
					c-0.58,0.03-1.23,0.12-1.92,0.11c-0.69-0.01-1.42-0.01-2.16-0.02c-2.95-0.12-5.99-0.71-7.2-1.06l-0.22-0.04
					c-0.66-0.18-1.39-0.4-2.11-0.56c-0.7-0.21-1.39-0.37-1.97-0.49c-0.51-0.08-1.08-0.17-1.64-0.25c0.19,0.16,0.38,0.32,0.56,0.47
					c-0.52-0.2-1.02-0.45-1.25-0.46c-1.16-0.31-0.66,0.18-0.36,0.65c0.25,0.26-0.25,0.27,0.18,0.61c-0.35-0.16-0.53-0.23-0.87-0.41
					c-0.1,0.11,1.11,0.42,0.78,0.51c-0.32-0.2-0.74-0.29-1.08-0.47c0.04,0.23,1.2,0.62,1.07,0.75c-0.21-0.05-0.91-0.65-1.06-0.5
					c-0.03,0.03,0.32,0.21,0.5,0.29c-1.12-0.44-1.83-0.58-0.92,0.13c-0.36-0.18-0.79-0.5-1.2-0.7l0,0c0.21,0.13,0.49,0.33,0.67,0.42
					c-0.22-0.12-0.41-0.22-0.64-0.36c0.02,0.05,0.05,0.1,0.08,0.15c0.15,0.11,0.3,0.21,0.46,0.3l-0.42-0.23
					c0.07,0.12,0.16,0.24,0.27,0.37c0.44,0.39,0.84,0.8,1.12,0.93C483.65,236.67,485.96,237.51,488.31,238.13z"/>
			</g>
		</g>
	</g>
	<g>
		<g>
			<g>
				<path class="st0" d="M488.53,205.11c0.02-0.08-0.08-0.18,0.12-0.18c0.62,0.05,1.05,0.45,1.68,0.48l0.07-0.12
					c0.45,0.14,0.96,0.3,1.44,0.45c0.93,0.17,1.88,0.22,2.82,0.31c-0.02-0.05-0.02-0.1,0.07-0.1c0.39,0.02,0.92,0.13,1.48,0.18
					l0.25,0c0.07-0.02,0.09-0.07,0.1-0.1c0.25,0.02,0.48,0.05,0.68,0.08c1.38,0.02,2.78-0.18,4.19-0.29
					c0.7-0.11,1.42-0.23,2.14-0.35c0.36-0.06,0.72-0.12,1.08-0.18c0.36-0.09,0.72-0.18,1.09-0.27c0.61-0.21,1.22-0.42,1.81-0.57
					c0.87-0.23,2-0.45,2.86-0.64c-0.23-0.35,1.67-1.29,1.12-1.59c0.53-0.19,1.33-0.47,1.32-0.6c-0.01-0.2,0.04-0.45,0.25-0.73
					c0.2-0.3,0.53-0.68,1.11-1.11c0.47-0.3,1.31-0.55,1.45-0.71c0.21-0.25-0.78,0.09-0.57-0.16c-3.58,1.9-7.44,3.08-11.66,3.41
					c-0.36,0.06-1.23,0.2-2.38,0.25c-1.16,0.02-2.6,0.06-4.08-0.07c-2.96-0.19-6.04-0.77-7.27-1.12l-0.23-0.05
					c-0.68-0.16-1.42-0.34-2.15-0.51c-0.73-0.16-1.43-0.31-2.02-0.4c-0.52-0.05-1.11-0.1-1.68-0.15c0.22,0.15,0.42,0.3,0.59,0.44
					c-0.53-0.19-1.06-0.38-1.3-0.37c-1.19-0.22-0.64,0.22-0.3,0.68c0.27,0.24-0.23,0.29,0.23,0.59c-0.36-0.13-0.54-0.2-0.9-0.33
					c-0.09,0.11,1.14,0.33,0.82,0.44c-0.34-0.16-0.75-0.23-1.11-0.37c0.06,0.22,1.24,0.51,1.13,0.65c-0.21-0.02-0.95-0.58-1.09-0.41
					c-0.03,0.04,0.33,0.17,0.51,0.24c-1.14-0.34-1.85-0.39-0.89,0.22c-0.36-0.14-0.82-0.42-1.23-0.55l0,0
					c0.2,0.09,0.51,0.26,0.68,0.33l-0.65-0.27l0.08,0.13c0.16,0.1,0.31,0.17,0.48,0.24l-0.43-0.18c0.08,0.11,0.18,0.22,0.3,0.33
					c0.47,0.34,0.89,0.7,1.17,0.81C483.91,203.85,486.2,204.57,488.53,205.11z"/>
			</g>
		</g>
	</g>
	<g>
		<g>
			<g>
				<path class="st0" d="M491.08,272.87c0.03-0.07-0.12-0.21,0.17-0.16c0.89,0.21,1.53,0.68,2.45,0.83l0.1-0.11
					c0.68,0.22,1.39,0.46,2.14,0.64c1.39,0.22,2.8,0.35,4.2,0.35c-0.03-0.05-0.05-0.09,0.09-0.1c0.61,0.01,1.39,0.02,2.22,0.03
					c0.12-0.02,0.25-0.03,0.37-0.05c0.09-0.04,0.11-0.08,0.13-0.11c0.37-0.02,0.71-0.03,1.02-0.04c2.02-0.33,4.01-0.89,5.95-1.65
					c1.93-0.78,3.8-1.81,5.61-3c0.71-0.6,1.46-1.13,2.12-1.71c0.51-0.41,1.14-0.79,1.71-1.25c0.29-0.22,0.58-0.45,0.86-0.66
					c0.11-0.08,0.21-0.16,0.31-0.24c0.1-0.05,0.16-0.18,0.28-0.15c-0.49-0.46,2.67-0.69,2.04-1.15c0.83,0.01,2.07,0.03,2.14-0.11
					c0.19-0.39,0.83-0.84,3.03-1.08c0.86-0.06,2.18,0.11,2.49,0.03c0.48-0.13-1.12-0.28-0.64-0.4c-1.6-0.04-3.19-0.05-4.76-0.06
					l-2.36,0l-1.18,0.01l-0.87,0l-0.59,0l-0.3,0c-0.09,0.01-0.16,0.11-0.24,0.16l-2.25,1.85c-0.6,0.43-1.2,0.88-1.81,1.3
					c-1.25,0.8-2.53,1.57-3.91,2.17c-0.85,0.56-4.56,2.16-8.72,2.43c-2.07,0.16-4.21,0.02-6.02-0.29c-1.81-0.31-3.31-0.73-4.15-1.04
					l-0.31-0.09c-1.87-0.62-4.06-1.58-5.62-2.22c-0.73-0.27-1.48-0.55-2.22-0.85c0.26,0.25,0.51,0.49,0.74,0.71
					c-0.69-0.42-1.36-0.86-1.67-0.96c-1.53-0.8-0.87-0.07-0.48,0.57c0.33,0.38-0.34,0.2,0.23,0.73c-0.47-0.3-0.69-0.46-1.15-0.78
					c-0.13,0.08,1.46,0.89,1.03,0.86c-0.43-0.33-0.97-0.6-1.42-0.93c0.05,0.27,1.57,1.14,1.41,1.23c-0.28-0.12-1.19-1.06-1.39-0.95
					c-0.04,0.03,0.42,0.35,0.65,0.51c-1.47-0.91-2.36-1.36-1.21-0.21c-0.46-0.34-1.02-0.87-1.53-1.26l0,0.01
					c0.25,0.22,0.62,0.56,0.84,0.74c-0.27-0.21-0.53-0.42-0.8-0.65l0.09,0.19c0.19,0.19,0.37,0.36,0.58,0.52l-0.53-0.43
					c0.09,0.16,0.2,0.34,0.33,0.52c0.56,0.6,1.07,1.21,1.43,1.46C484.56,270.08,487.72,271.72,491.08,272.87z"/>
			</g>
		</g>
	</g>
	<g>
		<g>
			<g>
				<path class="st0" d="M488.27,339.78c0.03-0.08-0.07-0.19,0.13-0.17c0.63,0.13,1.06,0.51,1.7,0.62l0.08-0.11
					c0.46,0.18,0.97,0.37,1.46,0.57c0.96,0.21,1.92,0.37,2.89,0.5c-0.02-0.05-0.02-0.1,0.08-0.1c0.41,0.02,0.95,0.18,1.53,0.26
					l0.26,0.01c0.07-0.02,0.09-0.06,0.11-0.09c0.26,0.04,0.49,0.08,0.7,0.12c2.87,0.02,5.8-0.24,8.81-1.08
					c0.63-0.21,1.24-0.5,1.84-0.69c0.89-0.28,2.04-0.56,2.89-0.89c-0.27-0.35,1.6-1.46,0.99-1.7c0.54-0.21,1.28-0.67,1.26-0.79
					c-0.04-0.2-0.02-0.45,0.15-0.77c0.16-0.33,0.45-0.74,0.98-1.23c0.41-0.39,1.19-0.8,1.3-0.98c0.16-0.29-0.75,0.24-0.58-0.05
					c-3.25,2.5-7.01,4.07-11.26,4.48c-0.7,0.17-3.54,0.45-6.54,0.08c-3-0.3-6.09-1.15-7.32-1.59l-0.23-0.07
					c-1.35-0.44-2.98-1-4.16-1.3c-0.53-0.1-1.11-0.22-1.69-0.33c0.19,0.17,0.38,0.34,0.56,0.5c-0.53-0.24-1.04-0.49-1.28-0.51
					c-1.18-0.36-0.67,0.15-0.37,0.64c0.25,0.27-0.26,0.26,0.17,0.62c-0.35-0.18-0.53-0.27-0.88-0.44c-0.1,0.1,1.13,0.47,0.79,0.54
					c-0.32-0.21-0.74-0.32-1.1-0.51c0.04,0.23,1.21,0.66,1.08,0.79c-0.22-0.05-0.91-0.69-1.07-0.54c-0.03,0.03,0.32,0.22,0.5,0.31
					c-1.13-0.48-1.86-0.66-0.94,0.1c-0.18-0.09-0.38-0.23-0.59-0.37c-0.11-0.07-0.22-0.15-0.32-0.21c-0.07-0.04-0.13-0.08-0.19-0.12
					l-0.05-0.03l-0.02-0.01c-0.01,0,0,0-0.09-0.07c-0.27-0.2-0.47-0.63-0.47-0.92l0,0.04c0,0.3,0.24,0.76,0.54,0.95
					c0.03,0.02,0.07,0.05,0.1,0.08c0.07,0.05,0.14,0.1,0.21,0.15c0.12,0.08,0.25,0.17,0.34,0.22l-0.33-0.19l-0.18-0.11l-0.1-0.07
					l-0.05-0.03c0.02,0.01-0.06-0.04-0.14-0.11c-0.07-0.07-0.14-0.15-0.2-0.24c0.07,0.12,0.16,0.22,0.25,0.31
					c0.06,0.05,0.07,0.07,0.07,0.07l0.01,0.02l0.05,0.09c0.21,0.17,0.33,0.25,0.51,0.36l-0.46-0.28c0.11,0.15,0.18,0.27,0.3,0.41
					c0.45,0.41,0.85,0.84,1.13,0.98C483.63,338.06,485.91,339.02,488.27,339.78z"/>
			</g>
		</g>
	</g>
	<g>
		<g>
			<g>
				<path class="st0" d="M489.64,373.63c0.02-0.08-0.1-0.19,0.12-0.18c0.69,0.08,1.17,0.45,1.86,0.52l0.08-0.12
					c0.5,0.16,1.05,0.33,1.59,0.51c1.03,0.17,2.07,0.32,3.1,0.43c-0.02-0.05-0.03-0.1,0.08-0.1c0.43,0.03,1.02,0.15,1.63,0.25
					l0.27,0.01c0.07-0.02,0.1-0.06,0.11-0.09c0.27,0.04,0.52,0.08,0.75,0.12c3.06,0.09,6.19-0.05,9.52-0.58
					c0.74-0.19,1.47-0.37,2.06-0.52c0.51-0.09,1.06-0.18,1.63-0.28c0.57-0.08,1.13-0.2,1.61-0.33c-0.14-0.21,0.37-0.49,0.8-0.84
					c0.43-0.34,0.8-0.65,0.5-0.79c0.6-0.19,1.44-0.61,1.43-0.73c-0.02-0.2,0.02-0.46,0.21-0.79c0.18-0.34,0.55-0.7,1.05-1.25
					c0.46-0.34,1.15-0.88,1.27-1.05c0.14-0.3-0.73,0.3-0.59-0.01c-0.73,0.7-1.63,1.21-2.54,1.72c-0.96,0.44-1.94,0.86-3.02,1.13
					c-2.12,0.6-4.42,0.88-6.8,0.91c-0.8,0.14-3.98,0.18-7.32-0.21c-3.34-0.36-6.82-1.08-8.22-1.44l-0.26-0.05
					c-1.54-0.37-3.4-0.81-4.74-0.99c-0.59-0.05-1.25-0.1-1.89-0.16c0.26,0.15,0.49,0.3,0.7,0.44c-0.61-0.19-1.22-0.38-1.47-0.37
					c-1.35-0.21-0.69,0.24-0.28,0.69c0.32,0.24-0.23,0.29,0.3,0.6c-0.41-0.13-0.61-0.2-1.02-0.33c-0.09,0.11,1.29,0.32,0.94,0.44
					c-0.38-0.17-0.85-0.22-1.26-0.36c0.09,0.22,1.41,0.5,1.29,0.65c-0.24-0.03-1.09-0.58-1.23-0.4c-0.03,0.04,0.38,0.17,0.59,0.24
					c-1.29-0.32-2.06-0.36-0.96,0.24c-0.41-0.14-0.94-0.4-1.39-0.53l0,0c0.22,0.08,0.57,0.25,0.77,0.31l-0.73-0.25l0.1,0.13
					c0.18,0.09,0.35,0.17,0.54,0.23l-0.48-0.17c0.1,0.11,0.22,0.22,0.35,0.33c0.53,0.32,1.03,0.69,1.34,0.79
					C484.52,372.28,487.06,373.03,489.64,373.63z"/>
			</g>
		</g>
	</g>
	<g>
		<g>
			<g>
				<path class="st0" d="M488.22,407.33c0.03-0.08-0.08-0.19,0.13-0.17c0.63,0.14,1.08,0.49,1.72,0.58l0.08-0.12
					c0.47,0.17,0.96,0.39,1.48,0.54c0.98,0.14,1.94,0.32,2.92,0.38c-0.02-0.05-0.03-0.09,0.07-0.1c0.41,0,0.96,0.1,1.54,0.17l0.26,0
					c0.07-0.02,0.09-0.07,0.1-0.09c0.26,0.02,0.49,0.07,0.71,0.09c1.44-0.14,2.87-0.17,4.31-0.51c0.72-0.15,1.45-0.25,2.18-0.44
					c0.72-0.21,1.45-0.43,2.19-0.65c0.62-0.22,1.21-0.53,1.78-0.77c0.43-0.16,0.93-0.31,1.44-0.45c0.5-0.13,1.01-0.26,1.41-0.46
					c-0.28-0.38,1.59-1.45,1-1.7c0.53-0.22,1.33-0.56,1.31-0.69c-0.06-0.42,0.11-1.04,1.26-1.99c0.47-0.34,1.33-0.65,1.46-0.82
					c0.21-0.27-0.8,0.15-0.59-0.12c-3.62,2.23-7.43,3.84-11.64,4.52c-0.69,0.22-3.5,0.62-6.48,0.48c-2.99-0.09-6.04-0.93-7.26-1.3
					l-0.22-0.06c-1.33-0.42-2.94-0.96-4.1-1.28c-0.54-0.12-1.11-0.21-1.66-0.35c0.19,0.18,0.37,0.35,0.54,0.51
					c-0.51-0.25-1.01-0.51-1.25-0.53c-1.16-0.39-0.67,0.14-0.39,0.64c0.25,0.27-0.27,0.26,0.16,0.62c-0.35-0.18-0.53-0.26-0.87-0.46
					c-0.11,0.11,1.11,0.49,0.77,0.56c-0.32-0.21-0.73-0.33-1.08-0.53c0.03,0.23,1.19,0.69,1.06,0.81c-0.22-0.05-0.89-0.71-1.06-0.56
					c-0.03,0.03,0.31,0.23,0.49,0.32c-1.11-0.52-1.82-0.69-0.94,0.08c-0.35-0.19-0.78-0.55-1.19-0.77l0,0
					c0.2,0.14,0.48,0.35,0.65,0.46c-0.21-0.13-0.4-0.24-0.63-0.39c0.02,0.05,0.04,0.1,0.07,0.15c0.15,0.13,0.29,0.23,0.46,0.33
					l-0.41-0.25c0.07,0.12,0.15,0.25,0.25,0.38c0.43,0.42,0.82,0.84,1.09,1C483.54,405.6,485.83,406.62,488.22,407.33z"/>
			</g>
		</g>
	</g>
	<g>
		<g>
			<g>
				<path class="st0" d="M489.43,441.6c0.02-0.08-0.09-0.19,0.13-0.17c0.69,0.09,1.17,0.48,1.87,0.56l0.08-0.12
					c0.52,0.16,1.05,0.36,1.6,0.52c1.04,0.18,2.09,0.32,3.14,0.41c-0.02-0.05-0.03-0.1,0.08-0.1c0.44,0.02,1.03,0.15,1.65,0.22
					l0.28,0c0.07-0.02,0.1-0.06,0.11-0.09c0.28,0.04,0.52,0.07,0.76,0.1c3.09-0.03,6.23-0.31,9.51-1.09
					c0.69-0.2,1.36-0.47,2.01-0.65c0.97-0.25,2.24-0.49,3.18-0.78c-0.26-0.36,1.87-1.39,1.25-1.67c0.6-0.19,1.46-0.6,1.45-0.73
					c-0.03-0.41,0.23-1,1.5-1.98c0.5-0.37,1.39-0.75,1.54-0.93c0.22-0.29-0.83,0.2-0.61-0.09c-3.87,2.37-8.18,3.79-12.89,4.17
					c-0.79,0.17-3.93,0.43-7.24,0.13c-3.32-0.25-6.75-1.01-8.12-1.39l-0.25-0.06c-1.51-0.4-3.34-0.9-4.65-1.15
					c-0.58-0.08-1.23-0.17-1.86-0.25c0.24,0.17,0.47,0.33,0.67,0.48c-0.59-0.22-1.18-0.45-1.44-0.45c-1.33-0.3-0.7,0.19-0.32,0.67
					c0.31,0.26-0.25,0.28,0.26,0.62c-0.4-0.16-0.6-0.24-1-0.4c-0.09,0.11,1.26,0.41,0.91,0.5c-0.37-0.19-0.83-0.28-1.23-0.45
					c0.07,0.23,1.37,0.6,1.25,0.73c-0.24-0.04-1.05-0.65-1.21-0.48c-0.03,0.04,0.37,0.2,0.57,0.28c-1.27-0.41-2.04-0.52-0.98,0.17
					c-0.4-0.16-0.91-0.47-1.36-0.64l0,0c0.22,0.11,0.56,0.3,0.75,0.38l-0.72-0.32l0.09,0.14c0.17,0.1,0.34,0.2,0.53,0.28l-0.48-0.21
					c0.09,0.12,0.2,0.24,0.33,0.36c0.51,0.37,0.99,0.77,1.29,0.89C484.3,440.07,486.84,440.93,489.43,441.6z"/>
			</g>
		</g>
	</g>
	<g>
		<g>
			<g>
				<path class="st0" d="M489.59,475.66c0.02-0.08-0.1-0.19,0.12-0.18c0.69,0.07,1.18,0.43,1.87,0.49l0.07-0.12
					c0.5,0.15,1.06,0.31,1.6,0.46c1.04,0.14,2.07,0.25,3.11,0.33c-0.02-0.05-0.03-0.1,0.08-0.1c0.43,0.01,1.02,0.12,1.64,0.18
					l0.27,0c0.07-0.02,0.09-0.07,0.11-0.09c0.27,0.03,0.52,0.06,0.75,0.09c3.05-0.07,6.15-0.37,9.41-1.1c0.68-0.21,1.35-0.43,2-0.62
					c0.5-0.11,1.04-0.22,1.6-0.34c0.56-0.1,1.11-0.23,1.57-0.37c-0.14-0.2,0.35-0.52,0.78-0.84c0.42-0.34,0.8-0.66,0.5-0.8
					c0.6-0.18,1.47-0.55,1.46-0.69c-0.03-0.42,0.25-0.99,1.52-1.94c0.51-0.34,1.39-0.72,1.54-0.89c0.22-0.28-0.83,0.18-0.6-0.1
					c-3.85,2.27-8.19,3.55-12.9,3.91c-0.79,0.15-3.92,0.42-7.24,0.17c-3.31-0.2-6.76-0.83-8.14-1.17l-0.25-0.05
					c-1.52-0.34-3.36-0.75-4.68-0.94c-0.59-0.05-1.23-0.1-1.87-0.15c0.24,0.15,0.47,0.3,0.69,0.44c-0.6-0.18-1.2-0.38-1.45-0.37
					c-1.33-0.22-0.69,0.23-0.28,0.69c0.32,0.24-0.23,0.29,0.29,0.6c-0.4-0.13-0.61-0.2-1.01-0.34c-0.09,0.11,1.27,0.33,0.93,0.45
					c-0.38-0.17-0.84-0.23-1.25-0.37c0.08,0.22,1.39,0.51,1.28,0.66c-0.24-0.03-1.08-0.59-1.22-0.41c-0.03,0.04,0.38,0.18,0.58,0.24
					c-1.28-0.34-2.04-0.39-0.96,0.23c-0.4-0.14-0.93-0.42-1.38-0.55l0,0c0.22,0.09,0.57,0.26,0.77,0.33l-0.73-0.27l0.1,0.13
					c0.17,0.09,0.35,0.18,0.54,0.24l-0.48-0.18c0.1,0.11,0.21,0.22,0.35,0.34c0.53,0.33,1.02,0.71,1.33,0.81
					C484.46,474.36,487,475.1,489.59,475.66z"/>
			</g>
		</g>
	</g>
	<g>
		<g>
			<g>
				<path class="st0" d="M488.63,505.22c0.02-0.08-0.09-0.18,0.11-0.18c0.61,0.04,1.05,0.4,1.66,0.43l0.07-0.12
					c0.45,0.13,0.94,0.27,1.42,0.41c0.92,0.14,1.84,0.21,2.77,0.27c-0.02-0.05-0.02-0.1,0.07-0.1c0.38,0,0.9,0.13,1.45,0.18
					l0.24-0.01c0.06-0.02,0.08-0.07,0.1-0.1c0.25,0.02,0.47,0.05,0.67,0.08c2.71-0.03,5.47-0.34,8.38-0.85
					c0.61-0.19,1.22-0.37,1.8-0.49c0.88-0.11,1.99-0.32,2.85-0.44c-0.11-0.21,0.34-0.47,0.74-0.73c0.39-0.3,0.74-0.58,0.48-0.75
					c0.54-0.15,1.35-0.37,1.35-0.51c0-0.42,0.3-0.9,1.48-1.7c0.48-0.26,1.33-0.44,1.47-0.59c0.22-0.23-0.78,0.03-0.55-0.2
					c-3.67,1.56-7.6,2.42-11.82,2.6c-0.36,0.05-1.23,0.18-2.39,0.17c-0.58,0-1.23,0.01-1.92,0.01c-0.69-0.04-1.42-0.08-2.16-0.12
					c-2.95-0.21-6.03-0.69-7.27-1l-0.23-0.04c-1.36-0.28-3.01-0.61-4.19-0.73c-0.52-0.02-1.11-0.04-1.68-0.05
					c0.23,0.14,0.44,0.27,0.61,0.4c-0.54-0.16-1.08-0.31-1.31-0.29c-1.2-0.14-0.62,0.27-0.26,0.7c0.28,0.22-0.21,0.31,0.26,0.58
					c-0.36-0.11-0.54-0.16-0.91-0.27c-0.08,0.12,1.14,0.26,0.83,0.39c-0.34-0.14-0.75-0.18-1.12-0.29c0.08,0.21,1.25,0.43,1.15,0.58
					c-0.21-0.01-0.97-0.52-1.1-0.33c-0.03,0.04,0.34,0.15,0.52,0.21c-1.15-0.26-1.84-0.26-0.87,0.28c-0.36-0.11-0.83-0.35-1.24-0.46
					l0,0c0.2,0.07,0.51,0.22,0.69,0.28l-0.66-0.22l0.09,0.12c0.16,0.08,0.31,0.15,0.48,0.21l-0.43-0.14
					c0.09,0.1,0.19,0.21,0.31,0.31c0.48,0.3,0.91,0.63,1.19,0.72C484.05,504.16,486.33,504.76,488.63,505.22z"/>
			</g>
		</g>
	</g>
	<g>
		<g>
			<g>
				<path class="st0" d="M494.05,544.12c0.02-0.08-0.07-0.18,0.09-0.19c0.5,0.01,0.85,0.34,1.35,0.35l0.06-0.12
					c0.37,0.12,0.75,0.26,1.15,0.37c0.75,0.08,1.49,0.18,2.24,0.2c-0.01-0.05-0.02-0.09,0.06-0.1c0.31,0,0.73,0.09,1.18,0.15l0.2,0
					c0.05-0.02,0.07-0.07,0.08-0.09c0.19,0.03,0.37,0.05,0.54,0.08c2.21-0.11,4.44-0.32,6.82-0.8c0.5-0.13,0.99-0.34,1.46-0.45
					c0.35-0.07,0.76-0.12,1.17-0.15c0.41-0.05,0.81-0.13,1.16-0.2c-0.2-0.43,1.38-1.02,0.92-1.4c0.42-0.14,1.05-0.36,1.04-0.49
					c-0.02-0.2,0.01-0.44,0.16-0.69c0.15-0.25,0.43-0.52,0.82-0.9c0.33-0.25,0.97-0.4,1.06-0.54c0.13-0.22-0.62,0.02-0.48-0.2
					c-2.56,1.37-5.7,2.07-9.07,2.19c-0.57,0.13-2.81,0.21-5.19,0.04c-2.38-0.16-4.86-0.58-5.86-0.81l-0.18-0.03
					c-1.1-0.23-2.43-0.47-3.4-0.51c-0.42,0.02-0.9,0.03-1.37,0.05c0.18,0.12,0.35,0.24,0.49,0.35c-0.44-0.12-0.88-0.23-1.06-0.2
					c-0.98-0.05-0.52,0.31-0.23,0.71c0.23,0.2-0.18,0.31,0.2,0.55c-0.29-0.08-0.44-0.12-0.74-0.21c-0.07,0.12,0.93,0.17,0.67,0.33
					c-0.27-0.12-0.61-0.13-0.91-0.21c0.06,0.2,1.01,0.34,0.93,0.49c-0.17,0-0.78-0.45-0.89-0.25c-0.02,0.04,0.27,0.12,0.42,0.17
					c-0.93-0.17-1.5-0.12-0.72,0.34c-0.3-0.09-0.68-0.29-1.01-0.35l0,0c0.16,0.06,0.42,0.17,0.56,0.22l-0.53-0.16l0.07,0.11
					c0.13,0.07,0.25,0.12,0.39,0.16l-0.35-0.11c0.07,0.1,0.15,0.19,0.25,0.28c0.38,0.26,0.73,0.56,0.96,0.62
					C490.34,543.29,492.18,543.75,494.05,544.12z"/>
			</g>
		</g>
	</g>
	<g>
		<g>
			<g>
				<path class="st0" d="M467.14,865.47c0.08,0.02,0.21-0.43,0.17,0.29c-0.15,2.26-0.6,4.04-0.75,6.3l0.11,0.18
					c-0.23,1.73-0.48,3.55-0.73,5.4c-0.31,3.42-0.62,6.82-0.93,10.21c0.06-0.08,0.1-0.12,0.09,0.22c-0.11,1.41-0.35,3.36-0.56,5.37
					c-0.02,0.3-0.04,0.6-0.07,0.89c0.01,0.23,0.04,0.3,0.07,0.34c-0.1,0.91-0.19,1.72-0.28,2.47c-0.09,1.24-0.18,2.49-0.27,3.74
					l-0.12,1.5l-0.05,0.82c0,0.03-0.01,0.07,0,0.1l0.09,0.06l0.17,0.12l0.34,0.23c0.45,0.29,0.96,0.64,1.36,0.88l0.85,0.49
					c2.26,1.28,4.6,2.41,7.04,3.41c4.86,1.99,10.05,3.5,15.56,4.28c1.17,0.17,2.35,0.22,3.5,0.33c1.17,0.04,2.31,0.14,3.44,0.14
					c3.34,0.15,7.62,0.02,10.86-0.48c-0.28-0.21,1.54-0.62,3.17-1.17c0.82-0.28,1.6-0.54,2.06-0.75c0.46-0.23,0.62-0.38,0.22-0.39
					c1.02-0.31,2.32-0.61,3.33-1.02c1.02-0.38,1.8-0.68,1.86-0.77c0.17-0.25,0.58-0.66,1.58-1.3c1.18-0.7,2.7-1.6,4.95-2.94
					c1.89-1.07,4.76-2.8,5.36-3.28c0.94-0.77-2.51,1.32-1.57,0.55c-6.73,4.39-14.17,7.36-21.95,8.45
					c-7.77,1.08-15.81,0.4-23.56-1.97c-1.33-0.36-4.57-1.31-8.6-3.15c-1.01-0.45-2.06-0.98-3.14-1.54c-0.54-0.29-1.09-0.58-1.63-0.9
					c-0.27-0.16-0.55-0.32-0.82-0.48c-0.24-0.15-0.48-0.29-0.72-0.44l-0.1-0.06c-0.03-0.02,0-0.07-0.01-0.11
					c0.06-0.59,0.11-1.18,0.17-1.78c0.14-1.41,0.27-2.84,0.41-4.27c1.11-11.5,2.31-23.51,2.85-28.41l0.08-0.89
					c0.56-5.35,1.18-11.86,1.46-16.41c0.09-2.07,0.18-4.21,0.26-6.34c-0.18,0.96-0.35,1.85-0.49,2.65c0.22-2.14,0.45-4.28,0.45-5.11
					c0.26-4.58-0.23-2.02-0.72-0.3c-0.26,1.25-0.3-0.48-0.64,1.48c0.15-1.42,0.22-2.14,0.37-3.57c-0.11-0.18-0.37,4.4-0.49,3.39
					c0.19-1.37,0.26-2.92,0.41-4.34c-0.23,0.48-0.56,4.94-0.71,4.7c0.04-0.77,0.64-3.99,0.45-4.28c-0.04-0.06-0.19,1.37-0.26,2.08
					c0.37-4.4,0.41-6.84-0.23-2.86c0.15-1.39,0.43-3.35,0.55-4.83l0,0.01c-0.09,0.73-0.24,2-0.32,2.68l0.26-2.51
					c-0.04,0.14-0.09,0.28-0.13,0.43c-0.09,0.62-0.17,1.25-0.24,1.9c0.06-0.55,0.12-1.11,0.17-1.66c-0.11,0.41-0.23,0.88-0.34,1.4
					c-0.34,1.96-0.73,3.84-0.84,4.91C468.96,848.17,468.02,856.84,467.14,865.47z"/>
			</g>
		</g>
	</g>
	<g>
		<g>
			<g>
				<path class="st0" d="M528.45,847.32c0.08,0.01,0.16-0.2,0.2,0.12c0.08,1.01-0.19,1.81-0.12,2.82c0.04,0.02,0.09,0.05,0.13,0.07
					c-0.06,0.78-0.13,1.59-0.19,2.42c0.02,1.53,0.05,3.04,0.09,4.55c0.05-0.04,0.09-0.06,0.11,0.09c0.03,0.63-0.01,1.5-0.02,2.4
					c0.01,0.13,0.02,0.27,0.02,0.4c0.03,0.1,0.07,0.13,0.1,0.15c0,0.41-0.02,0.77-0.03,1.11c0.26,4.43,0.56,8.93,0.86,13.8
					c0.12,1.03,0.24,2.06,0.3,3.05c0.05,1.47-0.04,3.35-0.05,4.78c0.46-0.22,0.69,3.28,1.15,2.58c-0.01,0.96-0.03,2.39,0.11,2.47
					c0.39,0.22,0.84,0.96,1.08,3.5c0.06,0.99-0.11,2.52-0.03,2.87c0.13,0.55,0.28-1.29,0.4-0.74c0.14-7.39-0.03-14.5-0.02-21.94
					c-0.2-2.53-0.29-19.61-0.2-23.99c0-0.13,0-0.27-0.01-0.4c0.03-2.39-0.01-5.3-0.19-7.32c-0.11-0.93-0.24-1.87-0.37-2.81
					c-0.08,0.44-0.15,0.84-0.23,1.19c0.01-0.96,0.02-1.91-0.06-2.28c-0.2-2.04-0.43-0.88-0.74-0.1c-0.14,0.56-0.35-0.2-0.49,0.68
					c0.01-0.64,0.01-0.96,0.02-1.59c-0.13-0.07,0.07,1.96-0.15,1.52c0.05-0.61-0.03-1.3-0.02-1.94c-0.18,0.22-0.07,2.21-0.24,2.11
					c-0.04-0.34,0.24-1.79,0.02-1.91c-0.04-0.02-0.05,0.61-0.05,0.93c-0.07-1.96-0.27-3.04-0.51-1.25c0.01-0.62,0.1-1.5,0.07-2.16
					c0,0,0,0,0,0.01c-0.01,0.33-0.05,0.89-0.06,1.2c0-0.37,0.01-0.75,0.01-1.12c-0.03,0.06-0.06,0.13-0.09,0.2
					c-0.03,0.28-0.05,0.56-0.05,0.85c0-0.25,0.01-0.5,0.01-0.74c-0.07,0.19-0.14,0.4-0.2,0.63c-0.14,0.88-0.35,1.73-0.35,2.21
					C528.53,839.59,528.46,843.46,528.45,847.32z"/>
			</g>
		</g>
	</g>
	<g>
		<g>
			<g>
				<path class="st0" d="M538.45,935.11c0.08,0.02,0.16-0.54,0.2,0.33c0.04,1.38-0.01,2.62-0.06,3.86c-0.03,0.1-0.04,0.09-0.1,0.11
					l-0.04,0.02l-0.4,0.24c-0.27,0.17-0.54,0.34-0.82,0.51l-0.1,0.21c-1.81,0.96-3.76,1.87-5.8,2.64c-3.71,1.56-7.58,2.7-11.53,3.51
					c0.11,0.03,0.17,0.06-0.22,0.15c-1.64,0.36-3.95,0.65-6.35,0.88c-0.36,0.04-0.71,0.08-1.06,0.11c-0.27,0.05-0.34,0.1-0.38,0.13
					c-1.09,0.1-2.06,0.13-2.97,0.15c-5.94,0.41-11.99,0.2-18.15-0.43c-6.17-0.66-12.46-1.76-18.91-3.35
					c-2.74-0.61-5.47-1.3-8.06-2.1c-0.96-0.3-1.97-0.64-3.01-1.02c-0.52-0.19-1.04-0.39-1.57-0.58l-0.58-0.23l-0.28-0.11l-0.14-0.06
					l0-0.15c0.02-2.16,0.03-4.3,0.05-6.16c-0.46,0.6-0.69-8.98-1.15-7.07c0.01-2.62,0.03-6.55-0.11-6.76
					c-0.39-0.61-0.84-2.63-1.08-9.58c-0.06-2.72,0.11-6.91,0.03-7.87c-0.13-1.51-0.28,3.53-0.4,2.02c-0.07,10.12-0.06,20.05-0.04,30
					l0.01,3.73l0.01,2.9l0.01,0.46l0,0.23c-0.01,0.05,0.01,0.07,0.06,0.08l0.11,0.04l0.86,0.35l1.69,0.66
					c2.39,0.89,4.79,1.69,7.22,2.44c4.85,1.49,9.8,2.75,14.86,3.8c1.74,0.29,5.94,1.11,11.55,1.72c5.59,0.63,12.61,1.01,19.77,0.46
					c7.17-0.51,14.45-2.12,20.39-4.48c1.46-0.65,2.9-1.17,4.18-1.88c0.65-0.33,1.27-0.65,1.88-0.96c0.61-0.31,1.16-0.68,1.7-1
					c0.76-0.46,1.5-0.9,2.19-1.32l0.33-0.2c0.08-0.02,0.07-0.09,0.07-0.15l0-0.19c0-0.25,0-0.51,0-0.75c0-0.45,0-0.88,0-1.3
					c0.01-1,0.01-1.89,0.01-2.64l-0.01-1.09c0.03-6.56-0.01-14.52-0.19-20.07c-0.12-2.53-0.24-5.13-0.37-7.71
					c-0.08,1.19-0.16,2.29-0.23,3.27c0.01-2.62,0.02-5.24-0.06-6.25c-0.2-5.58-0.43-2.42-0.74-0.27c-0.14,1.54-0.35-0.54-0.49,1.88
					c0.01-1.74,0.01-2.62,0.02-4.37c-0.13-0.2,0.07,5.38-0.15,4.17c0.05-1.68-0.03-3.56-0.02-5.31c-0.18,0.6-0.07,6.05-0.24,5.78
					c-0.04-0.94,0.24-4.91,0.02-5.24c-0.04-0.07-0.05,1.68-0.05,2.55c-0.07-5.38-0.27-8.34-0.51-3.43c0.01-1.7,0.1-4.11,0.07-5.92
					l0,0.01c-0.02,0.9-0.04,2.45-0.06,3.28c0-1.02,0.01-2.05,0.01-3.07c-0.03,0.17-0.06,0.35-0.09,0.54
					c-0.03,0.76-0.05,1.53-0.05,2.33c0-0.68,0.01-1.36,0.01-2.04c-0.07,0.51-0.14,1.09-0.2,1.74c-0.14,2.42-0.35,4.74-0.35,6.05
					C538.53,913.92,538.46,924.54,538.45,935.11z"/>
			</g>
		</g>
	</g>
</g>
</svg>
