<?xml version="1.0" encoding="utf-8"?>
<!-- Generator: Adobe Illustrator 23.0.1, SVG Export Plug-In . SVG Version: 6.00 Build 0)  -->
<svg version="1.1" id="Layer_1" xmlns="http://www.w3.org/2000/svg" xmlns:xlink="http://www.w3.org/1999/xlink" x="0px" y="0px"
	 viewBox="0 0 1000 1000" style="enable-background:new 0 0 1000 1000;" xml:space="preserve">
<style type="text/css">
	.st0{fill:#202020;}
	.st1{fill:none;stroke:#000000;stroke-width:0.1;stroke-miterlimit:10;}
	.st2{fill:none;stroke:#000000;stroke-miterlimit:10;}
</style>
<g>
	<g>
		<g>
			<g>
				<path class="st0" d="M414.91,440.32c0.03,0.09,0.13,0.09,0.05,0.21c-0.3,0.34-0.68,0.32-1,0.66l0.03,0.15
					c-0.27,0.15-0.58,0.34-0.88,0.49c-0.51,0.43-0.98,0.89-1.47,1.36c0.03,0.02,0.06,0.06,0.02,0.13c-0.19,0.21-0.51,0.4-0.81,0.66
					l-0.13,0.13c-0.02,0.06-0.02,0.11,0,0.13c-0.13,0.11-0.24,0.19-0.38,0.3c-1.34,1.51-2.64,3.15-4.01,4.94
					c-0.25,0.45-0.51,0.87-0.79,1.26c-0.51,0.57-1.03,1.15-1.45,1.6c0.28,0.28-0.55,1.7-0.09,1.81c-0.25,0.34-0.65,0.85-0.58,0.98
					c0.16,0.34,0.28,0.98-0.08,1.98c-0.09,0.36-0.38,0.74-0.38,0.89c0.03,0.21,0.36-0.3,0.4-0.06c0.36-0.98,1.34-2.38,2.29-3.53
					c0.95-1.21,2.02-2.38,3.14-3.49c0.62-1,6.02-5.91,7.52-6.94l0.13-0.11c0.79-0.62,1.74-1.4,2.34-2.09
					c0.24-0.32,0.52-0.7,0.79-1.06l-0.49,0.11c0.32-0.23,0.65-0.47,0.74-0.64c0.6-0.7,0.13-0.62-0.25-0.7
					c-0.24,0.02-0.06-0.38-0.43-0.28c0.22-0.15,0.33-0.23,0.54-0.4c-0.03-0.15-0.63,0.57-0.57,0.26c0.22-0.11,0.43-0.36,0.65-0.51
					c-0.14-0.11-0.77,0.51-0.81,0.32c0.09-0.13,0.7-0.23,0.65-0.47c-0.02-0.04-0.22,0.11-0.33,0.19c0.63-0.57,0.93-1.04,0.22-0.79
					c0.22-0.15,0.55-0.3,0.76-0.49l0,0c-0.09,0.06-0.35,0.21-0.43,0.26l0.4-0.28l-0.09-0.04c-0.11,0.04-0.21,0.11-0.32,0.17
					l0.25-0.19c-0.09-0.02-0.19-0.02-0.3-0.02c-0.36,0.09-0.73,0.13-0.88,0.23C417.53,438.32,416.19,439.27,414.91,440.32z"/>
			</g>
		</g>
	</g>
	<g>
		<g>
			<g>
				<path class="st0" d="M458.25,458.91c0.05-0.04-0.13-0.38,0.24,0.02c1.07,1.36,1.64,2.77,2.43,4.34l0.14,0.04
					c0.22,0.68,0.51,1.32,0.65,2.04l0.25,1.06l0.14,1.11c0.13,0.51,0.14,1.06,0.17,1.57l0.06,0.79l-0.05,0.79l-0.03,0.81
					c-0.02,0.17,0.02,0.17-0.05,0.49l-0.16,0.85l-0.6,3.38c1.03,0.19,2.04,0.38,3,0.62c-0.11-0.09-0.14-0.15,0.3-0.04
					c0.95,0.21,2.23,0.68,3.52,1.21l0.58,0.21c0.16,0.04,0.21,0,0.24-0.02c0.58,0.26,1.11,0.51,1.58,0.77
					c2.75,1.28,5.51,2.94,7.55,5.64c1,1.34,1.8,2.98,2.1,4.85c0.19,0.91,0.19,1.91,0.14,2.91c0,0.26-0.05,0.49-0.08,0.74l-0.05,0.38
					l-0.02,0.19c-0.02,0.17-0.03,0.23-0.06,0.36c-0.17,0.81-0.35,1.6-0.52,2.4c0.58,0.23,1.2,0.49,1.82,0.77
					c0.44,0.21,0.9,0.45,1.37,0.68c1.5,0.7,2.97,1.55,4.31,2.57c1.99,1.49,4.27,3.98,5.56,6.32c0.03-0.34,0.95,0.85,1.58,2.21
					c0.66,1.34,1.03,2.81,1.07,2c0.21,1.02,0.36,2.34,0.33,3.4c0.03,1.09-0.11,1.89-0.05,2c0.14,0.28,0.22,0.85,0.11,2.09
					c-0.13,1.21-0.51,3.11-1.64,5.55c-0.43,0.98-1.14,2.02-1.72,2.96c-0.63,0.87-1.17,1.62-1.34,1.91
					c-0.55,0.98,1.61-1.87,1.06-0.89c1.91-2.77,3.7-5.96,4.49-9.98c0.4-1.98,0.51-4.15,0.22-6.23c-0.28-2.09-0.95-4.02-1.79-5.68
					c-1.69-3.34-3.97-5.74-6.32-7.7c-1.19-0.98-2.42-1.85-3.67-2.64c-0.63-0.38-1.26-0.77-1.91-1.11l-0.51-0.26h-0.03v-0.04
					l0.14-0.91c0.06-0.34,0.08-0.72,0.11-1.09c0.06-0.98,0.08-3.02-0.58-5.49c-0.68-2.47-2.21-5.02-4.2-6.98s-4.38-3.49-6.87-4.68
					c-1.25-0.6-2.53-1.11-3.81-1.55c-0.65-0.21-1.28-0.43-1.93-0.6l-0.44-0.11c0-0.09,0.03-0.21,0.05-0.3l0.03-0.15
					c0-0.04,0-0.02,0.02-0.11l0.03-0.4c0.05-1.06,0.17-2.09,0.06-3.11c-0.03-0.51-0.05-1-0.09-1.49c-0.08-0.47-0.16-0.96-0.24-1.4
					c-0.13-0.94-0.43-1.77-0.65-2.57c-1.01-3.19-2.4-5.32-3.3-6.64c-0.16-0.21-0.3-0.45-0.47-0.64c-1.25-1.68-2.67-3.26-4.36-4.62
					l0.57,0.81c-0.32-0.77-0.82-1.36-1.26-1.62c-0.46-0.3-0.85-0.4-1.22-0.49c-0.73-0.15-1.36-0.13-1.96-0.06
					c-1.19,0.13-2.21,0.43-3.11,0.74c-1.47,0.53-2.89,1.21-4.3,1.91c0.68-0.19,1.33-0.36,1.88-0.47c-1.47,0.53-2.92,1.13-3.46,1.47
					c-3,1.57-1.22,1.02,0.03,0.81c0.87-0.23-0.21,0.47,1.14,0.06c-0.95,0.4-1.42,0.62-2.37,1.04c-0.08,0.17,2.91-1.36,2.29-0.85
					c-0.93,0.34-1.93,0.87-2.88,1.32c0.36,0,3.29-1.4,3.19-1.15c-0.51,0.23-2.72,0.94-2.84,1.23c-0.03,0.06,0.92-0.36,1.39-0.57
					c-2.89,1.38-4.39,2.43-1.72,1.36c-0.92,0.43-2.23,0.98-3.16,1.51l0,0c0.47-0.23,1.31-0.64,1.75-0.83l-1.63,0.81l0.3-0.06
					c0.43-0.19,0.84-0.38,1.25-0.57l-1.07,0.53l0.98-0.26c1.33-0.51,2.62-0.87,3.32-1.19c2.05-0.87,4.14-1.68,6.21-2.28
					c1.03-0.3,2.07-0.51,3.02-0.57c0.47-0.04,0.95-0.02,1.28,0.06c0.16,0.04,0.3,0.11,0.32,0.13c0.02,0.09,0.06-0.17,0.19-0.32
					c0.08-0.11,0.09-0.11,0.09-0.13c0.02-0.02,0.03-0.04,0.06-0.04l0.19,1.21C455.88,456.1,457.18,457.49,458.25,458.91z"/>
			</g>
		</g>
	</g>
	<g>
		<g>
			<g>
				<path class="st0" d="M486.47,538.34c0.06-0.02,0.11-0.09,0.16-0.04c0.11,0.19-0.09,0.43,0,0.62h0.11c0,0.17-0.11,0.36-0.14,0.55
					c0.05,0.32-0.02,0.7-0.05,1.09c0.03,0,0.08,0,0.08,0.04c0.02,0.17-0.06,0.38-0.16,0.6l-0.02,0.11c0.02,0.04,0.05,0.06,0.06,0.09
					c-0.03,0.11-0.08,0.19-0.11,0.28c-0.16,1.28-0.58,2.66-1.15,4.13c-0.06,0.36-0.19,0.68-0.32,0.98c-0.22,0.4-0.6,0.81-0.85,1.15
					c0.32,0.3-0.19,1.32,0.17,1.49c-0.19,0.21-0.47,0.55-0.41,0.66c0.17,0.36,0.27,0.87-0.09,1.68c-0.17,0.28-0.55,0.51-0.58,0.66
					c-0.05,0.23,0.4-0.09,0.35,0.15c1.53-1.68,2.86-3.53,4.09-5.83c0.14-0.45,0.95-1.96,1.49-3.94c0.16-0.47,0.27-0.98,0.33-1.53
					c0.08-0.53,0.17-1.04,0.16-1.55c0.06-1.02-0.11-1.89-0.16-2.4c-0.02-0.06-0.03-0.13-0.05-0.17c-0.24-1.09-0.82-2.26-1.41-2.74
					c-0.27-0.23-0.57-0.36-0.85-0.51c0.06,0.17,0.13,0.34,0.16,0.51c-0.21-0.28-0.43-0.49-0.55-0.51c-0.58-0.28-0.38,0.19-0.36,0.62
					c0.06,0.23-0.19,0.28-0.08,0.55c-0.13-0.13-0.19-0.19-0.32-0.32c-0.06,0.09,0.43,0.32,0.24,0.4c-0.09-0.15-0.27-0.23-0.4-0.32
					c-0.02,0.19,0.41,0.45,0.3,0.6c-0.08-0.02-0.24-0.53-0.36-0.36c-0.02,0.04,0.09,0.15,0.16,0.21c-0.41-0.28-0.68-0.21-0.44,0.26
					c-0.09-0.09-0.25-0.32-0.33-0.32l0,0c0.02,0.02,0.13,0.15,0.17,0.17l-0.17-0.13v0.11c0.03,0.04,0.08,0.11,0.13,0.15l-0.13-0.09
					c0.02,0.09,0.03,0.19,0.03,0.28c0.09,0.23,0.14,0.53,0.22,0.6C485.93,536.89,486.31,537.61,486.47,538.34z"/>
			</g>
		</g>
	</g>
	<g>
		<g>
			<g>
				<path class="st0" d="M156.94,177.59c0.08-0.02-0.74-1.17,0.62,0.49c4.2,5.26,7.38,9.79,11.49,15.19l0.36,0.3
					c3.13,4.26,6.32,8.77,9.59,13.38l4.52,6.34l2.2,3.15l2.1,3.34c2.81,4.45,5.63,8.87,8.42,13.3c-0.11-0.26-0.16-0.4,0.41,0.47
					c1.17,1.85,2.54,4.04,4.06,6.45c0.79,1.26,1.61,2.57,2.45,3.91c0.14,0.3,0.55,0.49,0.66,0.62l0.41,0.32l0.82,0.64
					c0.55,0.43,1.11,0.87,1.66,1.3c0.66,0.51,1.31,1.02,1.96,1.53c0.52,0.38,0.66,0.45,0.76,0.47c1.99,1.62,3.76,3.06,5.4,4.4
					c10.86,8.72,21.66,17.85,32.41,27.81c5.37,5,10.73,10.21,15.99,15.79c5.25,5.6,10.46,11.55,15.14,18.38
					c2.01,2.85,3.82,5.94,5.29,9.23l0.6,1.36c0.08,0.34,0.33,0.45,0.54,0.62l0.51,0.38l1.9,1.45c1.25,0.98,2.5,1.94,3.73,2.87
					c7.28,5.7,16.5,13.13,23.54,18.79c-0.88-1.3,16.39,12.3,13.15,9.13c4.69,3.79,11.72,9.51,12.14,9.7
					c1.23,0.55,5.06,3,17.52,13.11c2.43,2,5.47,4.64,8.11,7c1.31,1.19,2.53,2.3,3.52,3.28c0.49,0.49,0.93,0.91,1.31,1.34
					c0.21,0.26,0.32,0.3,0.57,0.66c0.22,0.32,0.4,0.62,0.52,0.87c0.38,0.94,0.36,0.85,0.17,0.23c0.05-0.09-0.62-1.32-0.95-1.64
					c-0.35-0.4-0.74-0.87-1.11-1.23c-1.52-1.6-3.03-3-1.67-1.85c-8.86-8.02-17.81-15.26-26.72-22.57
					c-8.93-7.28-17.84-14.43-26.78-21.57c-8.96-7.11-17.92-14.19-26.94-21.34l-1.3-1.02l-0.79-1.87c-0.74-1.57-1.5-3.11-2.34-4.55
					c-1.64-2.91-3.48-5.55-5.36-8.15c-3.76-5.15-7.81-9.85-11.96-14.4c-2.86-3.06-9.86-10.4-19.45-19.28
					c-9.58-8.89-21.69-19.34-34.35-29.47c-1.58-1.26-3.18-2.51-4.77-3.77l-1.2-0.94l-0.6-0.47c-0.02,0-0.03-0.02-0.03-0.04
					l-0.09-0.15l-1.79-2.83c-2.39-3.79-4.74-7.55-7.08-11.26c-2.34-3.7-4.63-7.36-6.86-10.91c-1.07-1.79-2.29-3.55-3.44-5.17
					c-1.15-1.64-2.29-3.26-3.41-4.83c-8.97-12.55-16.72-22.77-21.27-28.6l-1.66-2.11c-9.97-12.68-22.53-27.57-32.5-36.02
					c-2.24-1.87-4.52-3.77-6.81-5.66l-3.27-3.06c-1.09-1.02-2.09-2.19-3.14-3.28c0.93,1.09,1.82,2.15,2.69,3.13
					c0.88,0.94,1.74,1.81,2.53,2.62c-1.09-1.09-2.21-2.11-3.22-3.21c-1-1.11-1.96-2.19-2.84-3.17c-1.67-2.09-3.05-3.79-3.76-4.83
					c-3.95-5.62-4.53-7.17-4.22-6.21c0.17,0.45,0.63,1.45,1.3,2.57c0.63,1.15,1.37,2.51,2.12,3.64c1.06,1.64,0.82,1.43,0.73,1.43
					c-0.08-0.02-0.06,0.3,1.75,2.68c-2.65-3.38-3.87-5.26-6.13-9.13c-0.17-0.17,1.53,2.85,3.3,5.34c1.71,2.57,3.46,4.55,2.45,3.51
					c-2.53-3.3-5.23-7.23-7.27-11.36c0.16,0.38,0.7,1.43,1.42,2.81c0.74,1.34,1.71,2.96,2.69,4.43c1.96,2.98,4,5.43,3.73,5.23
					c-0.36-0.47-1.01-1.28-1.79-2.28c-0.73-1.06-1.56-2.32-2.39-3.51c-0.77-1.28-1.5-2.49-2.09-3.45c-0.54-1-0.93-1.7-1.07-1.85
					c-0.05-0.06,0.44,0.91,1.12,2.15c0.73,1.17,1.58,2.64,2.2,3.55c-3.82-5.68-5.97-10.94-6.81-12.94c-0.4-1.02-0.51-1.19-0.24-0.32
					c0.13,0.45,0.36,1.13,0.74,2.11c0.35,0.98,0.87,2.21,1.56,3.7c-2.01-4.11-4.27-10.34-4.87-15.79v0.04
					c0.24,2.79,1.37,6.96,2.15,9.15c-0.92-2.68-1.67-5.47-2.1-8.47c0.03,0.49,0.11,1.02,0.17,1.6c0.38,2.19,0.96,4.3,1.64,6.4
					c-0.6-1.79-1.12-3.64-1.52-5.57c0.24,1.47,0.62,3.11,1.11,4.85c1.98,6.55,4.88,12.13,6.75,14.96c3.67,5.85,8,10.85,12.62,15.17
					c4.79,4.23,9.31,7.96,13.7,12.47C140.7,157.55,148.93,167.47,156.94,177.59z"/>
			</g>
		</g>
	</g>
	<g>
		<g>
			<g>
				<path class="st0" d="M394.83,390.25c0-0.09-0.35-0.13,0.19-0.23c1.66-0.32,3.02-0.21,4.68-0.53l0.11-0.15
					c1.28-0.11,2.65-0.23,4.01-0.36c2.51-0.38,5.02-0.77,7.54-1.15c-0.06-0.04-0.11-0.09,0.14-0.13c1.04-0.19,2.48-0.34,3.98-0.53
					c0.25-0.04,0.51-0.09,0.76-0.13c0.27-0.11,0.21-0.13,0.25-0.19c0.62-0.15,1.2-0.26,1.72-0.34c1.74-0.36,3.52-0.53,5.29-0.45
					c0.9-0.02,1.77,0.19,2.65,0.3c0.85,0.28,1.77,0.38,2.59,0.83c1.74,0.62,3.27,1.91,4.68,3.45c0.58,0.91,1.34,1.68,1.77,2.83
					l0.76,1.6c0.19,0.57,0.35,1.19,0.52,1.79l0.4,1.28c0.13,0.43,0.16,0.89,0.25,1.36c0.14,0.89,0.28,1.77,0.43,2.6
					c-0.06,0.3-0.13,0.6-0.19,0.89c-0.74,3.17-1.69,7.17-2.42,10.23c0.44-0.34-1,7.26-0.32,5.89c-0.44,2.06-1.06,5.15-0.98,5.36
					c0.24,0.57,0.17,2.3-0.43,7.81c-0.11,1.06-0.28,2.4-0.36,3.51c-0.03,0.55-0.03,1.04-0.02,1.36c0.02,0.13,0.02,0.32,0.05,0.34
					c0.02,0.02,0.02,0.02,0.02,0.04c-0.02,0.02,0.03,0-0.03,0.04l-0.19,0.15c0.44-0.3,0.13-0.09,0.22-0.15l0,0l0,0l0,0l0,0v0.02
					l0.02,0.02l0.02,0.04l0.03,0.06c0.02,0.02,0.03,0.04,0.03,0.04c0.02,0,0-0.06-0.02-0.15l-0.02-0.09l0,0l0,0l0,0
					c0.06-0.04-0.57,0.38-0.3,0.19l0,0l0.03-0.02l0.05-0.04l0.11-0.09l0.13-0.09l0,0l0.02-0.02c0,0.02,0.02-0.11,0.02-0.21
					c0.02-0.43,0.08-1.06,0.13-0.57c0.03-2.49,0.54-5.53,1-8.32c0.49-2.85,1.04-5.7,1.63-8.53c0.58-2.83,1.2-5.66,1.83-8.49
					l0.96-4.23l1.12-4.72l-0.51-3.96c-0.05-0.6-0.19-1.19-0.35-1.77l-0.46-1.74c-0.66-2.32-1.72-4.51-3.05-6.34
					c-0.38-0.64-1.26-1.36-2.32-2.47c-0.58-0.43-1.25-0.87-1.96-1.38c-0.74-0.38-1.56-0.81-2.43-1.17
					c-3.54-1.3-7.98-1.51-12.39-0.43l-0.43,0.11l-0.09,0.02l-0.14,0.02l-0.81,0.11l-1.6,0.23c-1.06,0.15-2.12,0.3-3.16,0.45
					c-2.09,0.3-4.11,0.57-5.97,0.83c-3.73,0.51-6.86,0.94-8.69,1.17l-0.66,0.11c-3.97,0.53-8.77,1.23-12.1,1.89
					c-1.49,0.34-3.07,0.68-4.63,1.04c0.7-0.02,1.37-0.02,1.99-0.04c-1.58,0.21-3.18,0.43-3.78,0.6c-3.35,0.68-1.42,0.66-0.11,0.81
					c0.95,0.02-0.3,0.4,1.17,0.36c-1.06,0.15-1.58,0.21-2.64,0.34c-0.11,0.15,3.24-0.53,2.53-0.19c-1.03,0.09-2.15,0.34-3.21,0.47
					c0.38,0.13,3.67-0.45,3.51-0.23c-0.57,0.13-2.99,0.17-3.18,0.43c-0.03,0.04,1.03-0.09,1.55-0.15c-3.24,0.53-5.02,1-2.04,0.83
					c-1.03,0.13-2.5,0.23-3.59,0.43h0.02c0.54-0.06,1.5-0.17,1.99-0.21l-1.85,0.26l0.33,0.04c0.49-0.04,0.95-0.09,1.41-0.15
					l-1.23,0.17c0.32,0.04,0.68,0.06,1.06,0.06c1.47-0.06,2.89-0.04,3.68-0.13C382.04,391.91,388.46,391.08,394.83,390.25z"/>
			</g>
		</g>
	</g>
	<g>
		<g>
			<g>
				<path class="st0" d="M430.71,422.44c-0.06,0.04-0.05,0.19-0.16,0.04c-0.32-0.51-0.36-1.11-0.7-1.62l-0.11,0.04
					c-0.19-0.4-0.43-0.91-0.63-1.36c-0.46-0.79-1.03-1.45-1.58-2.13c-0.02,0.06-0.03,0.11-0.09,0.04c-0.24-0.28-0.51-0.7-0.85-1.06
					l-0.16-0.15c-0.05-0.02-0.08,0-0.11,0.02l-0.41-0.47c-0.87-0.85-1.88-1.38-2.84-2.06c-1.03-0.51-2.05-1.09-3.14-1.45
					c-0.49-0.09-0.96-0.19-1.41-0.34c-0.65-0.3-1.45-0.64-2.1-0.85c0,0.51-1.56,0.26-1.33,0.83c-0.41-0.17-1.04-0.3-1.09-0.17
					c-0.14,0.38-0.54,0.81-1.64,0.87c-0.43-0.02-1.07-0.3-1.23-0.26c-0.25,0.09,0.54,0.38,0.28,0.49c3.16,0.57,6.16,1.32,9.01,3.09
					c0.51,0.19,2.43,1.3,4.09,3.15c1.69,1.79,3.1,4.17,3.51,5.28l0.09,0.19c0.54,1.13,1.07,2.57,1.53,3.55
					c0.21,0.4,0.44,0.89,0.68,1.36c0-0.23,0-0.49,0-0.72c0.14,0.51,0.24,1.06,0.35,1.23c0.38,1.09,0.44,0.38,0.57-0.15
					c0.03-0.36,0.28,0.02,0.28-0.55c0.08,0.38,0.13,0.57,0.19,0.96c0.13,0-0.3-1.15-0.08-0.94c0.05,0.38,0.19,0.77,0.25,1.15
					c0.13-0.19-0.22-1.34-0.08-1.34c0.08,0.19,0.05,1.15,0.22,1.17c0.03,0-0.03-0.38-0.06-0.57c0.28,1.17,0.54,1.83,0.54,0.64
					c0.06,0.4,0.08,0.96,0.14,1.45l0,0c-0.02-0.26-0.03-0.62-0.06-0.83c0.03,0.26,0.06,0.47,0.09,0.77l0.06-0.17
					c0-0.21-0.02-0.38-0.03-0.57l0.06,0.49c0.03-0.13,0.08-0.3,0.09-0.47c0.02-0.62,0.08-1.21,0.02-1.53
					C432.45,427,431.7,424.61,430.71,422.44z"/>
			</g>
		</g>
	</g>
	<g>
		<g>
			<g>
				<path class="st0" d="M168.73,274.04c0-0.09-0.08-0.15,0.02-0.21c0.35-0.13,0.63,0.21,0.98,0.11l0.03-0.15
					c0.27,0.02,0.55,0.28,0.82,0.38c0.54,0.04,1.06,0.38,1.6,0.64c0-0.06,0.02-0.11,0.06-0.09c0.24,0.06,0.52,0.32,0.81,0.62
					l0.14,0.11c0.05,0,0.08-0.02,0.09-0.04l0.36,0.36c1.6,1.09,3.13,2.74,4.69,4.7c0.38,0.34,0.71,0.79,1.01,1.23
					c0.41,0.68,0.85,1.62,1.22,2.32c0.27-0.4,1.28,1.19,1.41,0.6c0.22,0.49,0.55,1.23,0.65,1.21c0.32-0.11,0.79,0.02,1.55,1.21
					c0.27,0.49,0.52,1.38,0.66,1.51c0.22,0.21-0.11-0.83,0.09-0.6c-1.66-3.96-3.48-7.62-5.88-11.08c-0.25-0.23-0.68-1-1.47-1.81
					c-0.74-0.83-1.63-1.94-2.75-2.79l-0.81-0.68c-0.3-0.17-0.6-0.34-0.9-0.51c-0.58-0.34-1.15-0.68-1.75-0.81
					c-1.15-0.45-2.2-0.32-2.78-0.34c-0.08,0-0.14,0.02-0.21,0.04c-1.3,0.21-2.78,1.06-3.56,2.04c-0.36,0.45-0.65,0.98-0.95,1.47
					c0.21-0.13,0.4-0.23,0.57-0.32c-0.38,0.36-0.71,0.81-0.79,1.04c-0.57,1.11-0.05,0.7,0.38,0.6c0.25-0.13,0.13,0.34,0.49,0.09
					c-0.21,0.26-0.32,0.38-0.51,0.66c0.05,0.11,0.57-0.87,0.55-0.51c-0.22,0.21-0.4,0.53-0.57,0.83c0.16,0,0.7-0.87,0.76-0.68
					c-0.08,0.17-0.68,0.53-0.57,0.77c0.02,0.04,0.19-0.23,0.3-0.34c-0.54,0.87-0.65,1.45-0.05,0.87c-0.16,0.23-0.46,0.57-0.55,0.83
					l0,0c0.06-0.11,0.24-0.36,0.3-0.45l-0.25,0.45l0.09-0.02c0.06-0.09,0.16-0.19,0.22-0.32l-0.17,0.3
					c0.09-0.04,0.17-0.09,0.27-0.13c0.3-0.26,0.63-0.45,0.76-0.62C166.19,275.17,167.45,274.23,168.73,274.04z"/>
			</g>
		</g>
	</g>
	<g>
		<g>
			<g>
				<path class="st0" d="M180.38,236.34c0.03-0.09-0.05-0.21,0.13-0.15c0.51,0.21,0.79,0.72,1.3,0.94l0.08-0.11
					c0.33,0.28,0.73,0.6,1.09,0.87c0.73,0.43,1.47,0.81,2.21,1.19c0-0.06,0-0.11,0.08-0.09c0.32,0.13,0.71,0.43,1.15,0.68l0.21,0.09
					c0.06,0,0.08-0.04,0.09-0.06c0.17,0.11,0.35,0.21,0.52,0.32c2.23,0.91,4.52,1.7,7.03,2.4c0.55,0.06,1.09,0.17,1.6,0.28
					c0.76,0.21,1.69,0.6,2.43,0.79c-0.05-0.49,1.77-0.36,1.45-0.94c0.47,0.13,1.2,0.15,1.25,0.04c0.11-0.43,0.54-0.81,1.58-1.23
					c0.19-0.09,0.44-0.13,0.65-0.17c0.17-0.09,0.35-0.13,0.4-0.19c0.14-0.21-0.51-0.06-0.35-0.28c-1.15,0.49-3,0.28-4.71-0.13
					c-1.74-0.4-3.51-1.06-5.28-1.85c-0.63-0.15-3-1.17-5.44-2.49c-2.43-1.28-4.95-2.83-5.94-3.51l-0.19-0.11
					c-1.11-0.72-2.46-1.55-3.44-2c-0.43-0.15-0.93-0.34-1.42-0.51c0.16,0.19,0.32,0.4,0.47,0.57c-0.44-0.3-0.87-0.62-1.07-0.66
					c-1.01-0.45-0.55,0.13-0.32,0.68c0.21,0.3-0.22,0.28,0.14,0.68c-0.28-0.21-0.44-0.32-0.73-0.51c-0.08,0.11,0.93,0.55,0.65,0.62
					c-0.27-0.23-0.62-0.38-0.9-0.6c0.03,0.23,1,0.77,0.88,0.89c-0.17-0.06-0.74-0.79-0.88-0.62c-0.03,0.04,0.27,0.23,0.41,0.34
					c-0.93-0.55-1.5-0.72-0.76,0.09c-0.28-0.21-0.66-0.57-0.98-0.77l0,0c0.13,0.11,0.43,0.36,0.54,0.45l-0.52-0.38l0.06,0.15
					c0.13,0.13,0.24,0.23,0.38,0.32l-0.35-0.26c0.06,0.13,0.13,0.26,0.22,0.4c0.36,0.43,0.68,0.89,0.9,1.04
					C176.77,233.93,178.56,235.19,180.38,236.34z"/>
			</g>
		</g>
	</g>
	<g>
		<g>
			<g>
				<path class="st0" d="M462.86,574.23c0.03,0.06,0.25-0.04,0,0.28c-0.79,1-1.6,1.53-2.4,2.51v0.17c-0.66,0.64-1.41,1.36-2.12,2.06
					c-1.26,1.4-2.51,2.79-3.79,4.19c0.06,0,0.09,0.02-0.03,0.17c-0.52,0.6-1.28,1.34-2.05,2.11l-0.33,0.36
					c-0.08,0.11-0.08,0.17-0.08,0.21c-0.35,0.34-0.66,0.66-0.96,0.94c-3.68,4.11-7.47,8.15-11.76,12.23
					c-0.9,0.89-1.77,1.81-2.69,2.6c-1.34,1.15-3.13,2.4-4.52,3.32c0.19,0.15-0.54,0.85-1.22,1.51c-0.7,0.62-1.33,1.21-0.9,1.23
					c-0.93,0.62-2.43,1.3-2.46,1.49c-0.06,0.26-0.25,0.6-0.77,1.02c-0.51,0.45-1.36,1-2.8,1.53c-0.57,0.15-1.33,0.26-1.99,0.28
					c-0.68-0.04-1.26-0.09-1.49-0.06c-0.7,0.11,1.6,0.36,0.92,0.47c4.69-0.09,8.37-2.64,11.96-5.04c3.57-2.51,6.94-5.43,10.3-8.47
					c1.12-1.11,5.48-5.28,9.89-9.89c4.42-4.57,8.93-9.57,10.78-11.6l0.33-0.38c2.01-2.21,4.39-5,5.96-7.09
					c0.66-0.94,1.39-1.98,2.1-3c-0.38,0.34-0.74,0.66-1.09,0.98c0.79-0.91,1.56-1.83,1.82-2.26c1.55-2.15,0.49-1.19-0.32-0.68
					c-0.52,0.43-0.02-0.47-0.81,0.28c0.52-0.62,0.77-0.91,1.3-1.53c-0.02-0.17-1.55,1.96-1.31,1.36c0.52-0.55,1.04-1.28,1.55-1.89
					c-0.27,0.09-1.82,2.09-1.83,1.85c0.25-0.36,1.56-1.55,1.55-1.83c0-0.06-0.52,0.55-0.77,0.85c1.55-1.96,2.29-3.17,0.74-1.62
					c0.51-0.6,1.26-1.38,1.75-2.04l0,0c-0.25,0.3-0.74,0.85-0.98,1.13l0.9-1.09l-0.21,0.13c-0.24,0.26-0.47,0.51-0.71,0.79l0.6-0.72
					c-0.19,0.13-0.4,0.28-0.62,0.47c-0.77,0.74-1.56,1.4-1.96,1.87C469.26,567.04,466.06,570.65,462.86,574.23z"/>
			</g>
		</g>
	</g>
	<g>
		<g>
			<g>
				<path class="st0" d="M409.77,611.89c0.05,0.06,0.3-0.26,0.02,0.34c-0.93,1.81-1.88,3.04-2.81,4.87c0,0.06,0.02,0.15,0.02,0.21
					c-0.79,1.32-1.63,2.7-2.46,4.11c-1.47,2.68-2.92,5.36-4.35,8.02c0.06-0.04,0.11-0.04-0.02,0.23c-0.58,1.13-1.45,2.62-2.34,4.19
					c-0.13,0.23-0.25,0.47-0.36,0.7c-0.08,0.19-0.08,0.28-0.08,0.32c-0.4,0.7-0.76,1.34-1.09,1.91c-4.12,7.91-8.3,15.98-12.81,24.7
					c-0.92,1.87-1.85,3.77-2.77,5.53c-1.39,2.62-3.27,5.83-4.66,8.34c0.51-0.09-2.73,6.17-1.77,5.26c-0.93,1.66-2.34,4.17-2.32,4.38
					c0.03,0.64-0.4,2.21-2.7,6.81c-0.93,1.77-2.51,4.34-2.8,5c-0.46,1.04,1.42-2.09,0.96-1.04c7.24-12.83,14.03-25.4,21.24-38.4
					c2.32-4.55,18.8-34.51,23.1-42.13c0.13-0.23,0.25-0.47,0.38-0.7c2.34-4.17,5.12-9.28,6.97-12.94c0.84-1.7,1.66-3.43,2.5-5.15
					c-0.47,0.72-0.92,1.38-1.3,1.94c0.93-1.66,1.86-3.34,2.16-4.04c1.85-3.7,0.58-1.81-0.38-0.64c-0.63,0.89-0.03-0.57-0.98,0.89
					c0.62-1.11,0.93-1.66,1.55-2.79c-0.02-0.21-1.86,3.49-1.56,2.57c0.63-1.04,1.25-2.3,1.86-3.4c-0.33,0.28-2.18,3.83-2.2,3.53
					c0.3-0.64,1.88-2.98,1.86-3.34c0-0.06-0.63,1.04-0.93,1.6c1.86-3.47,2.78-5.51,0.88-2.51c0.6-1.09,1.52-2.57,2.13-3.74l0,0
					c-0.32,0.57-0.9,1.53-1.2,2.06c0.36-0.66,0.73-1.3,1.09-1.96c-0.08,0.09-0.16,0.17-0.25,0.28c-0.28,0.47-0.57,0.96-0.85,1.45
					c0.24-0.43,0.49-0.87,0.73-1.3c-0.22,0.28-0.47,0.62-0.74,0.98c-0.95,1.45-1.9,2.81-2.35,3.64
					C417.33,598.4,413.52,605.14,409.77,611.89z"/>
			</g>
		</g>
	</g>
	<g>
		<g>
			<g>
				<path class="st0" d="M357.24,565.68c0.03,0.06,0.33-0.21-0.03,0.34c-1.19,1.74-2.31,2.89-3.49,4.64l-0.02,0.21
					c-0.96,1.26-2.01,2.57-3.03,3.91c-1.82,2.57-3.63,5.15-5.45,7.72c0.08-0.02,0.13-0.02-0.05,0.23c-0.74,1.09-1.82,2.51-2.91,4.02
					l-0.46,0.68c-0.11,0.19-0.11,0.28-0.11,0.32c-0.49,0.68-0.93,1.28-1.34,1.85c-5.17,7.66-10.37,15.51-15.94,24.08
					c-1.15,1.85-2.28,3.72-3.41,5.47c-1.74,2.57-3.92,5.79-5.58,8.28c0.52-0.06-3.33,6.23-2.26,5.34c-1.09,1.68-2.7,4.23-2.7,4.45
					c0.02,0.66-0.6,2.26-3.07,7.04c-0.49,0.91-1.11,2.09-1.58,3.09c-0.21,0.47-0.47,1-0.55,1.3c-0.08,0.28-0.14,0.49-0.19,0.66
					c-0.02,0.32,0,0.3,0.06,0.11c0.06-0.19,0.17-0.34,0.25-0.55c0.06-0.17,0.21-0.45,0.3-0.6c0.09-0.13,0.13-0.15,0.03,0.13
					c1.44-3.3,3.54-6.68,5.5-9.89c1.99-3.26,4.06-6.43,6.13-9.6c4.16-6.34,8.41-12.6,12.8-18.94c2.81-4.53,23.26-33.34,28.68-40.53
					l0.47-0.66c2.91-3.98,6.43-8.83,8.8-12.34c1.04-1.6,2.13-3.28,3.22-4.94c-0.55,0.64-1.09,1.26-1.58,1.81
					c1.17-1.57,2.35-3.17,2.75-3.83c2.39-3.53,0.84-1.79-0.3-0.72c-0.76,0.83,0.05-0.6-1.11,0.77c0.77-1.04,1.17-1.57,1.96-2.64
					c0.02-0.21-2.37,3.3-1.94,2.4c0.77-0.98,1.58-2.17,2.35-3.23c-0.36,0.23-2.73,3.62-2.72,3.32c0.4-0.6,2.32-2.79,2.35-3.15
					c0-0.06-0.77,0.98-1.17,1.51c2.35-3.3,3.57-5.26,1.25-2.47c0.76-1.02,1.9-2.4,2.69-3.53h-0.02c-0.41,0.53-1.12,1.47-1.5,1.94
					l1.37-1.85l-0.28,0.26c-0.36,0.47-0.71,0.91-1.07,1.36l0.92-1.23c-0.27,0.26-0.57,0.55-0.88,0.89c-1.15,1.36-2.31,2.6-2.89,3.4
					C366.68,552.85,361.91,559.23,357.24,565.68z"/>
			</g>
		</g>
	</g>
	<g>
		<g>
			<g>
				<path class="st0" d="M333.76,669.23c-0.06,0.04,0.92,0.89-0.68-0.28c-5.09-3.53-9.1-6.57-14.35-9.7l-0.41-0.11
					c-4.03-2.49-8.26-4.96-12.66-7.28c-2.05-0.98-4.08-2.02-6.15-2.91c-1.03-0.47-2.05-0.94-3.11-1.34l-2.35-0.94
					c-0.28-0.26-0.41,0.26-0.62,0.45l-0.55,0.74l-0.76,1.04c-3.02,4.11-6.04,8.19-9.05,12.28c0.19-0.17,0.28-0.23-0.32,0.57
					c-2.53,3.38-6,8.06-9.61,12.91c-0.52,0.72-1.06,1.45-1.58,2.15c-0.4,0.57-0.47,0.74-0.52,0.85c-1.63,2.19-3.1,4.13-4.44,5.94
					c-4,5.47-8.01,10.96-12.47,17.04l2.88,1.6l2.24,1.28c1.12,0.66,2.24,1.34,3.38,2c2.26,1.36,4.5,2.79,6.76,4.26
					c2.26,1.45,4.5,3,6.78,4.53c2.24,1.6,4.5,3.19,6.79,4.81c9.07,6.6,18.17,13.96,27.18,22.32c2.45,2.11,4.76,4.49,7.11,6.72
					c2.37,2.21,4.6,4.62,6.79,6.96c3.3,3.4,6.79,7.68,10.3,11.87c1.75,2.09,3.37,4.4,4.98,6.51c1.6,2.15,3.19,4.15,4.5,6.21
					c-0.14-0.38,0.58,0.53,1.72,2.09c0.58,0.81,1.25,1.72,1.96,2.7c0.36,0.49,0.73,1.02,1.09,1.53l0.58,0.83
					c0.21,0.23,0.36,0.72,0.63,0.32c3.76-3,7.08-5.77,5.29-4.68c4.71-3.55,11.71-9.09,12.01-9.51c0.46-0.62,1.53-1.72,4.01-4
					c2.46-2.28,6.35-5.64,12.21-11.11c2.29-2.13,5.2-4.87,7.52-7.47c1.15-1.3,2.16-2.57,2.81-3.66c0.32-0.53,0.52-1.02,0.57-1.26
					c0.05-0.15-0.06-0.11,0.27-0.11c0.24-0.04,0.16-0.04,0.17-0.04c-0.71,0.64-0.21,0.17-0.36,0.32l0,0l0,0l0,0l-0.02-0.02
					l-0.02-0.04l-0.03-0.06l-0.06-0.13c-0.05-0.09-0.08-0.15-0.11-0.19c-0.06-0.11-0.09-0.15-0.09-0.17
					c-0.02-0.02,0.05,0.15,0.17,0.43c0.03,0.06,0.06,0.15,0.11,0.23v0.02l0,0l0,0c-0.09,0.09,0.82-0.72,0.43-0.38l0,0l0,0l0,0l0,0
					c0.03-0.02-0.14,0.06-0.21,0.04c0,0-0.46-0.02-0.35-0.02c-0.02,0.04-0.16,0.43-0.36,0.81c-0.92,1.57-2.35,3.11-1.3,1.7
					c-1.72,2.28-3.79,4.38-5.86,6.4c-2.07,2.02-4.2,3.96-6.35,5.85c-4.3,3.79-8.69,7.4-13.1,10.96c-4.41,3.53-8.85,7-13.3,10.4
					l-3.35,2.53c-0.79,0.6-0.54,0.4-0.58,0.43l0.02,0.02c-0.02-0.02,0.08,0.11-0.03-0.04l-0.33-0.49l-5.21-7.77
					c-7.24-10-15.01-19.21-23.23-27.81c-8.28-8.49-16.95-16.36-25.98-23.74c-2.32-1.87-7.16-5.72-13.76-10.49
					c-3.3-2.4-7.05-5-11.16-7.72c-2.05-1.34-4.19-2.74-6.42-4.11c-1.11-0.68-2.24-1.36-3.38-2.06c-0.51-0.3-1.01-0.6-1.52-0.89
					c11.36-15.34,24.32-32.81,35.74-48.21c0.02-0.06,0.06-0.02,0.09-0.02l0.36,0.15l1.49,0.62c0.98,0.45,1.96,0.87,2.92,1.32
					c1.91,0.89,3.79,1.81,5.59,2.72c1.8,0.96,3.56,1.89,5.25,2.79c1.67,0.96,3.29,1.89,4.84,2.79c3.08,1.81,5.85,3.64,8.33,5.19
					c2.42,1.68,4.52,3.13,6.23,4.3c0.66,0.45,1.33,0.89,1.98,1.4c5.88,4.38,12.31,9.45,18.22,14.91c2.95,2.74,5.91,5.34,8.5,8.17
					c2.62,2.77,5.23,5.17,7.33,7.74c1.99,2.26,4,4.55,6.02,6.83c1.94,2.38,3.82,4.91,5.74,7.36c-1.67-2.38-3.24-4.62-4.61-6.55
					c1.9,2.57,3.81,5.13,5.42,7.3c0.81,1.09,1.55,2.04,2.16,2.91c0.58,0.87,1.06,1.6,1.41,2.13c7.6,11.55,3.51,4.79,0.81,0.04
					c-2.02-3.32,1,0.83-2.29-4.23c2.45,3.55,3.56,5.49,5.94,9.15c0.35,0.32-7.3-11.3-5.56-8.85c2.29,3.55,4.84,7.49,7.21,11.15
					c-0.74-1.36-8.06-12.89-7.74-12.26c0.74,0.85,2.35,3.51,3.89,5.96c1.53,2.45,2.97,4.72,3.27,5.02c0.11,0.11-2.24-3.57-3.41-5.43
					c1.83,2.81,3.46,5.32,4.77,7.34c1.19,2.09,2.1,3.66,2.64,4.6c1.03,1.77,0.54,0.55-2.45-5.02c2.13,3.79,4.99,9.34,7.22,13.38
					c0,0-0.02-0.02-0.02-0.04c-1.09-2.04-2.97-5.55-3.98-7.45c1.25,2.3,2.5,4.62,3.74,6.94c-0.19-0.4-0.4-0.83-0.6-1.26
					c-0.93-1.74-1.86-3.49-2.81-5.3c0.82,1.53,1.66,3.06,2.5,4.62c-0.6-1.23-1.28-2.6-1.99-4.04c-1.47-2.74-2.78-5.6-4.16-7.87
					s-2.58-4.23-3.48-5.62c-3.44-5.81-7.54-10.81-11.38-16.15c-4.16-4.87-8.18-9.96-12.62-14.36
					C352.67,684.38,343.41,676.23,333.76,669.23z"/>
			</g>
		</g>
	</g>
	<g>
		<g>
			<g>
				<path class="st0" d="M208.66,760.25c0.02,0.09,0.66-0.62-0.25,0.62c-2.91,3.83-5.42,6.64-8.33,10.47
					c-0.05,0.13-0.09,0.26-0.14,0.36c-2.31,2.87-4.72,5.85-7.19,8.89c-4.46,5.72-8.9,11.43-13.3,17.11
					c0.14-0.11,0.22-0.15-0.21,0.43c-1.82,2.38-4.39,5.6-7.05,8.96c-0.38,0.51-0.77,1-1.15,1.51c-0.28,0.4-0.33,0.53-0.36,0.62
					c-1.2,1.53-2.26,2.87-3.25,4.11c-12.85,16.77-25.85,33.81-39.98,52.28c-2.95,3.96-5.91,7.89-8.79,11.66
					c-4.28,5.53-9.83,12.49-14.05,17.85c0.9-0.47-9.23,12.79-6.94,10.53c-2.81,3.57-7.03,8.94-7.17,9.3
					c-0.44,1.13-2.35,4.23-9.67,13.91c-2.88,3.77-7.44,9.34-8.44,10.72c-1.55,2.17,3.92-4.6,2.37-2.45
					c21.73-27.51,42.47-54.25,64.28-82.08c7.32-9.64,57.31-73.57,70.2-89.91c0.4-0.49,0.77-1,1.17-1.49
					c7.03-8.94,15.52-19.83,21.36-27.53c2.67-3.55,5.36-7.19,8.04-10.81c-1.33,1.57-2.54,3.04-3.62,4.3
					c2.81-3.57,5.63-7.15,6.65-8.57c5.86-7.77,2.35-3.64-0.11-0.94c-1.72,2,0.4-1.02-2.28,2.19c1.86-2.38,2.81-3.57,4.68-5.96
					c0.14-0.38-5.72,7.4-4.53,5.57c1.82-2.26,3.79-4.89,5.67-7.26c-0.74,0.68-6.51,8.21-6.32,7.7c0.98-1.32,5.37-6.51,5.63-7.15
					c0.05-0.13-1.82,2.26-2.77,3.45c5.72-7.38,8.77-11.6,3.4-5.09c1.83-2.32,4.46-5.53,6.37-8.02l-0.02,0.02
					c-0.96,1.21-2.65,3.3-3.54,4.45c1.09-1.38,2.2-2.79,3.29-4.17c-0.19,0.19-0.4,0.43-0.62,0.66c-0.84,1.02-1.66,2.04-2.51,3.15
					c0.73-0.91,1.45-1.85,2.18-2.77c-0.58,0.64-1.25,1.38-1.98,2.21c-2.67,3.19-5.26,6.21-6.67,7.98
					C231.37,731.38,219.97,745.82,208.66,760.25z"/>
			</g>
		</g>
	</g>
	<g>
		<g>
			<g>
				<path class="st0" d="M319.85,818.57c0.03,0.09,0.46-0.32-0.13,0.43c-1.88,2.34-3.57,3.96-5.45,6.3l-0.06,0.28
					c-1.5,1.72-3.1,3.53-4.69,5.36c-2.89,3.51-5.74,7.02-8.56,10.55c0.09-0.06,0.16-0.06-0.11,0.3c-1.2,1.47-2.83,3.47-4.52,5.55
					c-0.25,0.32-0.49,0.64-0.73,0.94c-0.17,0.26-0.21,0.36-0.22,0.43c-0.76,0.94-1.45,1.79-2.09,2.55
					c-8.12,10.55-16.23,21.47-24.71,33.68c-1.79,2.68-3.56,5.34-5.2,7.81c-2.53,3.72-5.78,8.45-8.17,12.19
					c0.6-0.3-4.91,9.13-3.48,7.6c-1.53,2.53-3.7,6.47-3.71,6.77c-0.03,0.43-0.27,1.21-0.88,2.81c-0.63,1.6-1.67,4-3.07,7.77
					c-0.54,1.47-1.22,3.34-1.61,5c-0.24,0.83-0.33,1.6-0.47,2.21c-0.06,0.62-0.11,1.09-0.11,1.34c0,0.94,0.11-0.19,0.27-1.04
					c0.17-0.94,0.43-1.87,0.33-1.04c0.51-2.72,1.52-5.45,2.62-8.06c1.12-2.64,2.39-5.17,3.7-7.68c2.64-5,5.55-9.77,8.52-14.47
					c5.97-9.36,12.36-18.36,19.02-27.34c2.2-3.15,11.03-14.96,20.6-26.89c9.54-11.98,19.75-24.15,23.97-29.06l0.76-0.89
					c4.58-5.38,10.16-11.91,13.98-16.55c1.71-2.13,3.49-4.34,5.26-6.53c-0.87,0.87-1.69,1.7-2.43,2.47
					c1.86-2.11,3.73-4.21,4.39-5.11c3.87-4.66,1.5-2.3-0.19-0.83c-1.17,1.13,0.21-0.72-1.58,1.11c1.25-1.4,1.86-2.11,3.11-3.51
					c0.08-0.28-3.79,4.38-3.03,3.23c1.22-1.32,2.51-2.89,3.76-4.3c-0.52,0.34-4.33,4.81-4.23,4.47c0.65-0.79,3.6-3.77,3.73-4.21
					c0.03-0.09-1.22,1.32-1.85,2.02c3.79-4.38,5.8-6.91,2.18-3.17c1.22-1.34,2.95-3.26,4.27-4.68h-0.02
					c-0.65,0.7-1.79,1.94-2.37,2.57l2.2-2.45c-0.14,0.11-0.28,0.23-0.43,0.36c-0.57,0.62-1.12,1.21-1.69,1.83l1.45-1.62
					c-0.43,0.38-0.88,0.81-1.34,1.21c-1.8,1.83-3.56,3.53-4.49,4.57C334.77,801.25,327.25,809.86,319.85,818.57z"/>
			</g>
		</g>
	</g>
	<g>
		<g>
			<g>
				<path class="st0" d="M446.02,337.42c-0.06,0-0.13,0.3-0.16-0.19c-0.06-1.51,0.16-2.72,0.09-4.21l-0.11-0.11
					c0.02-0.32,0.03-0.64,0.03-0.98h-2.99c-0.03,0.85-0.08,1.77-0.11,2.64c0.03,2.28,0.05,4.53,0.08,6.81
					c0.03-0.06,0.08-0.09,0.08,0.15c0.03,0.94-0.02,2.23-0.02,3.6l0.02,0.6c0.02,0.15,0.06,0.19,0.08,0.21
					c-0.02,0.6-0.02,1.15-0.03,1.66c0.21,6.49,0.43,13.23,0.66,20.43c-0.22,1.32-0.52,2.96-0.82,4.36
					c-0.47,2.11-1.19,4.74-1.69,6.79c0.43-0.17-0.6,4.89,0,4.04c-0.33,1.36-0.82,3.4-0.74,3.55c0.22,0.45,0.3,1.64-0.3,5.32
					c-0.14,0.72-0.33,1.6-0.51,2.36c-0.08,0.38-0.14,0.72-0.19,0.98c-0.02,0.17-0.03,0.26-0.03,0.32c0.03,0.21,0.05,0.19,0.08,0.06
					l0.02-0.06l0,0l0,0l0,0h-0.79l0,0h0.09h0.19l0.4-0.02c0.19,0,0.14,0,0.14-0.02l0.02-0.02l0.02-0.02l0.06-0.13
					c0.09-0.3,0.25-0.79,0.22-0.38c1.03-5.06,2.32-10.34,3.51-15.47c0.62-2.57,1.23-5.17,1.85-7.77l0.47-1.96l0.27-1.13
					c0.11-0.32,0.09-0.66,0.09-1v-0.57c0-1.38,0-2.77,0-4.15c-0.14-3.15-0.21-21.43-0.19-31.19h-2.83c-0.02,2-0.02,3.62-0.03,4.72
					v0.6c-0.02,3.57,0,7.94,0.14,10.96c0.09,1.32,0.19,2.79,0.28,4.21c0.06-0.62,0.13-1.21,0.17-1.79c0,1.43-0.02,2.87,0.05,3.4
					c0.16,3.04,0.33,1.32,0.58,0.15c0.11-0.85,0.27,0.3,0.38-1.02c0,0.96-0.02,1.43-0.02,2.38c0.11,0.11-0.05-2.94,0.11-2.28
					c-0.03,0.91,0.02,1.94,0.02,2.89c0.14-0.34,0.05-3.3,0.19-3.15c0.03,0.51-0.19,2.68-0.02,2.87c0.03,0.04,0.05-0.91,0.05-1.4
					c0.05,2.94,0.22,4.55,0.41,1.87c0,0.94-0.08,2.26-0.05,3.23l0,0c0.02-0.47,0.03-1.36,0.05-1.79l-0.02,1.68l0.08-0.3
					c0.02-0.43,0.03-0.83,0.05-1.28V359c0.06-0.28,0.11-0.6,0.16-0.96c0.11-1.32,0.27-2.6,0.28-3.3
					C445.94,349,446,343.19,446.02,337.42z"/>
			</g>
		</g>
	</g>
	<g>
		<g>
			<g>
				<path class="st0" d="M531.57,425.78c-0.06,0.02,0.05,0.47-0.24-0.13c-0.84-1.89-1.28-3.6-2.12-5.51l-0.14-0.06
					c-0.57-1.51-1.17-3.13-1.77-4.74c-1.22-2.91-2.45-5.79-3.67-8.7c0,0.11-0.02,0.15-0.14-0.13c-0.52-1.19-1.19-2.87-1.88-4.62
					l-0.33-0.74c-0.09-0.19-0.16-0.21-0.19-0.23c-0.32-0.79-0.6-1.49-0.85-2.13c-3.71-8.28-7.52-16.79-11.61-25.94
					c-0.21-0.45-0.38-0.64-0.32-1c0.03-0.57,0.06-1.13,0.09-1.7c-0.03-1.15,0-2.3-0.08-3.38c-0.09-3.28-0.44-7.38-0.82-10.51
					c-0.27,0.53-1.49-6.96-1.64-5.36c-0.28-2.06-0.79-5.13-0.92-5.26c-0.38-0.38-0.96-1.85-2.15-7.17
					c-0.43-2.09-0.95-5.34-1.17-6.04c-0.33-1.13,0.35,2.77,0.02,1.66c1.49,7.77,2.84,15.49,3.79,23.21
					c0.46,3.85,0.84,7.77,0.81,11.51c-0.02,0.47,0,0.94-0.03,1.38l-0.14,1.6c-0.02,0.51-0.21,1.04,0.06,1.4l0.46,1.09l0.55,1.32
					c0.74,1.77,1.49,3.53,2.23,5.3c2.18,4.72,15.85,37.34,19.13,45.85l0.32,0.77c0.92,2.3,1.91,4.85,2.89,7.32
					c0.25,0.62,0.47,1.21,0.7,1.81c0.19,0.49,0.38,1,0.55,1.47c0.02,0.11,0.19,0.11,0.14,0.32c0,0.17-0.02,0.43-0.06,0.68
					c-0.06,0.51-0.16,1.06-0.25,1.6c-0.32,1.98-0.65,4.04-0.92,6.11c0.22-0.91,0.46-1.77,0.66-2.51c-0.41,2.04-0.77,4.11-0.84,4.91
					c-0.54,4.45,0.03,2,0.54,0.38c0.3-1.17,0.19,0.51,0.62-1.34c-0.22,1.36-0.35,2.04-0.57,3.4c0.06,0.17,0.63-4.21,0.65-3.21
					c-0.27,1.3-0.44,2.79-0.65,4.15c0.19-0.45,0.81-4.7,0.92-4.45c-0.11,0.74-0.82,3.77-0.68,4.09c0.03,0.06,0.24-1.3,0.35-1.98
					c-0.62,4.21-0.73,6.57-0.02,2.79c-0.21,1.32-0.52,3.19-0.68,4.62l0,0c0.09-0.68,0.28-1.94,0.38-2.55l-0.32,2.4l0.13-0.4
					c0.09-0.62,0.19-1.21,0.27-1.81l-0.21,1.6c0.11-0.38,0.22-0.83,0.33-1.32c0.36-1.87,0.79-3.62,0.96-4.62
					c0.35-2.04,0.73-4.04,1.14-6.06l0.65-3.04c0.17-1.09,0.54-2,0.47-3.79c-0.08-0.45-0.17-0.91-0.3-1.36
					c-0.06-0.26-0.13-0.43-0.16-0.51l-0.13-0.36l-0.52-1.49l-1.09-2.87L531.57,425.78z"/>
			</g>
		</g>
	</g>
	<g>
		<g>
			<g>
				<path class="st0" d="M505.53,479.48c0.06,0.04,0.14-0.04,0.13,0.13c-0.09,0.55-0.41,0.89-0.49,1.45l0.08,0.09
					c-0.14,0.36-0.33,0.81-0.49,1.21c-0.19,0.79-0.38,1.6-0.58,2.45c0.05,0,0.08,0,0.06,0.09c-0.06,0.34-0.22,0.79-0.36,1.28
					l-0.05,0.21c0,0.06,0.03,0.09,0.05,0.11c-0.06,0.19-0.13,0.38-0.17,0.57c-0.21,1.19-0.43,2.43-0.66,3.72
					c-0.11,0.64-0.22,1.28-0.33,1.94c-0.11,0.66-0.21,1.21-0.43,2.28c-0.03,0.19-0.05,0.38-0.08,0.57c0.02,0.17-0.14,0.38,0.06,0.49
					c0.28,0.28,0.52,0.53,0.7,0.72c0.3,0.36,0.55,0.66,0.85,1.02c0.27,0.32,0.54,0.64,0.77,0.91c0.14-0.45,1.45,0.51,1.41-0.15
					c0.32,0.3,0.82,0.7,0.88,0.6c0.19-0.34,0.74-0.43,1.33-0.53c0.03-0.02,0.06-0.02,0.09,0c0.03,0-0.03-0.04,0.03,0.19
					c0.08,0.26,0.02,0.06,0.02,0.11l0,0l0,0l0,0l0,0l0,0l0,0l0,0l0,0l-0.13-0.17c0.02-0.09,0-0.11-0.05-0.09h-0.02l0,0l0,0l0,0
					l0.24,0.28l0,0l0,0l0,0l0,0l0,0c0.02,0,0.03,0.04,0.02,0.02c0.05,0.11-0.06-0.15-0.06-0.26c-0.03-0.15,0.02-0.19-0.03-0.47
					c-0.02-0.02-0.03,0-0.14-0.06c-0.16-0.04-0.43-0.21-0.68-0.38c-0.52-0.38-1.11-0.89-1.66-1.47c-0.28-0.28-0.55-0.57-0.82-0.89
					c-0.4-0.45-0.21-0.21-0.27-0.28c-0.02,0-0.02-0.02-0.02-0.02l0.3-1.15c0.21-1.43,2.59-10.51,3.29-12.81l0.05-0.21
					c0.36-1.26,0.76-2.81,0.92-3.96c0.03-0.49,0.08-1.06,0.13-1.64l-0.33,0.55c0.14-0.51,0.28-1,0.28-1.23
					c0.14-1.15-0.19-0.62-0.54-0.32c-0.19,0.26-0.24-0.23-0.46,0.19c0.09-0.34,0.14-0.51,0.24-0.85c-0.08-0.09-0.24,1.06-0.33,0.74
					c0.13-0.3,0.16-0.7,0.25-1.04c-0.16,0.04-0.36,1.15-0.47,1.04c0.02-0.19,0.43-0.87,0.28-1c-0.03-0.02-0.13,0.3-0.17,0.47
					c0.24-1.06,0.24-1.72-0.21-0.85c0.09-0.32,0.28-0.77,0.36-1.13l0,0c-0.05,0.13-0.17,0.49-0.21,0.62l0.17-0.6l-0.09,0.06
					c-0.06,0.13-0.11,0.28-0.16,0.43l0.11-0.38c-0.08,0.06-0.16,0.17-0.24,0.26c-0.24,0.43-0.51,0.79-0.58,1.04
					C506.69,475.4,506.09,477.44,505.53,479.48z"/>
			</g>
		</g>
	</g>
	<g>
		<g>
			<g>
				<path class="st0" d="M525.13,473.63c0.03,0.06,0.13,0.11,0.06,0.21c-0.22,0.3-0.54,0.26-0.74,0.55l0.05,0.13
					c-0.21,0.13-0.46,0.28-0.68,0.4c-0.36,0.38-0.71,0.79-1.06,1.19c0.03,0.02,0.06,0.06,0.03,0.11c-0.13,0.19-0.36,0.36-0.58,0.6
					l-0.08,0.13c-0.02,0.04,0,0.09,0.02,0.13c-0.08,0.09-0.17,0.17-0.27,0.26c-0.9,1.36-1.77,2.85-2.54,4.6
					c-0.13,0.43-0.25,0.83-0.38,1.19c-0.22,0.53-0.6,1.13-0.79,1.7c0.33,0.13,0.14,1.51,0.58,1.38c-0.08,0.32-0.16,0.83-0.03,0.85
					c0.32,0.11,0.62,0.4,0.9,0.81c0.06,0.15,0.08,0.51,0.16,0.55c0.13,0.02,0.09-0.38,0.22-0.34c-0.17-0.49-0.14-1.09,0.17-2.09
					c0.3-0.96,0.88-2,1.55-2.96c0.16-0.4,1.06-1.72,2.16-2.98c1.09-1.26,2.34-2.45,2.88-2.87l0.09-0.09
					c0.57-0.49,1.25-1.13,1.66-1.7c0.16-0.28,0.35-0.6,0.54-0.89l-0.38,0.04c0.24-0.19,0.47-0.36,0.54-0.51
					c0.43-0.57,0.05-0.57-0.28-0.7c-0.19-0.02-0.09-0.36-0.36-0.3c0.16-0.13,0.24-0.19,0.41-0.3c-0.03-0.13-0.47,0.47-0.44,0.17
					c0.17-0.09,0.32-0.3,0.47-0.4c-0.13-0.13-0.58,0.38-0.63,0.21c0.06-0.11,0.55-0.15,0.49-0.36c-0.02-0.04-0.17,0.09-0.25,0.15
					c0.47-0.47,0.66-0.87,0.11-0.72c0.16-0.13,0.43-0.21,0.58-0.38l0,0c-0.06,0.04-0.28,0.17-0.33,0.19l0.3-0.21l-0.09-0.04
					c-0.08,0.02-0.17,0.06-0.24,0.13l0.21-0.15c-0.08-0.02-0.16-0.04-0.25-0.06c-0.28,0.04-0.58,0.04-0.71,0.13
					C527.11,472,526.1,472.76,525.13,473.63z"/>
			</g>
		</g>
	</g>
	<g>
		<g>
			<g>
				<path class="st0" d="M503.55,508.97c0,0.09,0.41,0-0.19,0.32c-0.51,0.23-0.93,0.45-1.37,0.66c-0.22,0.11-0.44,0.19-0.66,0.3
					l-0.62,0.45c-0.41,0.32-0.84,0.64-1.23,0.94c-0.4,0.36-0.74,0.83-1.12,1.32l-0.03,0.23c-1.2,1.4-2.12,3.23-2.92,5.17
					c-1.26,3.68-1.77,7.55-1.94,11.36c0.05-0.11,0.08-0.15,0.08,0.23c0,0.79-0.05,1.74-0.03,2.77c0,0.51,0.02,1.06,0.05,1.66
					c0.03,0.53,0.06,1.09,0.11,1.64c0.03,0.32,0.06,0.64,0.09,0.96c0.05,0.23,0.08,0.3,0.11,0.34c0.08,0.98,0.16,1.85,0.22,2.66
					c0.63,5.3,1.42,10.6,2.43,15.96c0.98,5.36,2.2,10.79,3.67,16.34c0.73,2.3,1.33,4.64,2.09,6.83c0.52,1.62,1.04,3.53,1.66,5.36
					c0.63,1.83,1.26,3.64,1.82,5.19c0.09-0.64,3.38,6.49,3.07,4.79c0.84,1.98,2.37,4.7,2.51,4.79c0.24,0.09,0.6,0.43,1.26,1.32
					c0.73,0.81,1.77,2.13,3.27,4.28c1.26,1.53,3.16,3.96,3.65,4.45c0.77,0.72-1.52-2.19-0.74-1.47c-4.79-5.47-8.39-12.53-11.3-20.06
					c-2.89-7.57-5.09-15.68-6.81-24.17c-0.65-2.85-2.89-14.13-3.95-26.23c-0.13-1.49-0.28-3.09-0.3-4.43
					c-0.03-1.45,0.03-2.91,0.13-4.34c0.21-2.85,0.7-5.55,1.44-7.79c1.44-4.64,4.04-6.83,5.66-7.43l0.58-0.3
					c0.74-0.28,1.56-0.34,2.37-0.53c1.39,0.04,2.81,0.06,4.23,0.11l-0.17-2.72c-0.02-0.45-0.02-0.87,0-1.28
					c0.02-0.19,0-0.4,0.03-0.6c0.05-0.79,0.16-1.55,0.27-2.28c0.25-1.47,0.74-2.7,1.2-3.74c0.76-1.6,1.93-2.87,3.29-3.79
					c-0.71,0.21-1.25,0.7-1.8,0.98c0.68-0.51,1.34-1.09,1.99-1.32c0.32-0.17,0.58-0.32,0.84-0.45c0.24-0.09,0.43-0.15,0.62-0.23
					c1.66-0.62,2.07-0.62,1.82-0.77c-0.24-0.15-1.07-0.09-1.79-0.06c-1,0.17,0.27-0.53-1.28-0.09c0.54-0.32,0.98-0.32,1.39-0.47
					c0.43-0.09,0.84-0.3,1.42-0.32c0.09-0.32-3.46,1-2.72,0.57c1.09-0.34,2.31-0.81,3.46-0.83c-0.43-0.34-3.98,0.77-3.82,0.7
					c0.58-0.45,3.24-0.77,3.44-0.91c0.02-0.02-0.25-0.02-0.62,0.02c-0.36,0.04-0.79,0.19-1.07,0.26c0.88-0.32,1.67-0.36,2.32-0.47
					c0.63-0.09,1.12-0.19,1.39-0.19c0.52,0,0.22-0.34-1.45-0.26c1.17-0.19,2.78,0.15,3.98,0.17h-0.02c-0.6-0.06-1.66-0.15-2.2-0.21
					l2.07,0.15l-0.35-0.13c-0.54-0.06-1.06-0.11-1.56-0.15l1.37,0.11c-0.33-0.11-0.73-0.19-1.17-0.3c-0.82-0.17-1.64-0.19-2.37-0.19
					c-0.73-0.02-1.37-0.02-1.83,0.15c-2.73,0.51-5.64,2.3-7.52,5.55c-0.9,1.62-1.55,3.47-1.93,5.36c-0.17,0.96-0.3,1.91-0.38,2.87
					l-0.03,0.62v0.02v0.02c-0.09,0,0.32-0.02-1.06-0.04C505.53,508.51,504.53,508.74,503.55,508.97z"/>
			</g>
		</g>
	</g>
	<g>
		<g>
			<g>
				<path class="st0" d="M519.54,615.57c0.06-0.02,0.09-0.17,0.17,0c0.21,0.55,0.13,1.11,0.32,1.64h0.11
					c0.06,0.45,0.13,0.96,0.21,1.45c0.22,0.83,0.44,1.68,0.68,2.57c0.03-0.04,0.06-0.06,0.09,0.02c0.11,0.34,0.19,0.87,0.28,1.38
					l0.06,0.21c0.03,0.04,0.08,0.04,0.09,0.06l0.11,0.64c0.73,2.49,1.44,5.02,2.02,7.85c0.16,0.6,0.32,1.19,0.41,1.77
					c0.11,0.87,0.11,2,0.09,2.85c0.4-0.15,0.52,1.98,0.88,1.6c-0.02,0.6-0.16,1.49-0.05,1.57c0.14,0.11,0.28,0.3,0.36,0.7
					c0.09,0.4,0.13,1.02-0.08,1.98c-0.13,0.36-0.3,0.81-0.52,1.17c-0.24,0.36-0.44,0.64-0.49,0.79c-0.16,0.45,0.7-0.66,0.55-0.21
					c0.81-1.3,1.14-2.74,1.33-4.04c0.16-1.3,0.21-2.55,0.17-3.77c-0.06-2.43-0.36-4.7-0.68-7.02c-0.17-0.77-0.73-3.77-1.41-6.81
					c-0.68-3.06-1.47-6.19-1.77-7.49l-0.06-0.23c-0.35-1.4-0.84-3.06-1.3-4.17c-0.22-0.45-0.49-0.96-0.74-1.47
					c0.02,0.26,0.02,0.51,0.03,0.77c-0.16-0.55-0.3-1.11-0.43-1.28c-0.49-1.09-0.46-0.34-0.57,0.23c0,0.38-0.28,0.02-0.24,0.57
					c-0.09-0.36-0.16-0.55-0.25-0.91c-0.11,0,0.38,1.09,0.14,0.91c-0.06-0.36-0.24-0.72-0.35-1.09c-0.09,0.19,0.32,1.28,0.17,1.28
					c-0.08-0.17-0.13-1.11-0.3-1.09c-0.03,0,0.06,0.36,0.11,0.55c-0.38-1.09-0.71-1.6-0.58-0.49c-0.09-0.34-0.19-0.87-0.32-1.23l0,0
					c0.03,0.15,0.13,0.55,0.16,0.68l-0.19-0.62l-0.03,0.15c0.03,0.17,0.06,0.32,0.11,0.49l-0.13-0.43
					c-0.02,0.13-0.03,0.28-0.05,0.43c0.05,0.55,0.05,1.11,0.11,1.36C518.43,611.27,519,613.46,519.54,615.57z"/>
			</g>
		</g>
	</g>
	<g>
		<g>
			<g>
				<path class="st0" d="M546.54,477.34c0.05-0.06,0.06-0.17,0.14-0.11c0.21,0.19,0.16,0.57,0.36,0.77
					c0.03-0.02,0.06-0.04,0.09-0.06c0.08,0.23,0.17,0.47,0.25,0.7c0.24,0.36,0.49,0.7,0.76,1.02c0.02-0.04,0.05-0.09,0.08-0.06
					c0.11,0.13,0.22,0.36,0.35,0.6c0.03,0.02,0.05,0.06,0.08,0.09c0.03,0,0.06-0.02,0.08-0.04c0.06,0.11,0.11,0.19,0.16,0.28
					c0.84,0.89,1.71,1.77,2.62,2.72c0.24,0.17,0.46,0.32,0.65,0.53c0.25,0.32,0.49,0.83,0.7,1.19c0.24-0.36,0.92,0.32,1.09-0.17
					c0.14,0.23,0.35,0.6,0.44,0.51c0.27-0.21,0.65-0.36,1.19,0.09c0.19,0.19,0.32,0.68,0.43,0.7c0.16,0.04-0.03-0.51,0.13-0.45
					c-1.04-1.87-2.23-3.47-3.37-5.26c-0.51-0.47-3.18-4.51-3.79-5.62c-0.02-0.02-0.05-0.06-0.06-0.09c-0.35-0.6-0.82-1.28-1.23-1.64
					c-0.21-0.15-0.43-0.28-0.65-0.43c0.02,0.15,0.03,0.3,0.05,0.45c-0.14-0.23-0.28-0.47-0.38-0.51c-0.43-0.36-0.4,0.09-0.46,0.49
					c0,0.23-0.24,0.19-0.19,0.51c-0.09-0.15-0.14-0.23-0.24-0.4c-0.09,0.06,0.35,0.43,0.14,0.47c-0.06-0.19-0.22-0.3-0.32-0.45
					c-0.08,0.17,0.3,0.57,0.17,0.68c-0.08-0.06-0.13-0.6-0.28-0.47c-0.03,0.02,0.06,0.19,0.11,0.26c-0.35-0.43-0.63-0.53-0.51,0.04
					c-0.09-0.15-0.17-0.43-0.28-0.57l0,0c0.05,0.09,0.11,0.26,0.14,0.32c-0.05-0.09-0.11-0.19-0.16-0.28
					c-0.02,0.04-0.02,0.06-0.03,0.11c0.03,0.09,0.06,0.17,0.09,0.23c-0.03-0.06-0.08-0.13-0.11-0.19c-0.02,0.09-0.02,0.19-0.03,0.3
					c0.05,0.32,0.06,0.66,0.13,0.77C545.42,475.42,545.98,476.4,546.54,477.34z"/>
			</g>
		</g>
	</g>
	<g>
		<g>
			<g>
				<path class="st0" d="M524.27,492.95c0.03-0.09,0-0.19,0.08-0.19c0.22,0.02,0.32,0.38,0.54,0.4c0.02-0.04,0.03-0.09,0.05-0.13
					c0.14,0.13,0.28,0.3,0.44,0.45c0.32,0.13,0.63,0.26,0.95,0.38c0-0.04,0.02-0.11,0.05-0.11c0.14,0.02,0.3,0.17,0.49,0.28
					c0.03,0,0.06,0.02,0.09,0.02c0.03-0.02,0.05-0.06,0.06-0.09c0.08,0.04,0.16,0.11,0.22,0.15c0.98,0.19,1.98,0.36,3.05,0.57
					c0.24-0.02,0.49-0.02,0.71,0.02c0.32,0.11,0.68,0.38,0.96,0.53c0.08-0.49,0.85-0.34,0.85-0.89c0.19,0.11,0.47,0.28,0.54,0.15
					c0.16-0.36,0.43-0.74,1.01-0.72c0.22,0.04,0.49,0.36,0.58,0.32c0.14-0.06-0.19-0.4-0.03-0.47c-1.47-0.89-2.97-1.47-4.47-2.23
					c-0.57-0.06-4.08-1.72-4.95-2.28c-0.03-0.02-0.05-0.02-0.08-0.04c-0.47-0.28-1.09-0.53-1.55-0.57
					c-0.22,0.02-0.44,0.04-0.68,0.09c0.06,0.13,0.13,0.23,0.17,0.34c-0.19-0.11-0.38-0.21-0.49-0.17c-0.47-0.02-0.3,0.34-0.22,0.72
					c0.08,0.19-0.14,0.32,0,0.55c-0.13-0.06-0.19-0.11-0.32-0.19c-0.05,0.13,0.43,0.13,0.27,0.3c-0.11-0.11-0.27-0.11-0.4-0.17
					c0,0.19,0.43,0.3,0.36,0.45c-0.08,0-0.3-0.43-0.38-0.21c-0.02,0.04,0.11,0.11,0.17,0.15c-0.41-0.13-0.7-0.04-0.4,0.38
					c-0.13-0.06-0.28-0.26-0.43-0.3l0,0c0.06,0.04,0.17,0.15,0.22,0.17c-0.08-0.04-0.14-0.09-0.22-0.13c0,0.04,0.02,0.06,0.02,0.11
					c0.05,0.06,0.09,0.11,0.16,0.15c-0.05-0.02-0.09-0.06-0.14-0.09c0.02,0.09,0.05,0.17,0.08,0.28c0.14,0.23,0.25,0.53,0.35,0.57
					C522.72,492.06,523.49,492.53,524.27,492.95z"/>
			</g>
		</g>
	</g>
	<g>
		<g>
			<g>
				<path class="st0" d="M556.89,467.53c0.05-0.06-0.16-0.32,0.22-0.09c1.26,0.96,2.2,2.19,3.51,3.19l0.14-0.04
					c0.96,0.89,1.99,1.85,3.02,2.79c1.98,1.62,3.97,3.17,5.99,4.64c-0.03-0.09-0.05-0.15,0.16,0c0.87,0.64,2.01,1.49,3.22,2.36
					c0.3,0.19,0.46,0.26,0.62,0.34c0.14,0.06,0.19,0.02,0.22,0.02c0.51,0.34,0.96,0.66,1.37,1c2.75,1.96,5.34,4.74,6.65,8.51
					c0.62,1.81,0.9,4.21,1.23,6.49c0.32,2.32,0.55,4.7,0.77,7.13c0.22,2.06,0.44,4.13,0.55,6.13c0.17,2.96,0.17,6.77,0.17,9.66
					c0.4-0.45,0.49,6.64,0.85,5.23c-0.03,1.94-0.21,4.85-0.09,5.02c0.14,0.23,0.28,0.74,0.36,1.85c0.08,1.11,0.09,2.81-0.11,5.45
					c-0.13,1.02-0.33,2.32-0.54,3.45c-0.25,1.13-0.47,2.09-0.52,2.47c-0.14,1.17,0.77-2.57,0.62-1.4c1.52-7.7,1.6-15.17,1.61-22.62
					c-0.08-7.45-0.41-14.87-1.17-22.47c-0.08-0.64-0.22-1.77-0.44-3.23c-0.09-0.74-0.25-1.57-0.43-2.51c-0.13-0.49-0.25-1-0.38-1.53
					c-0.16-0.51-0.35-1.02-0.54-1.55c-1.61-4.21-4.87-7.85-8.53-10.26c-6.81-4.49-13.54-10.53-16.24-12.96
					c-0.16-0.15-0.35-0.3-0.54-0.45c-1.69-1.49-3.89-2.45-6.05-2.64c-2.16-0.19-4.17,0.51-5.7,1.21c-1.39,0.77-2.73,1.66-3.97,2.77
					c0.63-0.38,1.22-0.7,1.74-0.91c-1.37,0.81-2.64,1.85-3.08,2.34c-2.53,2.53-0.93,1.38,0.19,0.77c0.77-0.49-0.11,0.53,1.07-0.3
					c-0.81,0.66-1.22,1-2.01,1.74c-0.05,0.15,2.42-2.23,1.96-1.53c-0.81,0.6-1.63,1.43-2.39,2.17c0.17-0.06,0.85-0.68,1.49-1.23
					c0.65-0.53,1.25-1,1.23-0.87c-0.21,0.19-0.79,0.62-1.34,1.02c-0.52,0.45-1.01,0.87-1.04,1.04c-0.02,0.06,0.77-0.66,1.15-1
					c-2.37,2.28-3.41,3.89-1.26,1.87c-0.73,0.7-1.79,1.77-2.42,2.64l0,0c0.32-0.4,0.96-1.13,1.31-1.49
					c-0.43,0.45-0.84,0.96-1.22,1.43l0.25-0.19c0.33-0.36,0.65-0.7,0.95-1.04c-0.28,0.3-0.55,0.62-0.82,0.94
					c0.27-0.21,0.54-0.43,0.79-0.64c1.04-1,2.13-1.77,2.7-2.28c2.31-2,4.84-3.6,7.41-4.19C552.2,465.17,554.75,465.72,556.89,467.53
					z"/>
			</g>
		</g>
	</g>
	<g>
		<g>
			<g>
				<path class="st0" d="M582.93,541.85c0.06,0,0.13-0.19,0.16,0.13c0.03,0.98-0.19,1.74-0.16,2.72l0.09,0.06
					c-0.06,0.72-0.13,1.55-0.19,2.32c0,1.45,0,2.89,0.02,4.4c0.03-0.04,0.08-0.06,0.08,0.09c0.02,0.62-0.03,1.45-0.05,2.32
					l0.02,0.38c0.02,0.11,0.06,0.13,0.08,0.15c-0.02,0.38-0.02,0.72-0.03,1.06c0.17,4.28,0.41,8.62,0.71,13.3
					c0.11,1,0.22,1.98,0.28,2.94c0.06,1.43,0.05,3.23,0.08,4.62c0.35-0.23,0.65,3.13,1,2.43c0.03,0.91,0.06,2.3,0.17,2.36
					c0.32,0.19,0.7,0.87,1.01,3.28c0.09,0.94,0.05,2.4,0.13,2.72c0.13,0.51,0.16-1.26,0.28-0.74c-0.3-7.02-0.6-13.81-0.65-20.91
					c-0.24-2.4-0.19-18.79,0.03-22.98v-0.38c0.08-2.3,0.13-5.09,0.05-7.02c-0.06-0.83-0.13-1.79-0.21-2.72
					c-0.08,0.38-0.14,0.77-0.22,1.13c0.05-0.91,0.08-1.83,0.03-2.19c-0.08-1.96-0.3-0.87-0.58-0.13c-0.13,0.53-0.27-0.21-0.41,0.64
					c0.03-0.62,0.05-0.91,0.06-1.53c-0.09-0.09-0.02,1.89-0.17,1.45c0.06-0.6,0.02-1.26,0.05-1.87c-0.14,0.19-0.14,2.13-0.27,2.02
					c-0.02-0.34,0.25-1.7,0.08-1.83c-0.03-0.02-0.06,0.6-0.08,0.89c0.02-1.89-0.09-2.94-0.36-1.23c0.03-0.6,0.14-1.45,0.14-2.09l0,0
					c-0.02,0.3-0.08,0.89-0.09,1.15l0.06-1.09l-0.08,0.19c-0.03,0.28-0.06,0.53-0.08,0.81l0.03-0.72c-0.06,0.17-0.13,0.38-0.19,0.6
					c-0.14,0.85-0.33,1.64-0.36,2.11C583.2,534.38,583.03,538.12,582.93,541.85z"/>
			</g>
		</g>
	</g>
	<g>
		<g>
			<g>
				<path class="st0" d="M584.56,603.44c-0.06,0.02-0.09,0.15-0.16,0.02c-0.17-0.4-0.08-0.85-0.27-1.26l-0.11,0.02
					c-0.05-0.34-0.11-0.74-0.16-1.13c-0.19-0.62-0.4-1.23-0.62-1.94c-0.03,0.04-0.06,0.06-0.09,0c-0.09-0.26-0.16-0.66-0.25-1.06
					l-0.06-0.17c-0.03-0.04-0.06-0.02-0.09-0.02c-0.03-0.15-0.06-0.32-0.11-0.49c-0.68-1.85-1.41-3.72-2.07-5.81
					c-0.19-0.43-0.38-0.85-0.51-1.28c-0.16-0.66-0.27-1.51-0.35-2.17c-0.35,0.21-0.76-1.34-1.07-0.94
					c-0.06-0.45-0.11-1.13-0.22-1.15c-0.3-0.04-0.73-0.3-1-1.57c-0.06-0.51,0.03-1.32-0.03-1.49c-0.11-0.28-0.19,0.68-0.3,0.38
					c0.03,3.94,0.85,7.21,1.6,10.64c0.36,1.15,2.42,8.77,2.95,10.7l0.05,0.17c0.28,1.06,0.7,2.32,1.09,3.15
					c0.19,0.32,0.43,0.7,0.65,1.09c0-0.21,0-0.43,0-0.62c0.13,0.43,0.24,0.85,0.36,0.96c0.43,0.81,0.43,0.21,0.55-0.26
					c0.02-0.3,0.28-0.06,0.27-0.49c0.08,0.28,0.13,0.43,0.21,0.7c0.11-0.02-0.32-0.81-0.09-0.72c0.05,0.28,0.21,0.55,0.28,0.83
					c0.09-0.17-0.25-0.98-0.11-1c0.08,0.13,0.06,0.87,0.25,0.83c0.03,0-0.05-0.28-0.09-0.43c0.32,0.81,0.62,1.19,0.54,0.32
					c0.08,0.28,0.14,0.68,0.25,0.94l0,0c-0.03-0.11-0.09-0.43-0.13-0.53l0.14,0.47l0.03-0.13c-0.02-0.13-0.05-0.26-0.08-0.38
					l0.09,0.32c0.03-0.11,0.05-0.23,0.06-0.36c-0.02-0.43,0.02-0.87-0.05-1.09C585.48,606.8,585.04,605.1,584.56,603.44z"/>
			</g>
		</g>
	</g>
	<g>
		<g>
			<g>
				<path class="st0" d="M480.28,464.21c0.06,0,0.13-0.09,0.16,0.06c0.03,0.47-0.21,0.83-0.17,1.3c0.03,0.02,0.06,0.02,0.09,0.04
					c-0.06,0.36-0.14,0.72-0.22,1.11c-0.03,0.72-0.05,1.43-0.06,2.13c0.03-0.02,0.08-0.02,0.08,0.04c0.02,0.3-0.05,0.7-0.09,1.13
					c0,0.06,0,0.13,0,0.19c0.02,0.04,0.05,0.06,0.08,0.09c-0.02,0.19-0.03,0.36-0.06,0.51c0.08,2.09,0.19,4.21,0.28,6.51
					c0.06,0.49,0.13,0.98,0.14,1.45c0,0.68-0.13,1.55-0.17,2.23c0.36-0.06,0.44,1.6,0.84,1.3c-0.03,0.45-0.09,1.11,0.02,1.17
					c0.3,0.13,0.63,0.53,0.74,1.72c0.02,0.47-0.16,1.17-0.11,1.34c0.08,0.28,0.25-0.57,0.33-0.3c0.33-3.43,0.4-6.77,0.62-10.23
					c-0.09-1.19,0.33-9.17,0.54-11.21c0-0.06,0-0.13,0-0.19c0.09-1.11,0.14-2.47,0.06-3.43c-0.06-0.45-0.14-0.89-0.21-1.34
					c-0.08,0.19-0.14,0.38-0.21,0.53c0.03-0.45,0.06-0.89,0.02-1.06c-0.09-0.98-0.32-0.45-0.58-0.11c-0.13,0.26-0.27-0.13-0.41,0.28
					c0.02-0.3,0.03-0.45,0.06-0.74c-0.09-0.04,0,0.91-0.16,0.7c0.06-0.28,0.02-0.62,0.03-0.91c-0.14,0.09-0.11,1.02-0.25,0.96
					c-0.02-0.17,0.24-0.81,0.06-0.89c-0.03-0.02-0.06,0.28-0.06,0.43c0-0.91-0.13-1.45-0.36-0.64c0.02-0.3,0.13-0.7,0.11-1l0,0
					c-0.02,0.15-0.06,0.4-0.08,0.55c0.02-0.17,0.03-0.34,0.05-0.53c-0.03,0.02-0.05,0.04-0.08,0.09c-0.03,0.13-0.05,0.26-0.06,0.38
					c0.02-0.11,0.02-0.23,0.03-0.34c-0.06,0.09-0.13,0.17-0.17,0.28c-0.14,0.4-0.32,0.79-0.35,1
					C480.56,460.59,480.39,462.4,480.28,464.21z"/>
			</g>
		</g>
	</g>
	<g>
		<g>
			<g>
				<path class="st0" d="M458.79,444.44c-0.03-0.09-0.09-0.13-0.05-0.21c0.14-0.19,0.38,0,0.52-0.19l-0.03-0.13
					c0.14-0.02,0.32-0.04,0.47-0.06c0.22-0.13,0.46-0.28,0.74-0.47c-0.02-0.04-0.03-0.09-0.02-0.11c0.09-0.09,0.25-0.09,0.41-0.13
					l0.06-0.04c0.02-0.04,0.02-0.09,0-0.11c0.06-0.02,0.14-0.04,0.19-0.02c0.71-0.49,1.45-0.85,2.34-0.85
					c0.19-0.04,0.41-0.06,0.6-0.04c0.27,0.11,0.51,0.49,0.73,0.66c0.21-0.47,0.81,0.09,0.98-0.4c0.14,0.21,0.35,0.53,0.44,0.47
					c0.28-0.21,0.66-0.32,1.15,0.28c0.17,0.26,0.25,0.79,0.35,0.85c0.16,0.11,0.03-0.51,0.19-0.4c-0.24-0.57-0.46-1.13-0.74-1.66
					c-0.35-0.49-0.68-1.02-1.09-1.43c-0.85-0.81-1.86-1.4-2.88-1.53c-0.36-0.02-1.67,0.02-2.88,0.45c-1.22,0.4-2.31,1.15-2.78,1.38
					l-0.08,0.06c-0.49,0.3-1.06,0.79-1.36,1.26c-0.13,0.26-0.25,0.51-0.36,0.79c0.11,0,0.22,0,0.32,0c-0.17,0.15-0.36,0.3-0.38,0.43
					c-0.27,0.51,0.05,0.51,0.32,0.66c0.16,0.02,0.13,0.34,0.33,0.32c-0.11,0.09-0.16,0.15-0.27,0.23c0.05,0.13,0.3-0.36,0.32-0.11
					c-0.13,0.04-0.21,0.23-0.32,0.32c0.11,0.13,0.4-0.28,0.46-0.13c-0.03,0.09-0.41,0.06-0.33,0.28c0.02,0.04,0.13-0.04,0.17-0.11
					c-0.3,0.36-0.35,0.7,0.03,0.64c-0.09,0.09-0.28,0.15-0.35,0.26l0,0c0.05-0.04,0.16-0.09,0.21-0.13l-0.17,0.15l0.06,0.04
					c0.05-0.02,0.11-0.04,0.14-0.09l-0.11,0.11c0.06,0.04,0.13,0.06,0.19,0.09c0.19-0.02,0.43,0.04,0.51-0.02
					C457.48,445.32,458.14,444.87,458.79,444.44z"/>
			</g>
		</g>
	</g>
	<g>
		<g>
			<g>
				<path class="st0" d="M428.64,354.95c0.03,0.06,0.38-0.3-0.06,0.38c-1,1.55-2.07,2.19-3.14,2.17l1.28,3.28
					c0.4-0.72,0.77-1.43,1.22-2.21l0.03-0.28c1.19-2,2.48-4.04,3.84-6.06c2.43-3.81,4.98-7.49,7.69-10.85
					c-0.09,0.04-0.16,0.06,0.11-0.3c0.54-0.74,1.26-1.49,2.02-2.36s1.6-1.79,2.5-2.64c0.25-0.28,0.51-0.53,0.76-0.81
					c0.19-0.23,0.22-0.32,0.24-0.38c0.77-0.83,1.55-1.4,2.23-2.02c4.42-4.02,9.37-7.32,14.82-8.06c5.59-0.72,11.41-0.79,17.44-0.4
					c2.56,0.13,5.1,0.3,7.57,0.62c3.63,0.49,8.25,1.49,11.74,2.34c-0.24-0.3,1.8-0.02,3.67,0.32c0.24,0,0.43,0.17,0.62,0.34
					c0.19,0.17,0.36,0.34,0.55,0.49c0.32,0.3,0.62,0.57,0.88,0.83c0.47,0.43,0.7,0.55,0.43,0.06c0.88,1.11,1.96,2.55,2.7,3.89
					c0.77,1.3,1.28,2.43,1.39,2.47c0.25,0.26,0.76,0.81,1.44,2.47c0.17,0.47,0.35,0.96,0.54,1.49c0.17,0.57,0.3,1.28,0.46,2.04
					c0.28,1.55,0.4,3.55,0.09,5.94c-0.14,0.91-0.44,1.91-0.71,2.94c-0.33,0.98-0.79,1.87-1.15,2.77c-0.85,1.64-1.72,2.85-1.99,3.38
					c-0.87,1.62,2.37-3.4,1.5-1.79c1.52-2.68,2.8-5.96,2.91-9.62c0.17-3.62-0.66-7.11-1.91-10c-1.25-2.91-2.88-5.4-4.68-7.53
					c-0.44-0.55-0.92-1.06-1.41-1.55l-0.62-0.6c-0.24-0.19-0.55-0.19-0.81-0.3l-0.85-0.23l-3.37-0.83
					c-8.99-2.02-18.08-3.34-27.46-3.49c-1.44,0.04-4.77,0.02-9.2,0.51c-4.61,0.49-10.14,3.06-15.06,7.34
					c-4.98,4.19-9.58,9.66-13.45,15.02c-3.87,5.4-7,10.64-9.2,14.79l-1.63,3.06l2.8-0.06c2.12-0.04,3.63-1.4,4.5-2.47
					c0.32-0.34,0.54-0.74,0.81-1.11c2.26-3.45,3.49-7.85,4.49-12.04c0.95-4.21,1.58-8.34,1.98-11.72c0.35-3.13,0.6-6.3,0.81-9.47
					c-0.21,1.45-0.4,2.79-0.58,3.96c0.36-3.19,0.65-6.38,0.68-7.64c0.36-6.85-0.11-3-0.55-0.43c-0.27,1.87-0.22-0.7-0.58,2.21
					c0.19-2.11,0.28-3.17,0.44-5.3c-0.06-0.26-0.46,6.55-0.52,5.04c0.22-2.04,0.33-4.32,0.47-6.45c-0.17,0.72-0.6,7.34-0.74,6.98
					c0.08-1.15,0.68-5.91,0.52-6.36c-0.03-0.09-0.17,2.04-0.27,3.09c0.44-6.53,0.41-10.15-0.11-4.21c0.14-2.06,0.38-4.98,0.43-7.15
					v0.02c-0.06,1.09-0.17,2.98-0.22,3.96l0.17-3.72c-0.03,0.21-0.06,0.43-0.09,0.64c-0.06,0.94-0.11,1.87-0.17,2.81l0.13-2.47
					c-0.08,0.68-0.17,1.36-0.25,2.09c-0.3,2.89-0.6,5.87-0.74,7.28c-0.54,6.36-1.25,12.72-2.31,18.91
					c-0.54,3.09-1.15,6.15-1.96,9.06C430.93,349.98,429.95,352.81,428.64,354.95z"/>
			</g>
		</g>
	</g>
	<g>
		<g>
			<g>
				<path class="st0" d="M410.28,328.78c-0.02-0.09-0.54,0.26,0.21-0.43c2.39-2.11,4.44-3.47,6.89-5.45l0.13-0.26
					c1.94-1.43,3.98-2.85,6.08-4.21c3.82-2.68,7.69-5.21,11.63-7.47c-0.11,0.02-0.17,0,0.21-0.26c1.63-0.98,3.93-2.15,6.32-3.32
					c0.35-0.17,0.71-0.36,1.06-0.53c0.27-0.17,0.32-0.23,0.36-0.3c1.09-0.53,2.05-0.98,2.97-1.34c11.8-5.47,24.44-9.21,38.27-8.7
					c1.45,0.09,2.92,0.02,4.36,0.23c1.47,0.19,2.89,0.38,4.27,0.57c4.11,0.94,9.34,2.49,13.13,4.47c-0.25-0.32,2.04,0.34,4.08,1.4
					c2.05,0.96,3.95,1.85,3.11,1.09c1.25,0.77,2.75,1.87,4.01,2.7c0.38,0.26,0.73,0.49,1.06,0.72c0.17,0.11,0.33,0.21,0.47,0.32
					c0.11,0.13,0.41,0.15,0.25,0.36c-0.22,0.7-0.35,1.15-0.36,1.23c0.02,0.21-0.08,0.77-0.21,1.36c-0.09,0.53-0.25,1.26-0.49,2.21
					c-0.49,1.94-1.33,4.87-2.75,9.38c-1.14,3.51-3.05,8.77-3.41,10.04c-0.57,1.98,1.72-4.38,1.15-2.4
					c2.24-6.57,4.46-13.08,6.65-19.57c0.38-1.53,1.8-3.55-0.11-4l-2.54-1.77c-1.19-0.79-2.34-1.7-3.57-2.36l-3.67-2.06
					c-1.22-0.72-2.5-1.17-3.74-1.79c-2.48-1.23-5.09-1.96-7.65-2.89c-2.61-0.64-5.21-1.4-7.87-1.72c-2.64-0.51-5.31-0.62-7.98-0.81
					c-2.67,0-5.37-0.04-8.06,0.23c-0.92,0.06-2.5,0.23-4.55,0.6c-2.07,0.26-4.61,0.83-7.52,1.47c-5.77,1.4-12.81,3.85-19.78,7.21
					c-6.98,3.34-13.92,7.43-19.69,11.45c-5.78,3.98-10.46,7.74-13.15,10l-0.96,0.83c-1.45,1.26-2.97,2.57-4.5,4l-1.14,1.06
					c-0.55,0.53-1.37,1.32-2.01,1.96l-2.01,2.04l-0.25,0.26c0.05,0.06,0.17,0.13,0.25,0.19l0.57,0.36l1.12,0.72
					c2.1,1.26,4.16,2.51,6.11,3.7c1.55,0.91,3.02,1.77,4.36,2.55c2.42,1.34,4.93,2.74,7.43,4.13c-1.09-0.77-2.12-1.49-3.03-2.13
					c2.48,1.53,4.96,3.06,5.96,3.57c5.36,3.06,2.43,1,0.51-0.55c-1.42-1.04,0.63-0.02-1.61-1.55c1.66,1.02,2.48,1.53,4.14,2.55
					c0.24,0-5.12-3.06-3.9-2.57c1.58,1.02,3.4,2.04,5.04,3.06c-0.52-0.53-5.72-3.57-5.4-3.6c0.9,0.51,4.58,3.09,4.96,3.06
					c0.08,0-1.58-1.02-2.4-1.53c5.12,3.06,8,4.6,3.43,1.51c1.61,1,3.87,2.49,5.59,3.51l-0.02-0.02c-0.84-0.53-2.32-1.47-3.1-1.96
					l2.91,1.79c-0.16-0.13-0.32-0.26-0.47-0.4c-0.73-0.47-1.45-0.94-2.2-1.4l1.93,1.19c-0.51-0.38-1.03-0.79-1.58-1.21
					c-2.24-1.55-4.38-3.09-5.63-3.85l-15.03-9.36l-3.76-2.34l-0.25-0.15l-0.02-0.02l-0.02-0.02c-0.03,0-0.02-0.02,0-0.04l0.02-0.02
					h0.02l0.24-0.23l1.67-1.55C408,330.78,409.14,329.76,410.28,328.78z"/>
			</g>
		</g>
	</g>
	<g>
		<g>
			<g>
				<path class="st0" d="M419.08,158.68c0.06,0.02,0.14-0.74,0.16,0.47c0.02,3.83-0.24,6.91-0.22,10.74l0.09,0.28
					c-0.09,2.96-0.21,6.06-0.3,9.21c-0.11,5.81-0.21,11.6-0.32,17.36c0.05-0.15,0.08-0.21,0.08,0.36c-0.03,2.4-0.16,5.7-0.28,9.15
					c-0.02,0.51-0.02,1.02-0.03,1.51c0.02,0.38,0.05,0.49,0.06,0.55c-0.06,1.55-0.11,2.94-0.16,4.21c-0.4,16.87-0.95,34-2.12,52.51
					c-0.22,3.91-0.44,7.83-0.76,11.6c-0.47,5.57-1.31,12.64-2.05,18.02c0.24-0.36-0.03,2.74-0.32,5.62c-0.3,2.87-0.6,5.53-0.21,4.28
					c-0.57,3.57-1.67,8.87-1.64,9.19c0.06,0.47,0.03,1.43-0.28,3.43c-0.36,2-0.87,5.11-2.51,9.68c-0.63,1.79-1.69,3.96-2.86,5.66
					c-0.57,0.87-1.23,1.55-1.79,2.11c-0.58,0.51-1.09,0.83-1.34,1.04c-0.35,0.23-0.32,0.26-0.08,0.15c0.24-0.11,0.77-0.45,1.26-0.79
					c0.92-0.79,1.77-1.68,1.09-0.83c2.34-2.74,3.63-6.11,4.8-9.4c1.12-3.32,1.98-6.7,2.73-10.11c1.49-6.81,2.53-13.66,3.41-20.55
					c1.75-13.77,2.84-27.64,3.76-41.81c0.25-4.83,1.26-23.55,1.85-43.15c0.62-19.62,0.92-40.11,1.04-48.49l0.02-1.53
					c0.13-9.15,0.14-20.26,0-27.98c-0.09-3.51-0.21-7.15-0.3-10.74c-0.06,1.64-0.11,3.17-0.17,4.55c0-3.66,0-7.32-0.08-8.72
					c-0.21-7.79-0.36-3.36-0.58-0.38c-0.09,2.15-0.28-0.74-0.38,2.62c-0.02-2.43-0.02-3.64-0.02-6.09
					c-0.09-0.28,0.09,7.49-0.08,5.81c0.03-2.34-0.05-4.96-0.06-7.4c-0.13,0.85,0,8.43-0.14,8.04c-0.03-1.32,0.16-6.83-0.03-7.3
					c-0.03-0.09-0.02,2.34-0.02,3.55c-0.09-7.49-0.32-11.62-0.44-4.77c-0.02-2.36,0.03-5.72-0.03-8.23v0.02c0,1.23,0,3.43,0,4.55
					l-0.03-4.28c-0.02,0.23-0.05,0.49-0.06,0.74c0,1.09,0,2.15,0,3.23l-0.03-2.83c-0.05,0.77-0.09,1.57-0.13,2.43
					c-0.08,3.36-0.22,6.6-0.21,8.43C419.33,129.19,419.24,143.98,419.08,158.68z"/>
			</g>
		</g>
	</g>
	<g>
		<g>
			<g>
				<path class="st0" d="M513.32,156.3c0.06,0.02,0.17-0.64,0.13,0.4c-0.14,3.28-0.54,5.87-0.66,9.15l0.09,0.26
					c-0.19,2.51-0.4,5.17-0.62,7.83c-0.27,4.96-0.49,9.89-0.7,14.81c0.05-0.13,0.08-0.19,0.08,0.3c-0.06,2.04-0.24,4.87-0.38,7.81
					c-0.02,0.43-0.02,0.87-0.03,1.3c0.02,0.34,0.05,0.43,0.06,0.49c-0.06,1.32-0.11,2.51-0.17,3.6
					c-0.36,14.43-0.47,29.08-0.17,44.98c0.13,3.43,0.27,6.81,0.38,9.96c0.16,4.79,0.32,10.91,0.58,15.57
					c0.16-0.38,0.47,2.28,0.77,4.7c0.32,2.45,0.7,4.66,0.76,3.51c0.22,3.09,0.81,7.68,0.93,7.89c0.21,0.32,0.41,1.06,0.85,2.68
					c0.43,1.62,0.9,4.17,1.88,7.96c0.32,1.51,0.93,3.28,1.34,4.91c0.58,1.47,1.07,2.72,1.3,3.17c0.7,1.38-1.22-3.55-0.52-2.15
					c-1.88-4.94-2.84-10.72-3.63-16.4c-0.77-5.72-1.19-11.55-1.58-17.38c-0.68-11.68-0.82-23.47-0.74-35.53
					c-0.09-4.11,0.09-20,0.77-36.66c0.63-16.66,1.71-34.02,2.21-41.13l0.08-1.3c0.52-7.74,1.17-17.15,1.55-23.7
					c0.14-2.96,0.28-6.06,0.43-9.13c-0.17,1.36-0.33,2.66-0.49,3.83c0.25-3.09,0.52-6.19,0.55-7.38c0.4-6.6-0.09-2.91-0.55-0.4
					c-0.25,1.81-0.22-0.68-0.57,2.15c0.17-2.06,0.27-3.09,0.44-5.15c-0.08-0.26-0.47,6.36-0.52,4.89c0.21-1.98,0.33-4.21,0.51-6.28
					c-0.21,0.68-0.65,7.13-0.76,6.79c0.06-1.13,0.66-5.77,0.54-6.19c-0.03-0.09-0.21,1.98-0.3,3c0.49-6.36,0.63-9.87-0.06-4.11
					c0.19-2,0.47-4.85,0.68-6.98v0.02c-0.11,1.04-0.3,2.89-0.4,3.87l0.33-3.62c-0.05,0.21-0.08,0.4-0.13,0.62
					c-0.09,0.91-0.19,1.83-0.28,2.74l0.22-2.4c-0.11,0.66-0.22,1.34-0.35,2.02c-0.36,2.85-0.76,5.55-0.9,7.11
					C515.15,131.21,514.15,143.77,513.32,156.3z"/>
			</g>
		</g>
	</g>
	<g>
		<g>
			<g>
				<path class="st0" d="M593.31,645.29c0-0.09-0.24-0.11,0.11-0.26c0.16-0.04,0.28-0.09,0.41-0.13c0.08-0.02,0.4-0.11,0.22-0.06
					c0.03,0,0.05,0.02,0.06,0.04c0.03,0.04,0.02,0.13,0.05,0.11l0.09-0.11c0,0.04,0,0.06-0.02,0.11c0,0.06-0.03-0.04,0,0.28
					c0.03,0.45,0.03,0.94,0.03,1.45c0.09,1.85,0.09,3.79,0.08,5.72c0.03-0.04,0.08-0.06,0.08,0.13c0,0.81-0.08,1.91-0.14,3.09v0.51
					c0.02,0.13,0.05,0.17,0.08,0.19c-0.03,0.51-0.06,0.98-0.09,1.43c-0.05,2.3-0.13,4.64-0.22,7.02c-0.05,1.19-0.11,2.4-0.16,3.64
					c-0.03,0.62-0.06,1.23-0.09,1.87l-0.03,0.47v0.23l-0.02,0.47l-0.25,0.17c-0.11,0.06-0.14,0.11-0.4,0.21
					c-0.41,0.21-0.84,0.43-1.26,0.64c-0.92,0.53-1.85,1.04-2.75,1.49c-1.34,0.62-3.11,1.21-4.46,1.7c0.32,0.4-2.92,1.83-2.18,2.06
					c-0.9,0.3-2.26,0.72-2.31,0.87c-0.16,0.45-0.73,1.21-3.25,2.02c-0.51,0.13-1.15,0.21-1.82,0.17c-0.33-0.02-0.65-0.04-1.01-0.17
					c-0.32-0.06-0.81-0.45-1.01-0.68c-0.11-0.11-0.13-0.06-0.08,0.04c-0.02,0.09,0.68,0.79,0.88,0.81c0.33,0.19,0.55,0.23,0.66,0.28
					c0.13,0.04,0.14,0.09-0.06,0.09c1.28,0.17,2.1-0.06,3.03-0.23c0.9-0.19,1.75-0.43,2.62-0.68c1.71-0.51,3.37-1.11,5.02-1.74
					c1.66-0.64,3.3-1.3,4.95-2c1.96-0.85,3.92-1.7,5.91-2.57c0.06-0.62,0.13-1.26,0.19-1.87c0.08-1.02,0.22-3.15,0.41-5.91
					c0.19-2.66,0.4-5.94,0.55-9.32s0.27-6.85,0.16-9.96c-0.03-0.79-0.06-1.53-0.16-2.3c-0.02-0.4-0.17-1.11-0.28-1.62
					c-0.13-0.53-0.3-1.02-0.52-1.38c-0.43-0.77-1.12-1.15-1.66-1c-0.3,0.11-0.58,0.19-0.85,0.28l-0.19,0.06l-0.25,0.11l-0.17,0.04
					l-0.32,0.11c-2.01,0.47-4.84,0.38-6.75,0.45c-0.84,0.04-1.79,0.11-2.7,0.17c0.4,0.13,0.77,0.23,1.14,0.34
					c-0.92-0.09-1.83-0.21-2.2-0.15c-1.98-0.02-0.88,0.36-0.14,0.77c0.54,0.21-0.22,0.34,0.63,0.6c-0.62-0.09-0.92-0.13-1.55-0.21
					c-0.08,0.13,1.91,0.15,1.47,0.34c-0.58-0.13-1.26-0.11-1.88-0.21c0.21,0.21,2.13,0.34,2.02,0.51c-0.33,0-1.72-0.45-1.85-0.23
					c-0.03,0.04,0.58,0.13,0.9,0.17c-1.91-0.17-2.97-0.11-1.25,0.38c-0.6-0.09-1.45-0.3-2.1-0.38l0,0c0.3,0.06,0.88,0.19,1.17,0.23
					l-1.09-0.17l0.19,0.13c0.27,0.06,0.54,0.13,0.82,0.17l-0.73-0.13c0.17,0.11,0.38,0.21,0.6,0.3c0.85,0.28,1.66,0.6,2.13,0.66
					c1.88,0.28,3.78,0.51,5.7,0.62C589.3,645.67,591.21,645.74,593.31,645.29z"/>
			</g>
		</g>
	</g>
	<g>
		<g>
			<g>
				<path class="st0" d="M518.09,645.76c0.03-0.09-0.6-0.36,0.41-0.09c3.19,0.83,5.81,1.55,9.16,1.17l0.24-0.17
					c2.58-0.21,5.28-0.98,7.84-2.55c2.37-1.45,4.41-3.83,6.11-5.81c1.72-2,3.51-3.43,5.61-4.4c-0.11,0-0.19-0.02,0.22-0.23
					c1.74-0.81,4.27-1.47,6.92-1.45c0.4,0,0.79-0.02,1.17,0c0.3,0,0.38-0.04,0.43-0.09c1.2,0.11,2.28,0.32,3.25,0.57
					c1.61,0.36,3.26,0.96,4.9,1.57c1.63,0.62,3.21,1.36,4.72,2.3c3.02,1.85,5.78,4.6,7.62,8.36c1.88,3.72,2.77,8.36,2.64,13.08
					c-0.11,4.7-1.12,9.6-2.72,14.04c-1.36,3.77-3.43,7.08-5.91,9.43c-1.83,1.72-4.19,3.19-6.67,4.02c-2.45,0.85-5.04,1.15-7.24,1.3
					c0.35,0.21-2.18,0.62-4.53,0.3c-2.35-0.28-4.49-1.15-3.51-0.45c-1.45-0.62-3.19-1.68-4.5-2.79c-1.31-1.11-2.24-2.15-2.39-2.17
					c-0.33-0.21-1.11-0.62-2.35-2.23c-1.25-1.6-3.1-4.4-4.68-9.64c-0.62-2.04-1.11-4.74-1.39-7.13s-0.33-4.45-0.36-5.28
					c-0.05-1.17-0.13,0.19-0.11,1.66c0.02,1.45,0.11,2.87-0.05,1.66c0.33,4.09,1.12,8.06,2.39,11.81c1.3,3.72,3.11,7.19,5.44,9.94
					c2.31,2.74,5.07,4.83,8.01,5.96c2.94,1.17,6.02,1.47,8.99,1.21c2.89-0.3,5.89-0.81,8.77-2.21c2.88-1.34,5.59-3.49,7.84-6.36
					c2.26-2.83,4.03-6.38,5.2-10.21c1.12-3.74,1.98-7.74,2.2-11.94c0.05-1.43,0.11-3.89-0.33-7.13c-0.46-3.19-1.52-7.19-3.73-10.81
					c-2.16-3.64-5.39-6.64-9.04-8.6c-1.82-1.02-3.74-1.79-5.64-2.47c-1.94-0.72-4.01-1.26-6.11-1.49c-4.2-0.47-8.56,0.38-12.4,2.72
					c-1.94,1.15-3.68,2.89-5.12,4.57c-1.45,1.68-2.73,3.09-4.19,4.11c-2.86,2.11-5.91,2.87-8.52,3c-2.62,0.13-4.85-0.32-6.46-0.74
					l-1.17-0.32c-0.44-0.15-0.88-0.3-1.33-0.45c-0.79-0.3-1.58-0.57-2.39-0.87l-0.66-0.26l-0.33-0.13
					c-0.05,0.11-0.05,0.28-0.08,0.43l-0.28,1.81l-0.27,1.83l-0.16,1.19c-0.33,2.7-0.6,5.47-0.76,8.21
					c-0.32,5.47-0.22,10.91,0.88,15.38l0.66,2.04l0.19,0.6c0.08,0.17,0.3,0.09,0.44,0.15l0.95,0.17c0.76,0.11,1.53,0.23,2.29,0.34
					c1.45,0.21,2.92,0.43,4.38,0.64c-1.33-0.34-2.56-0.66-3.67-0.96c2.95,0.57,5.91,1.15,7.05,1.3c6.32,1,2.78,0.06,0.4-0.72
					c-1.72-0.49,0.65-0.26-2.05-0.91c1.96,0.38,2.95,0.57,4.93,0.96c0.24-0.09-6.07-1.11-4.68-1.06c1.9,0.43,4.01,0.74,5.99,1.13
					c-0.66-0.32-6.81-1.38-6.49-1.51c1.07,0.17,5.5,1.32,5.91,1.15c0.08-0.02-1.9-0.43-2.88-0.62c6.07,1.11,9.43,1.51,3.92,0.21
					c1.93,0.38,4.63,1,6.67,1.36h-0.02c-1.01-0.21-2.77-0.57-3.7-0.77l3.46,0.68c-0.19-0.06-0.4-0.15-0.6-0.21
					c-0.87-0.19-1.74-0.36-2.62-0.55l2.29,0.45c-0.62-0.19-1.26-0.38-1.93-0.6c-2.72-0.68-5.31-1.38-6.78-1.68l-8.94-1.79
					l-2.24-0.45c-0.09-0.02-0.08,0-0.09-0.04c-0.03-0.13,0.08,0.21-0.11-0.38c-0.4-1.68-0.63-3.55-0.73-5.45
					c-0.19-3.83,0.02-7.81,0.36-11.72c0.09-0.98,0.19-1.96,0.3-2.96l0.32-2.47c0-0.02,0-0.04,0.02-0.02L518.09,645.76z"/>
			</g>
		</g>
	</g>
	<g>
		<g>
			<g>
				<path class="st0" d="M554.92,667.55c-0.02-0.11-0.05-0.21-0.06-0.28c0.02-0.17,0.06,0.26,0.06,0.11v-0.26
					c0.02,0.06,0.03,0.21,0.02,0.34c0.02-0.11,0.05-0.21,0.06-0.34c0.03-0.15,0.05-0.3,0.06-0.36c0.03-0.15,0.03-0.04,0.03-0.02
					l0.03-0.11c0.02-0.11,0.06-0.28,0.08-0.38l0,0l-0.02,0.15c0.21-0.66,0.44-0.7,0.68,0.3c0.09,0.17,0.19,0.43,0.24,0.72
					c0.03,0.51-0.03,1.45-0.05,2.04c0.36-0.11,0.54,1.45,0.92,1.13c0,0.43-0.02,1.04,0.08,1.09c0.32,0.11,0.66,0.43,0.85,1.53
					c0.05,0.45-0.08,1.11-0.03,1.26c0.09,0.23,0.22-0.57,0.32-0.32c0.06-1.62,0.05-3.21,0.03-4.83c-0.02-2.6-0.03-5.21-0.05-7.85
					c-0.08-0.96-0.14-4.85-0.17-8.89c-1.66,3.81-3.33,7.55-4.04,9.06l-0.13,0.3c-0.38,0.83-0.81,1.79-1.19,2.7
					c-0.09,0.21-0.19,0.45-0.28,0.68c-0.09,0.23-0.09,0.28-0.16,0.43c-0.08,0.23-0.16,0.47-0.21,0.68
					c-0.06,0.38-0.14,0.83-0.22,1.26c0.13-0.13,0.24-0.23,0.35-0.32c-0.17,0.36-0.33,0.7-0.35,0.89c-0.21,0.87,0.14,0.57,0.49,0.45
					c0.19-0.13,0.21,0.26,0.44,0c-0.11,0.23-0.17,0.36-0.28,0.6c0.08,0.11,0.28-0.79,0.36-0.49c-0.14,0.21-0.21,0.51-0.32,0.74
					c0.16,0.02,0.41-0.79,0.52-0.66c-0.03,0.15-0.46,0.55-0.33,0.7c0.03,0.04,0.14-0.21,0.19-0.32c-0.28,0.79-0.33,1.3,0.14,0.74
					c-0.11,0.23-0.32,0.51-0.41,0.79l0,0c0.05-0.09,0.21-0.34,0.24-0.43l-0.19,0.43l0.09-0.02c0.06-0.09,0.13-0.19,0.17-0.3
					l-0.13,0.28c0.08-0.02,0.16-0.06,0.24-0.13c0.24-0.26,0.52-0.47,0.62-0.64c0.36-0.74,0.73-1.45,1.06-2.13
					c0.24-0.51,0.19-0.34,0.21-0.38L554.92,667.55z"/>
			</g>
		</g>
	</g>
	<g>
		<g>
			<g>
				<path class="st0" d="M517.08,741.23c0.06,0.02,0.13-0.83,0.16,0.51c0.08,4.23-0.11,7.66-0.02,11.89l0.11,0.3
					c-0.02,3.28-0.05,6.72-0.06,10.19c0.09,6.43,0.21,12.83,0.3,19.21c0.03-0.17,0.06-0.26,0.09,0.38
					c0.03,2.68,0.08,6.32,0.13,10.13c0.02,0.55,0.03,1.13,0.05,1.68c0.03,0.43,0.06,0.53,0.09,0.62c0.02,1.72,0.03,3.23,0.05,4.66
					c0.54,18.66,1.2,37.62,2.21,58.13c0.27,4.38,0.52,8.74,0.77,12.85c0.32,6.19,0.66,14.11,1.04,20.13
					c0.27-0.96,1.5,13.7,1.66,10.7c0.3,4,0.85,10,1,10.3c0.21,0.43,0.46,1.4,0.85,3.57c0.4,2.15,0.9,5.53,1.85,10.62
					c0.38,1.98,0.85,4.49,1.45,6.49c0.3,0.98,0.62,1.83,0.92,2.38c0.3,0.57,0.49,0.66,0.58,0.77c0.4,0.23,0.38,0.17,0.14-0.02
					c-0.17-0.11-0.13-0.19-0.22-0.28c-0.06-0.04-0.16-0.21-0.25-0.43c-0.21-0.3-0.38-0.91-0.46-1.15c-0.09-0.28-0.08-0.32,0.13,0.06
					c-1.14-2.94-1.79-6.79-2.37-10.43c-0.55-3.7-1-7.47-1.37-11.23c-0.77-7.55-1.31-15.13-1.8-22.72
					c-0.95-15.21-1.6-30.49-2.09-46.13c-0.25-5.32-0.9-25.94-1.26-47.57c-0.4-21.62-0.57-44.23-0.58-53.47l-0.02-1.68
					c-0.05-10.08-0.11-22.32-0.25-30.85c-0.09-3.87-0.19-7.87-0.28-11.85c-0.06,1.81-0.13,3.51-0.19,5.02
					c0.02-4.04,0.02-8.06-0.05-9.62c-0.14-8.6-0.33-3.72-0.58-0.43c-0.11,2.38-0.27-0.83-0.4,2.89c0.02-2.68,0.02-4.02,0.03-6.72
					c-0.11-0.3,0.03,8.28-0.13,6.4c0.05-2.6-0.02-5.49,0-8.17c-0.14,0.94-0.08,9.3-0.21,8.89c-0.03-1.45,0.21-7.55,0.03-8.06
					c-0.03-0.11-0.05,2.6-0.05,3.94c-0.03-8.28-0.17-12.83-0.4-5.28c0.03-2.62,0.06-6.32,0.09-9.11v0.02
					c-0.02,1.38-0.05,3.79-0.06,5.04l0.03-4.72c-0.03,0.26-0.05,0.53-0.08,0.83c-0.02,1.19-0.03,2.36-0.06,3.57l0.02-3.13
					c-0.05,0.85-0.11,1.74-0.17,2.68c-0.13,3.72-0.3,7.3-0.3,9.32C517.01,708.61,517,724.95,517.08,741.23z"/>
			</g>
		</g>
	</g>
	<g>
		<g>
			<g>
				<path class="st0" d="M592.48,736.52c0.06,0.02,0.09-0.87,0.17,0.53c0.11,2.19,0.13,4.17,0.17,6.17
					c0.09,1.98,0.17,3.98,0.35,6.19l0.14,0.3c0.16,1.7,0.3,3.47,0.46,5.23c0.27,1.79,0.52,3.6,0.79,5.43
					c1.25,6.28,2.28,12.72,3.33,19.08c0.02-0.17,0.03-0.26,0.14,0.36c0.43,2.66,0.98,6.34,1.53,10.17c0.09,0.57,0.17,1.13,0.27,1.68
					c0.08,0.43,0.14,0.53,0.17,0.6c0.25,1.72,0.47,3.28,0.68,4.7c2.95,18.74,5.86,37.83,8.91,58.53c0.7,4.36,1.37,8.74,1.99,12.96
					c0.43,3.15,0.9,6.7,1.36,10.26c0.08,3.57,0.17,7.13,0.24,10.21c0.33-0.98,0.92,14.17,1.2,11.13c0.09,4.15,0.25,10.36,0.36,10.68
					c0.33,0.96,0.77,4.11,1.25,15.11c0.16,4.3,0.21,10.91,0.3,12.43c0.16,2.38,0.06-5.6,0.24-3.21c-0.41-16-0.82-31.68-1.23-47.4
					l-0.16-5.89l-0.08-2.98c0.02-0.21-0.05-0.55-0.06-0.66l-0.05-0.36l-0.09-0.72l-0.19-1.45c-0.52-3.87-1.06-7.77-1.58-11.66
					c-1.07-7.79-2.13-15.64-3.22-23.55c-0.81-5.49-3.84-26.26-7.02-48.06c-1.66-10.91-3.33-22.04-5.15-31.62
					c-0.46-2.43-0.77-4.53-1.09-6.68c-0.21-2.15-0.46-4.17-0.58-6.06c-0.11-1.89-0.22-3.64-0.32-5.21
					c-0.05-1.57-0.09-2.96-0.14-4.13l-0.06-1.7c-0.28-10.28-0.05-22.83,0.11-31.57c0.06-3.98,0.14-8.09,0.21-12.17
					c-0.14,1.85-0.28,3.6-0.41,5.13c0.17-4.13,0.4-8.26,0.41-9.85c0.33-8.81-0.13-3.85-0.57-0.49c-0.24,2.43-0.24-0.89-0.54,2.91
					c0.16-2.74,0.22-4.13,0.38-6.89c-0.09-0.32-0.41,8.49-0.47,6.57c0.14-2.7,0.28-5.64,0.44-8.38c-0.21,0.94-0.57,9.53-0.68,9.11
					c0.03-1.49,0.6-7.72,0.46-8.28c-0.03-0.11-0.19,2.64-0.27,4.02c0.41-8.49,0.57-13.19-0.09-5.47c0.19-2.68,0.46-6.49,0.66-9.34
					v0.02c-0.11,1.4-0.3,3.87-0.4,5.17l0.33-4.85c-0.05,0.28-0.08,0.55-0.13,0.83c-0.09,1.21-0.19,2.43-0.28,3.68l0.22-3.21
					c-0.11,0.85-0.22,1.77-0.35,2.72c-0.36,3.81-0.73,7.47-0.85,9.53C592.78,702.84,592.13,719.67,592.48,736.52z"/>
			</g>
		</g>
	</g>
	<g>
		<g>
			<g>
				<path class="st0" d="M655.43,316.87c0.02,0.09,0.54-0.28-0.19,0.43c-2.31,2.19-4.31,3.68-6.64,5.87l-0.11,0.28
					c-1.83,1.6-3.76,3.28-5.72,4.96c-3.54,3.26-7.06,6.51-10.57,9.74c0.11-0.04,0.17-0.04-0.17,0.3c-0.25,0.23-0.21,0.21-0.24,0.21
					c-0.22,0.09-0.46,0.19-0.7,0.28c-0.51,0.21-1.04,0.45-1.61,0.7c-1.12,0.51-2.31,1.09-3.52,1.74c-0.35,0.21-0.71,0.43-1.04,0.62
					c-0.27,0.19-0.32,0.28-0.35,0.32c-1.07,0.64-2.02,1.21-2.89,1.79c-2.83,2-5.58,4.34-8.04,7.32c-0.63,0.72-1.17,1.6-1.75,2.38
					c-0.54,0.87-1.06,1.79-1.55,2.7l-0.65,1.51c-0.03,0.13-0.11,0.3-0.25,0.32l-2.21,0.89c-6.18,2.45-12.5,4.96-19.07,7.57
					c-2.77,1.17-5.55,2.32-8.22,3.38c-3.98,1.53-9.09,3.34-12.99,4.77c0.17,0.06-0.28,0.34-1.04,0.72c-0.4,0.19-0.84,0.4-1.3,0.64
					c-0.43,0.09-1.03-0.02-1.55,0c-2.15-0.02-4.09,0.32-3.11,0.51c-1.33,0-2.99,0.23-4.31,0.53c-0.65,0.19-1.23,0.36-1.67,0.51
					c-0.43,0.19-0.7,0.32-0.73,0.36c-0.25,0.32-0.84,0.74-2.07,1.68c-1.15,1-3.14,2.45-4.65,6.15c-0.33,0.68-0.49,1.64-0.79,2.49
					c-0.24,0.91-0.36,1.91-0.44,2.85c-0.16,1.89-0.08,3.55,0,4.17c0.13,1.04,0.08-0.21,0.09-1.32c0.02-1.13,0.13-2.21,0.14-1.28
					c0.05-3.15,0.73-6.11,2.09-8.36s3.4-3.79,5.63-4.72c2.24-0.94,4.66-1.32,7.09-1.36c1.22,0,2.45,0.04,3.62,0.21l0.4,0.06
					c0.16,0.02,0.32,0.06,0.47-0.02l0.68-0.26l0.92-0.34l1.85-0.68c9.84-3.68,19.7-7.36,29.78-11.13c1.75-0.68,5.91-2.28,11.36-4.36
					c0.46-0.17,0.92-0.34,1.37-0.51c0.17-0.06,0.35-0.13,0.51-0.19l0.27-0.62l0.47-1.06c0.17-0.38,0.35-0.79,0.52-1.19
					c0.22-0.36,0.44-0.74,0.66-1.13c0.87-1.53,2.02-2.94,3.25-4.32c2.5-2.7,5.58-4.98,8.77-6.94c1.61-0.96,3.26-1.85,4.93-2.64
					c0.87-0.4,1.6-0.74,2.58-1.11c0.21-0.04,0.4-0.17,0.55-0.36l0.35-0.32l0.55-0.51l1.11-1c2.94-2.68,5.78-5.26,8.41-7.66
					c5.26-4.77,9.67-8.77,12.25-11.08l0.93-0.85c5.59-5.04,12.36-11.26,16.99-15.7c2.09-2.04,4.25-4.17,6.4-6.3
					c-1.04,0.83-2.01,1.62-2.88,2.34c2.24-2.02,4.47-4.04,5.29-4.89c4.66-4.49,1.86-2.26-0.09-0.87c-1.37,1.09,0.32-0.72-1.82,1.02
					c1.49-1.34,2.23-2.02,3.73-3.36c0.11-0.28-4.55,4.23-3.62,3.11c1.45-1.26,3.02-2.79,4.5-4.13c-0.6,0.32-5.18,4.62-5.02,4.26
					c0.79-0.77,4.28-3.6,4.47-4.04c0.03-0.09-1.45,1.26-2.2,1.94c4.55-4.21,6.97-6.7,2.7-3.11c1.45-1.32,3.54-3.11,5.07-4.51h-0.02
					c-0.77,0.68-2.1,1.87-2.81,2.49l2.62-2.36c-0.16,0.11-0.33,0.21-0.49,0.34c-0.66,0.6-1.33,1.17-2.01,1.77l1.74-1.57
					c-0.51,0.36-1.03,0.77-1.56,1.17c-2.12,1.74-4.19,3.36-5.31,4.38C673.5,300.59,664.43,308.76,655.43,316.87z"/>
			</g>
		</g>
	</g>
	<g>
		<g>
			<g>
				<path class="st0" d="M533.24,411.19c-0.05-0.06-0.16,0-0.09-0.19c0.21-0.53,0.58-0.74,0.79-1.28c-0.02-0.04-0.05-0.09-0.06-0.11
					c0.24-0.34,0.49-0.68,0.74-1.04c0.38-0.74,0.74-1.49,1.11-2.26c-0.05,0-0.08-0.02-0.05-0.11c0.14-0.32,0.4-0.72,0.63-1.15
					c0.03-0.06,0.06-0.13,0.08-0.21c0.02-0.06-0.02-0.11-0.03-0.13c0.11-0.19,0.21-0.36,0.3-0.51c0.96-2.28,1.91-4.64,2.97-7.17
					c0.19-0.57,0.36-1.15,0.58-1.66c0.35-0.74,0.87-1.6,1.25-2.28c-0.35-0.17,0.4-2-0.08-1.96c0.25-0.45,0.63-1.13,0.55-1.26
					c-0.19-0.34-0.3-0.98,0.21-2.34c0.22-0.51,0.71-1.15,0.76-1.36c0.06-0.34-0.51,0.45-0.44,0.11c-1.98,3.47-3.68,6.98-5.58,10.55
					c-0.52,1.34-4.8,9.6-5.99,11.66c-0.03,0.06-0.06,0.13-0.09,0.19c-0.63,1.13-1.34,2.55-1.75,3.64c-0.17,0.51-0.32,1.04-0.47,1.57
					c0.16-0.17,0.32-0.32,0.44-0.43c-0.25,0.45-0.51,0.91-0.54,1.13c-0.4,1.11,0.05,0.68,0.46,0.51c0.24-0.19,0.17,0.32,0.49-0.02
					c-0.17,0.3-0.25,0.45-0.41,0.77c0.06,0.11,0.46-0.98,0.49-0.64c-0.19,0.26-0.32,0.64-0.47,0.94c0.17,0,0.6-1.02,0.7-0.87
					c-0.06,0.19-0.62,0.72-0.51,0.91c0.02,0.04,0.19-0.26,0.27-0.4c-0.46,0.98-0.6,1.64,0.02,0.91c-0.16,0.3-0.44,0.66-0.6,1l0,0
					c0.09-0.15,0.27-0.4,0.35-0.53c-0.09,0.17-0.19,0.36-0.3,0.53c0.03,0,0.06-0.02,0.11-0.04c0.09-0.13,0.17-0.23,0.25-0.38
					c-0.06,0.13-0.13,0.23-0.19,0.36c0.09-0.04,0.19-0.11,0.28-0.17c0.32-0.34,0.66-0.62,0.79-0.85
					C531.2,414.85,532.24,413.04,533.24,411.19z"/>
			</g>
		</g>
	</g>
	<g>
		<g>
			<g>
				<path class="st0" d="M545.47,402.27c0.05,0.04,0.16-0.02,0.11,0.17c-0.17,0.55-0.55,0.83-0.73,1.38
					c0.03,0.04,0.05,0.06,0.08,0.11c-0.22,0.36-0.46,0.74-0.68,1.15c-0.33,0.79-0.66,1.6-0.98,2.4c0.05,0,0.08,0.02,0.05,0.11
					c-0.13,0.34-0.35,0.77-0.57,1.21c-0.03,0.06-0.05,0.15-0.08,0.21c0,0.06,0.02,0.11,0.03,0.13c-0.09,0.21-0.19,0.38-0.27,0.55
					c-0.84,2.43-1.67,4.89-2.59,7.57c-0.16,0.6-0.32,1.19-0.51,1.74c-0.3,0.79-0.79,1.7-1.14,2.43c0.36,0.15-0.28,2.06,0.19,1.96
					c-0.22,0.49-0.57,1.21-0.49,1.32c0.22,0.32,0.35,0.96-0.08,2.38c-0.19,0.53-0.65,1.23-0.68,1.47c-0.05,0.36,0.49-0.51,0.44-0.17
					c1.79-3.72,3.3-7.49,5.01-11.3c0.44-1.43,4.3-10.26,5.37-12.47c0.03-0.06,0.06-0.15,0.09-0.21c0.57-1.21,1.2-2.72,1.55-3.87
					c0.14-0.53,0.27-1.11,0.4-1.66c-0.16,0.19-0.3,0.34-0.43,0.49c0.22-0.49,0.46-0.98,0.47-1.21c0.33-1.15-0.09-0.68-0.47-0.45
					c-0.22,0.21-0.19-0.3-0.49,0.09c0.16-0.32,0.22-0.49,0.38-0.81c-0.08-0.11-0.41,1.04-0.44,0.7c0.17-0.3,0.28-0.68,0.43-1
					c-0.17,0.02-0.55,1.11-0.65,0.96c0.05-0.19,0.57-0.79,0.46-0.98c-0.03-0.04-0.17,0.3-0.25,0.45c0.41-1.04,0.51-1.72-0.06-0.91
					c0.14-0.32,0.41-0.72,0.54-1.06l0,0c-0.08,0.17-0.24,0.43-0.32,0.6c0.09-0.19,0.17-0.38,0.27-0.57
					c-0.03,0.02-0.06,0.02-0.11,0.04c-0.08,0.13-0.16,0.26-0.24,0.4c0.06-0.13,0.11-0.26,0.17-0.38c-0.09,0.06-0.19,0.13-0.28,0.21
					c-0.3,0.38-0.63,0.7-0.74,0.94C547.3,398.34,546.35,400.29,545.47,402.27z"/>
			</g>
		</g>
	</g>
	<g>
		<g>
			<g>
				<path class="st0" d="M547.98,442.68c-0.05-0.06-0.17,0.02-0.08-0.21c0.36-0.72,0.85-1.06,1.2-1.79l-0.05-0.13
					c0.33-0.45,0.73-0.98,1.09-1.47c0.58-1,1.17-2.02,1.77-3.06c-0.05,0-0.08-0.02-0.03-0.13c0.24-0.45,0.62-0.98,0.98-1.57
					l0.14-0.28c0.03-0.09,0-0.13,0-0.17c0.16-0.26,0.32-0.49,0.46-0.7c0.38-0.72,0.76-1.47,1.15-2.21c0.19-0.38,0.4-0.77,0.6-1.15
					l0.3-0.6l0.52-0.94c0.05-1.11,0.09-2.23,0.13-3.4c0.05-1.02,0.13-2.09,0.21-3.17c0.03-0.87,0.06-1.77,0.16-2.6
					c0.16-1.23,0.54-2.72,0.82-3.87c-0.43,0.02,0.19-2.85-0.28-2.49c0.24-0.77,0.68-1.89,0.65-2c-0.09-0.19-0.17-0.49-0.08-1.04
					c0.11-0.53,0.28-1.36,1.22-2.38c0.38-0.38,1.04-0.7,1.64-0.7c0.62-0.02,1.04,0.23,1.22,0.23c0.19,0.02,0.03-0.15-0.33-0.32
					c-0.32-0.19-0.7-0.26-0.36-0.32c-1.11-0.21-2.2,0.47-2.83,1.23c-0.68,0.77-1.09,1.57-1.45,2.36c-0.71,1.6-1.12,3.17-1.5,4.74
					c-0.71,3.15-1.14,6.28-1.52,9.49c-0.02,0.32-0.05,0.74-0.08,1.28c-0.02,0.3-0.05,0.62-0.06,0.96c-0.02,0.17-0.02,0.34-0.03,0.51
					v0.04c0.11-0.17-0.36,0.64-0.68,1.17c-0.35,0.6-0.71,1.21-1.09,1.83c-0.76,1.28-1.56,2.62-2.32,3.89
					c-1.53,2.55-2.95,4.87-3.65,5.96l-0.16,0.28c-0.98,1.55-2.12,3.51-2.83,4.96c-0.27,0.64-0.6,1.38-0.9,2.11
					c0.21-0.21,0.41-0.43,0.62-0.64c-0.4,0.62-0.77,1.26-0.88,1.55c-0.7,1.49-0.09,0.87,0.41,0.57c0.32-0.28,0.13,0.36,0.57-0.13
					c-0.25,0.43-0.4,0.62-0.65,1.04c0.05,0.13,0.74-1.34,0.7-0.91c-0.28,0.36-0.51,0.87-0.76,1.3c0.19-0.02,0.93-1.4,1-1.23
					c-0.11,0.26-0.87,1.02-0.77,1.26c0.02,0.04,0.28-0.36,0.41-0.57c-0.74,1.34-1.06,2.19-0.19,1.17c-0.25,0.4-0.66,0.91-0.92,1.38
					l0,0c0.13-0.19,0.4-0.6,0.52-0.74l-0.46,0.72l0.13-0.06c0.13-0.17,0.25-0.34,0.38-0.53l-0.3,0.49c0.11-0.09,0.25-0.17,0.38-0.28
					c0.44-0.49,0.9-0.91,1.11-1.21C544.82,447.72,546.42,445.21,547.98,442.68z"/>
			</g>
		</g>
	</g>
	<g>
		<g>
			<g>
				<path class="st0" d="M551.33,396.98c0.02,0.09,0.09,0.15,0,0.21c-0.28,0.21-0.63,0.04-0.87,0.32l0.03,0.15
					c-0.22,0.09-0.49,0.21-0.73,0.32c-0.36,0.36-0.68,0.77-1,1.17c0.03,0.02,0.06,0.06,0.05,0.11c-0.09,0.19-0.28,0.38-0.46,0.62
					L548.3,400c0,0.04,0.02,0.09,0.03,0.11c-0.06,0.09-0.14,0.17-0.22,0.28c-0.32,0.68-0.54,1.4-0.79,2.11
					c-0.19,0.72-0.4,1.47-0.58,2.23c-0.05,0.34-0.05,0.7-0.13,1.02c-0.11,0.45-0.38,0.94-0.54,1.34c0.35,0.15,0.17,1.23,0.58,1.23
					c-0.09,0.28-0.22,0.68-0.14,0.74c0.27,0.23,0.54,0.62,0.49,1.43c-0.05,0.3-0.3,0.66-0.27,0.79c0.05,0.19,0.32-0.26,0.36-0.06
					c0.71-2,1.2-4.04,2.04-5.85c0.06-0.38,0.55-1.64,1.22-2.66c0.65-1.11,1.47-1.7,1.77-1.74l0.05-0.02c0.33-0.15,0.68-0.17,1-0.28
					c0.14-0.09,0.32-0.17,0.51-0.19l-0.13-0.32c0.16,0.11,0.32,0.17,0.4,0.15c0.41,0.06,0.33-0.28,0.28-0.68
					c-0.06-0.21,0.17-0.3,0.03-0.57c0.14,0.11,0.21,0.15,0.33,0.26c0.06-0.11-0.44-0.26-0.28-0.38c0.11,0.15,0.3,0.17,0.44,0.3
					c0.03-0.21-0.47-0.45-0.4-0.57c0.11,0.02,0.33,0.51,0.44,0.34c0.03-0.04-0.13-0.15-0.19-0.21c0.47,0.28,0.84,0.4,0.51-0.23
					c0.16,0.15,0.3,0.4,0.51,0.62l0,0c-0.11-0.15-0.21-0.3-0.28-0.4c0.09,0.11,0.16,0.17,0.28,0.34l-0.02-0.15
					c-0.06-0.11-0.11-0.19-0.19-0.28l0.17,0.21c-0.02-0.11-0.03-0.23-0.06-0.34c-0.16-0.34-0.3-0.74-0.44-0.83
					C554.07,396.74,552.56,396.46,551.33,396.98z"/>
			</g>
		</g>
	</g>
	<g>
		<g>
			<g>
				<path class="st0" d="M564.79,438.17c0.05,0.06,0.17,0.02,0.05,0.21c-0.4,0.6-0.9,0.81-1.3,1.4l0.03,0.15
					c-0.36,0.34-0.77,0.77-1.15,1.13c-0.63,0.81-1.28,1.64-1.94,2.49c0.05,0.02,0.08,0.04,0.02,0.13c-0.25,0.36-0.66,0.79-1.06,1.26
					l-0.16,0.23c-0.03,0.09-0.02,0.13-0.02,0.15c-0.17,0.19-0.33,0.38-0.51,0.57c-1.74,2.51-3.6,5.23-5.55,8.06
					c-0.38,0.64-0.76,1.3-1.17,1.87c-0.62,0.83-1.47,1.79-2.1,2.55c0.35,0.23-1.04,2.32-0.49,2.3c-0.41,0.51-1.04,1.28-1,1.43
					c0.13,0.43,0.03,1.17-0.87,2.72c-0.17,0.28-0.47,0.64-0.66,0.87c-0.19,0.23-0.35,0.45-0.38,0.55c-0.09,0.34,0.58-0.43,0.47-0.06
					c0.62-0.85,1.47-1.91,2.21-2.87l2.31-2.96c1.56-1.96,3.13-3.94,4.71-5.94c0.98-1.53,8.37-10.68,10.35-12.94l0.17-0.21
					c1.06-1.26,2.31-2.81,3.11-4.02c0.32-0.53,0.68-1.17,1.04-1.79c-0.22,0.15-0.43,0.3-0.65,0.45c0.43-0.49,0.85-1,0.96-1.26
					c0.79-1.23,0.16-0.81-0.35-0.64c-0.32,0.19-0.09-0.38-0.55-0.02c0.28-0.34,0.43-0.49,0.71-0.83c-0.03-0.15-0.82,1.09-0.74,0.68
					c0.3-0.28,0.55-0.72,0.84-1.04c-0.19-0.02-1.01,1.11-1.06,0.94c0.13-0.21,0.92-0.77,0.85-1c-0.02-0.04-0.3,0.28-0.44,0.45
					c0.82-1.09,1.19-1.83,0.28-1.06c0.28-0.32,0.71-0.72,0.98-1.09l0,0c-0.14,0.15-0.44,0.47-0.55,0.6l0.51-0.57l-0.13,0.02
					c-0.14,0.13-0.27,0.26-0.4,0.4l0.33-0.38c-0.13,0.04-0.25,0.11-0.38,0.17c-0.46,0.36-0.95,0.64-1.15,0.89
					C568.24,434.12,566.5,436.12,564.79,438.17z"/>
			</g>
		</g>
	</g>
	<g>
		<g>
			<path class="st1" d="M603.98,448.95"/>
		</g>
	</g>
	<g>
		<g>
			<g>
				<path class="st0" d="M636.58,434.29c-0.03-0.09-0.63,0.85,0.21-0.7c1.11-2.02,2.16-3.83,3.21-5.62c1-1.7,1.99-3.4,3.02-5.17
					c0.51-0.51,1.03-1.02,1.56-1.55l0.21-0.36c2.83-2.68,5.77-5.51,8.79-8.36c5.47-5.4,10.9-10.79,16.32-16.15
					c-0.16,0.11-0.25,0.13,0.28-0.43c2.28-2.21,5.39-5.28,8.64-8.45c0.47-0.47,0.95-0.96,1.42-1.43c0.35-0.38,0.43-0.51,0.47-0.6
					c1.47-1.43,2.78-2.7,4-3.87c6.42-6.45,12.86-12.91,19.48-19.57c3.3-3.32,6.65-6.7,10.07-10.11c1.71-1.72,3.41-3.45,5.15-5.19
					c1.6-1.64,3.19-3.3,4.82-4.98c0.66,0.34,1.36,0.7,2.07,1.09c0.87,0.45,1.77,0.87,2.7,1.3c1.85,0.85,3.79,1.66,5.78,2.36
					c2.26,0.72,4.55,1.32,6.92,1.34c1.17-0.02,2.4-0.15,3.56-0.98c0.58-0.36,1.06-1.09,1.39-1.85c0.25-0.83,0.38-1.7,0.33-2.51
					c-0.02-1.23-0.32-2.38-0.57-3.47c-0.27-1.13-0.54-2.28-0.81-3.43c-0.65-2.28-1.23-4.68-2.05-6.94
					c-1.49-4.62-3.35-8.98-5.25-12.49c0.14,0.68-2.04-3.3-4.5-6.47c-2.4-3.21-4.91-5.7-3.86-4.17c-1.55-1.94-3.7-4-5.48-5.62
					c-1.82-1.55-3.29-2.62-3.46-2.64c-0.51-0.15-1.5-0.64-3.65-1.77c-2.16-1.11-5.51-2.83-10.92-4.45c-2.1-0.64-4.8-1.32-7.17-1.68
					c-2.37-0.38-4.42-0.45-5.12-0.38c-0.62,0.06-0.55,0.09-0.17,0.11c0.35,0.02,1.03,0.06,1.72,0.13c1.37,0.13,2.77,0.38,1.58,0.32
					c7.65,0.79,15.15,3.57,21.88,8.17c6.73,4.62,12.61,11.3,17.03,19.47c2.23,4.06,4.11,8.49,5.61,13.17
					c0.41,1.15,0.74,2.34,1.07,3.53c0.35,1.19,0.7,2.38,0.96,3.6l0.85,3.64c0.22,1.04,0.22,1.98,0.08,2.45
					c-0.05,0.85-1.83,1.45-3.59,1.23c-1.77-0.11-3.63-0.66-5.48-1.28c-1.85-0.64-3.68-1.43-5.51-2.28
					c-0.92-0.43-1.83-0.89-2.73-1.36l-1.36-0.72l-2.2-1.26c-1.22,1.23-2.46,2.49-3.71,3.74c-3.92,4.15-18.27,18.19-34.29,34.02
					c-16.12,15.83-33.96,33.38-44.95,44.17c-2.2,3.87-4,7.04-5.37,9.45l-1.07,1.89c-3.08,5.45-6.48,11.47-9.78,17.3
					c-3.22,5.79-6.34,11.38-8.99,16.15c-0.3,0.3-0.57,0.57-0.84,0.85c-3.27,3.34-6.64,6.77-9.97,10.17c1.6-1.45,3.1-2.81,4.41-3.98
					c-3.46,3.34-6.9,6.7-8.2,8.04c-7.25,7.32-2.99,3.47-0.02,0.98c2.1-1.85-0.55,1,2.69-1.98c-2.29,2.23-3.44,3.34-5.75,5.57
					c-0.21,0.36,7.05-6.94,5.55-5.21c-2.23,2.11-4.68,4.6-6.97,6.81c0.88-0.62,8-7.68,7.71-7.19c-1.22,1.23-6.56,6.06-6.9,6.7
					c-0.06,0.13,2.23-2.11,3.38-3.21c-7.05,6.94-10.84,10.91-4.28,4.83c-2.24,2.15-5.44,5.21-7.82,7.51l0.02-0.02
					c1.19-1.13,3.24-3.11,4.35-4.15l-4.04,3.91c0.24-0.19,0.49-0.4,0.74-0.62c1.03-0.98,2.04-1.94,3.08-2.94
					c-0.88,0.87-1.79,1.72-2.69,2.6c0.73-0.64,1.53-1.32,2.37-2.04c3.25-2.98,6.4-5.77,8.12-7.45c5.67-5.47,11.36-10.96,17.05-16.45
					C624.02,456.42,630.3,445.34,636.58,434.29z"/>
			</g>
		</g>
	</g>
	<g>
		<g>
			<g>
				<path class="st0" d="M717.51,250.55c0.03,0.06,0.21,0,0.03,0.23c-0.55,0.72-1.15,1.02-1.71,1.74c0.02,0.04,0.02,0.11,0.02,0.15
					c-0.49,0.47-1,0.94-1.52,1.43c-0.88,1-1.75,2.02-2.62,3.04c0.05,0.02,0.08,0.04,0,0.15c-0.35,0.45-0.88,0.98-1.42,1.55
					c-0.08,0.09-0.14,0.19-0.22,0.28c-0.05,0.09-0.03,0.15-0.03,0.17c-0.24,0.26-0.46,0.49-0.66,0.7c-2.46,3.11-4.95,6.28-7.66,9.7
					c-0.54,0.77-1.09,1.53-1.64,2.23c-0.84,1-1.98,2.15-2.83,3.09c0.36,0.23-1.58,2.7-0.93,2.62c-0.57,0.62-1.42,1.53-1.39,1.7
					c0.06,0.47-0.14,1.32-1.5,3.17c-0.55,0.7-1.53,1.55-1.69,1.85c-0.25,0.47,0.9-0.62,0.63-0.15c4.41-4.7,8.49-9.47,12.85-14.32
					c1.37-1.81,11.34-13.02,13.97-15.81c0.08-0.09,0.16-0.17,0.24-0.26c1.42-1.53,3.1-3.47,4.2-4.94c0.49-0.7,0.98-1.43,1.47-2.13
					c-0.3,0.21-0.57,0.43-0.81,0.6c0.57-0.62,1.14-1.23,1.31-1.53c1.09-1.49,0.3-0.94-0.32-0.68c-0.4,0.26-0.06-0.43-0.65,0.04
					c0.38-0.4,0.57-0.62,0.95-1.02c-0.02-0.15-1.12,1.34-0.96,0.87c0.38-0.36,0.74-0.87,1.12-1.28c-0.22,0-1.33,1.38-1.36,1.17
					c0.17-0.26,1.17-0.98,1.14-1.23c0-0.04-0.38,0.36-0.57,0.55c1.12-1.34,1.64-2.21,0.47-1.23c0.36-0.4,0.93-0.89,1.3-1.36l0,0
					c-0.19,0.21-0.55,0.53-0.73,0.74c0.22-0.23,0.44-0.49,0.66-0.72c-0.05,0.02-0.11,0.04-0.16,0.04c-0.17,0.17-0.35,0.32-0.52,0.51
					c0.14-0.15,0.3-0.32,0.44-0.47c-0.14,0.06-0.3,0.15-0.47,0.26c-0.58,0.47-1.19,0.85-1.47,1.15
					C722.09,245.57,719.77,248.04,717.51,250.55z"/>
			</g>
		</g>
	</g>
	<g>
		<g>
			<g>
				<path class="st0" d="M746.35,252.13c0.03-0.06-0.16-0.28,0.19-0.13c1.11,0.55,1.88,1.34,2.95,1.96l0.13-0.09
					c0.81,0.55,1.61,1.23,2.46,1.87c1.58,1.09,3.14,2.19,4.66,3.36c-0.02-0.09-0.02-0.13,0.14-0.02c0.65,0.45,1.47,1.26,2.35,2.02
					l0.4,0.32c0.11,0.06,0.16,0.04,0.19,0.04c0.38,0.36,0.73,0.7,1.04,1c2.18,1.85,4.28,3.87,6.32,6.17c2.07,2.26,4,4.87,5.83,7.79
					c0.4,0.62,0.81,1.23,1.19,1.83c0.38,0.64,0.71,1.28,1.04,1.94c0.51,0.94,0.96,2.11,1.41,3.28c0.47,1.15,0.84,2.36,1.15,3.4
					c0.09-0.26,0.66,0.85,1.07,1.91c0.41,1.09,0.81,2.11,0.85,1.49c0.41,1.45,0.73,3.72,0.85,3.81c0.17,0.13,0.41,0.47,0.71,1.26
					c0.28,0.81,0.52,2.13,0.84,4.19c0.14,1.64,0.06,4.17,0.16,4.74c0.13,0.91,0.16-2.13,0.28-1.23c-0.05-6.17-1.06-12.21-2.89-17.77
					c-1.83-5.55-4.39-10.62-7.51-15.08c-0.57-0.7-1.88-2.55-3.74-4.72c-1.88-2.15-4.27-4.7-6.86-6.98
					c-5.17-4.66-11.01-8.36-13.41-9.81l-0.44-0.26c-2.62-1.57-5.89-3.21-8.25-4.09c-1.07-0.38-2.18-0.72-3.29-1.02
					c0.49,0.28,0.93,0.55,1.31,0.81c-1.09-0.49-2.18-0.94-2.62-1.02c-2.39-0.7-1.11,0.04-0.28,0.72c0.62,0.38-0.3,0.26,0.66,0.81
					c-0.73-0.3-1.07-0.43-1.8-0.72c-0.11,0.09,2.24,0.81,1.69,0.83c-0.68-0.32-1.49-0.55-2.2-0.83c0.22,0.26,2.5,1.02,2.34,1.17
					c-0.4-0.13-1.98-1.04-2.16-0.87c-0.03,0.04,0.68,0.32,1.04,0.47c-2.24-0.79-3.51-0.98-1.53-0.02c-0.7-0.26-1.69-0.72-2.42-0.89
					l0,0c0.35,0.13,1.01,0.38,1.34,0.49l-1.26-0.43l0.21,0.17c0.35,0.13,0.65,0.26,0.95,0.36l-0.84-0.3
					c0.19,0.15,0.43,0.3,0.68,0.45c0.96,0.49,1.88,1.04,2.42,1.28C737.97,247.57,742.24,249.7,746.35,252.13z"/>
			</g>
		</g>
	</g>
	<g>
		<g>
			<g>
				<path class="st0" d="M771.99,313.47c0.03,0.09,0.17,0.04,0.02,0.23c-0.52,0.53-1.07,0.68-1.58,1.21l0.02,0.15
					c-0.43,0.3-0.93,0.64-1.39,0.98c-0.79,0.74-1.6,1.49-2.42,2.26c0.05,0.02,0.08,0.06,0,0.15c-0.32,0.34-0.81,0.7-1.3,1.13
					l-0.21,0.21c-0.05,0.09-0.03,0.13-0.03,0.17c-0.22,0.17-0.41,0.34-0.6,0.51c-2.26,2.38-4.5,4.87-6.9,7.66
					c-0.47,0.64-0.95,1.28-1.44,1.85c-0.73,0.83-1.72,1.77-2.45,2.55c0.33,0.26-1.25,2.4-0.66,2.38c-0.47,0.53-1.12,1.38-1.09,1.51
					c0.14,0.43-0.03,1.21-0.77,2.85c-0.11,0.3-0.35,0.66-0.43,0.87c-0.06,0.13-0.11,0.23-0.09,0.23c0,0.02-0.02,0.02-0.02,0.02
					c-0.06,0-0.14,0.02-0.24,0.02h0.24l0,0l0,0l0,0l0,0l0,0l0,0v0.02l0.02,0.02c0,0.02,0.02,0.02,0.02,0.02
					c0.02,0,0.03-0.02,0.03-0.06l0.02-0.02l0,0l0,0l0,0h-0.33h0.02h0.02h0.03h0.16l0.21,0.02c0.03,0.04,0.11-0.02,0.14,0.06
					c0.11-0.26,0.33-0.79,0.68-1.3c0.3-0.51,0.7-1.04,1.07-1.55c0.77-1.04,1.63-2.04,2.5-3.02c1.74-1.98,3.57-3.87,5.5-5.74
					c1.15-1.53,10.19-9.81,12.64-11.7l0.21-0.19c1.3-1.09,2.86-2.45,3.89-3.53c0.43-0.49,0.9-1.06,1.37-1.62
					c-0.25,0.11-0.51,0.23-0.74,0.34c0.52-0.43,1.06-0.85,1.22-1.09c1.03-1.11,0.3-0.79-0.25-0.72c-0.36,0.13-0.03-0.4-0.57-0.13
					c0.35-0.28,0.52-0.43,0.88-0.7c-0.02-0.15-1.04,0.96-0.9,0.55c0.36-0.23,0.7-0.62,1.06-0.89c-0.19-0.06-1.23,0.94-1.26,0.74
					c0.17-0.19,1.07-0.6,1.06-0.85c0-0.04-0.36,0.23-0.54,0.38c1.04-0.96,1.56-1.62,0.47-1.02c0.35-0.28,0.87-0.6,1.22-0.91l0,0
					c-0.17,0.13-0.54,0.38-0.68,0.49l0.63-0.49h-0.14c-0.16,0.11-0.33,0.21-0.49,0.34l0.41-0.32c-0.13,0.02-0.28,0.04-0.43,0.11
					c-0.55,0.28-1.09,0.47-1.36,0.68C776.24,309.95,774.09,311.68,771.99,313.47z"/>
			</g>
		</g>
	</g>
	<path class="st1" d="M888.39,102.15c0,0-66.36,51.06-74.26,70.21"/>
	<g>
		<g>
			<g>
				<path class="st0" d="M749.38,222.93c-0.03-0.09-0.32,0.11,0.05-0.32c1.2-1.34,2.32-2.13,3.52-3.47l0.03-0.19
					c0.98-0.91,2.04-1.89,3.08-2.87c1.88-1.91,3.74-3.81,5.63-5.72c-0.08,0-0.11,0,0.06-0.21c0.77-0.81,1.88-1.83,3.02-2.91
					l0.49-0.51c0.11-0.15,0.13-0.21,0.14-0.28c0.52-0.49,0.98-0.91,1.41-1.32c5.47-5.57,11.06-11.15,17.33-16.79
					c1.3-1.26,2.62-2.47,3.92-3.57c1.94-1.62,4.5-3.45,6.48-4.81c-0.49-0.26,4.3-3.7,3.18-3.51c1.36-0.83,3.41-2.02,3.51-2.15
					c0.24-0.49,1.06-1.79,5.07-3.36c0.77-0.32,1.86-0.4,2.8-0.49c0.96,0,1.83,0.21,2.15,0.19c1.01,0-2.32-0.57-1.31-0.57
					c-3.4-0.15-6.19,1.28-8.93,2.66c-2.73,1.43-5.29,3.13-7.82,4.94c-5.04,3.64-9.88,7.68-14.74,11.91
					c-1.61,1.53-7.95,7.28-14.43,13.6c-6.48,6.3-13.13,13.08-15.85,15.85l-0.49,0.51c-2.97,3.02-6.51,6.81-8.88,9.57
					c-1.04,1.28-2.15,2.64-3.24,3.98c0.55-0.49,1.07-0.94,1.56-1.36c-1.17,1.23-2.32,2.49-2.73,3.04c-2.37,2.85-0.85,1.51,0.25,0.74
					c0.74-0.62-0.06,0.55,1.07-0.49c-0.77,0.83-1.15,1.23-1.93,2.09c-0.03,0.19,2.34-2.64,1.91-1.87c-0.77,0.77-1.55,1.72-2.32,2.55
					c0.35-0.15,2.7-2.85,2.67-2.57c-0.4,0.49-2.28,2.15-2.32,2.49c0,0.06,0.76-0.77,1.15-1.17c-2.34,2.64-3.52,4.23-1.25,2.06
					c-0.74,0.81-1.85,1.89-2.62,2.79l0,0c0.4-0.4,1.11-1.15,1.45-1.53l-1.34,1.47l0.28-0.19c0.36-0.38,0.7-0.72,1.04-1.09l-0.9,0.98
					l0.85-0.66c1.12-1.04,2.24-2,2.83-2.62C739.88,232.76,744.64,227.83,749.38,222.93z"/>
			</g>
		</g>
	</g>
	<g>
		<g>
			<g>
				<path class="st0" d="M820.39,289.34c-0.02-0.09-0.47,0.09,0.21-0.34c2.16-1.32,4-2.06,6.16-3.38l0.11-0.21
					c1.71-0.89,3.48-1.89,5.28-2.89c3.29-1.98,6.56-3.94,9.76-6.04c-0.09,0-0.16-0.02,0.16-0.23c1.33-0.87,3.21-2,5.14-3.19
					c0.28-0.19,0.57-0.36,0.84-0.55c0.21-0.17,0.25-0.23,0.27-0.3c0.87-0.55,1.64-1.04,2.35-1.51c4.65-3.23,9.32-6.45,14.02-10.02
					c4.76-3.43,9.48-7.3,14.41-11.23c2.07-1.7,4.06-3.62,6.04-5.3c1.49-1.23,3.14-2.62,4.82-4c1.63-1.47,3.25-2.94,4.66-4.21
					c-0.63-0.02,6.05-6.47,4.49-5.62c1.77-1.85,4.44-4.62,4.52-4.87c0.11-0.38,0.46-1.02,1.33-2.19c0.44-0.6,1.01-1.32,1.77-2.21
					c0.74-0.89,1.58-2.11,2.64-3.49c1.67-2.13,4.39-5.21,4.96-6.02c0.87-1.26-2.37,2.51-1.49,1.23c-3.19,3.83-6.26,7.79-9.7,11.15
					c-1.67,1.74-3.35,3.49-5.02,5.23l-5.25,4.85c-3.44,3.32-7.09,6.26-10.73,9.3c-3.59,3.13-7.41,5.81-11.17,8.74
					c-2.51,2.11-12.64,9.43-23.48,16.51c-10.87,7-22.42,13.74-27.19,16.34l-0.85,0.49c-5.15,2.87-11.34,6.32-15.88,8.85
					c-1.98,1.15-4.03,2.36-6.07,3.55c0.96-0.4,1.86-0.77,2.69-1.11c-2.1,1.06-4.2,2.13-4.99,2.62c-4.44,2.43-1.83,1.4-0.02,0.85
					c1.28-0.49-0.33,0.57,1.64-0.28c-1.41,0.7-2.12,1.04-3.52,1.74c-0.13,0.21,4.31-2.23,3.4-1.53c-1.36,0.64-2.86,1.47-4.27,2.15
					c0.54-0.06,4.9-2.36,4.72-2.09c-0.74,0.45-4.01,1.72-4.23,2.09c-0.05,0.06,1.37-0.62,2.07-0.96c-4.31,2.23-6.67,3.57-2.62,1.89
					c-1.37,0.64-3.35,1.55-4.82,2.23h0.02c0.73-0.34,2.01-0.91,2.69-1.21l-2.5,1.19c0.16-0.04,0.3-0.09,0.46-0.11
					c0.65-0.3,1.26-0.57,1.9-0.85l-1.66,0.79c0.47-0.15,0.96-0.32,1.47-0.47c2.01-0.79,3.92-1.53,4.99-2.04
					C803.48,298.51,811.98,294.02,820.39,289.34z"/>
			</g>
		</g>
	</g>
	<line class="st2" x1="999" y1="142.57" x2="923.16" y2="206.4"/>
	<g>
		<g>
			<g>
				<path class="st0" d="M37.24,148.21c0.06-0.04-0.43-0.77,0.43,0.23c2.67,3.17,4.65,5.98,7.33,9.15l0.25,0.13
					c2.01,2.53,4.11,5.19,6.24,7.89c4.01,4.85,8.01,9.68,12.01,14.51c-0.08-0.17-0.11-0.26,0.3,0.21c1.66,2.02,3.93,4.81,6.29,7.7
					c0.35,0.43,0.71,0.83,1.06,1.26c0.28,0.3,0.38,0.36,0.44,0.38c1.06,1.32,2.01,2.47,2.89,3.55
					c11.79,13.94,23.78,28.02,36.85,43.21c2.81,3.21,5.61,6.4,8.25,9.43c3.92,4.64,8.9,10.55,12.7,15.08
					c-0.36-1.04,9.12,9.68,7.49,7.13c2.56,2.98,6.42,7.45,6.68,7.55c0.81,0.34,2.99,2.34,10.05,9.74c1.37,1.47,3.11,3.32,4.63,4.89
					c0.77,0.74,1.49,1.43,2.05,1.98c0.54,0.43,0.92,0.68,1.14,0.83c0.47,0.17,0.44,0.13,0.16-0.04c-0.28-0.17-0.58-0.53-0.98-0.81
					c-0.84-0.81-1.72-1.77-0.92-1.09c-2.58-2.4-5.09-5.23-7.6-7.94c-2.5-2.77-4.96-5.55-7.41-8.36c-4.91-5.6-9.76-11.23-14.62-16.91
					c-9.69-11.34-19.34-22.81-29.17-34.62c-6.84-7.79-51.76-62.25-63.16-76.45l-1.04-1.28c-6.26-7.7-13.87-17-19.26-23.36
					c-2.46-2.87-5.02-5.83-7.55-8.77c1.09,1.45,2.1,2.81,3,4.02c-2.5-3.09-4.99-6.17-5.99-7.3c-5.42-6.4-2.53-2.51-0.65,0.26
					c1.41,1.91-0.71-0.36,1.53,2.6c-1.66-2.06-2.5-3.09-4.16-5.15c-0.25-0.13,5.17,6.28,3.89,5.02c-1.58-2.02-3.41-4.17-5.07-6.21
					c0.47,0.85,5.74,7.15,5.39,6.98c-0.92-1.09-4.55-5.96-4.99-6.17c-0.09-0.04,1.58,2.02,2.4,3.04c-5.17-6.26-8.09-9.6-3.54-3.64
					c-1.61-2.02-3.89-4.87-5.59-7.02l0.02,0.02c0.84,1.06,2.32,2.91,3.1,3.89l-2.92-3.62c0.14,0.23,0.3,0.47,0.46,0.7
					c0.73,0.91,1.45,1.83,2.2,2.79l-1.94-2.4c0.49,0.68,1,1.43,1.55,2.19c2.23,2.96,4.33,5.85,5.58,7.38
					C17.04,123.32,27.16,135.83,37.24,148.21z"/>
			</g>
		</g>
	</g>
	<g>
		<g>
			<g>
				<path class="st0" d="M209.74,337.08c0.05-0.06-0.35-0.49,0.33,0.02c2.13,1.66,3.71,3.3,5.85,4.96h0.21
					c1.6,1.38,3.27,2.85,4.98,4.32c3.21,2.57,6.38,5.13,9.58,7.7c-0.06-0.11-0.08-0.19,0.24,0.06c1.33,1.04,3.13,2.57,5.02,4.11
					c0.28,0.21,0.57,0.45,0.84,0.66c0.22,0.15,0.3,0.15,0.35,0.15c0.85,0.7,1.6,1.32,2.31,1.91c9.4,7.28,18.98,14.57,29.41,22.38
					c2.26,1.64,4.52,3.28,6.59,4.77c3.14,2.43,7.11,5.49,10.16,7.83c-0.3-0.77,7.28,4.6,5.96,3.04c2.05,1.51,5.14,3.77,5.36,3.74
					c0.63-0.06,2.37,0.77,7.98,4.13c1.09,0.68,2.46,1.51,3.67,2.17c0.58,0.28,1.15,0.6,1.56,0.74c0.35,0.09,0.6,0.15,0.77,0.19
					c0.33-0.04,0.32-0.06,0.09-0.11c-0.21-0.04-0.43-0.19-0.7-0.28c-0.22-0.04-0.63-0.34-0.77-0.43c-0.17-0.13-0.19-0.17,0.11-0.06
					c-3.95-1.94-7.98-4.85-11.88-7.57c-3.92-2.77-7.81-5.66-11.68-8.55c-7.74-5.81-15.45-11.79-23.29-17.98
					c-2.72-2-13.07-10.15-23.83-18.83c-10.78-8.68-21.98-17.87-26.53-21.68l-0.84-0.68c-4.98-4.13-11.04-9.11-15.34-12.45
					c-1.96-1.47-3.98-3-6-4.53c0.85,0.81,1.66,1.57,2.39,2.28c-1.99-1.66-3.98-3.34-4.77-3.89c-4.31-3.36-2.02-1.15-0.52,0.49
					c1.12,1.11-0.55-0.02,1.22,1.64c-1.33-1.11-1.98-1.66-3.3-2.79c-0.21,0,4.11,3.34,3.1,2.77c-1.25-1.11-2.72-2.23-4.04-3.34
					c0.38,0.55,4.57,3.89,4.28,3.87c-0.73-0.55-3.63-3.32-3.97-3.34c-0.06,0,1.25,1.11,1.91,1.66c-4.11-3.34-6.45-5.04-2.81-1.7
					c-1.3-1.09-3.08-2.7-4.46-3.81l0.02,0.02c0.66,0.57,1.85,1.6,2.46,2.13l-2.32-1.96c0.13,0.13,0.24,0.28,0.36,0.43
					c0.58,0.51,1.15,1.02,1.74,1.53l-1.55-1.3c0.4,0.43,0.81,0.85,1.23,1.28c1.79,1.66,3.46,3.32,4.44,4.15
					C193.65,323.68,201.69,330.42,209.74,337.08z"/>
			</g>
		</g>
	</g>
	<g>
		<g>
			<g>
				<path class="st0" d="M336.85,442.87c0.05-0.06-0.08-0.36,0.22,0c0.95,1.11,1.55,2.19,2.51,3.28l0.14-0.02
					c0.68,0.91,1.39,1.89,2.16,2.81c1.49,1.57,2.89,3.26,4.44,4.68c-0.02-0.09-0.02-0.13,0.14,0c0.63,0.6,1.47,1.51,2.37,2.43
					l0.41,0.38c0.11,0.09,0.16,0.06,0.19,0.06c0.41,0.4,0.74,0.79,1.09,1.11c4.61,3.96,9.39,7.74,14.74,11.34
					c1.15,0.7,2.31,1.43,3.4,2.17c1.58,1.17,3.65,2.53,5.2,3.62c-0.08-0.6,3.82,1.74,3.22,0.79c1.03,0.74,2.64,1.68,2.77,1.6
					c0.38-0.23,1.34-0.17,4.23,1.28c1.12,0.6,2.77,1.79,3.18,1.94c0.65,0.23-1.34-1.13-0.7-0.87c-8.18-4.89-15.99-9.85-23.76-15.98
					c-0.68-0.49-2.28-1.77-4.39-3.45c-2.09-1.72-4.61-4.02-7.14-6.4c-5.09-4.79-9.91-10.66-11.8-13.11
					c-0.13-0.15-0.24-0.3-0.35-0.45c-2.04-2.72-4.47-6.11-6.1-8.51c-0.77-1.09-1.58-2.17-2.32-3.32c0.25,0.6,0.49,1.15,0.71,1.7
					c-0.68-1.26-1.37-2.49-1.67-2.94c-1.5-2.62-0.88-0.94-0.55,0.32c0.3,0.85-0.38-0.04,0.17,1.21c-0.47-0.83-0.66-1.3-1.11-2.17
					c-0.14-0.02,1.41,2.64,0.96,2.15c-0.47-0.91-0.93-1.79-1.36-2.64c0.03,0.4,1.49,3.06,1.33,3.02c-0.3-0.4-1.11-2.6-1.33-2.62
					c-0.05,0,0.4,0.87,0.62,1.32c-1.42-2.64-2.2-4.17-1.2-1.45c-0.41-0.91-0.92-2.19-1.33-3.26l0,0c0.21,0.57,0.51,1.4,0.71,1.85
					c-0.24-0.55-0.46-1.09-0.7-1.7l0.06,0.36c0.16,0.43,0.3,0.87,0.49,1.3c-0.16-0.36-0.3-0.74-0.46-1.13
					c0.06,0.32,0.16,0.68,0.25,1.06c0.47,1.38,0.93,2.7,1.28,3.36C330.18,433.46,333.41,438.36,336.85,442.87z"/>
			</g>
		</g>
	</g>
	<g>
		<g>
			<g>
				<path class="st0" d="M396.69,471.87c0.06,0.04,0.14,0.04,0.14,0.11c0.06-0.06-0.17,0.32-0.35,0.6
					c-0.16,0.26-0.35,0.53-0.54,0.81c-0.35,0.53-0.71,1.06-1.04,1.72l0.03,0.17c-0.57,0.94-1.2,1.91-1.79,2.94
					c-1.04,1.94-2.02,3.91-2.97,5.91c0.06-0.02,0.09-0.02,0.02,0.19c-0.43,0.87-0.96,1.96-1.55,3.13l-0.24,0.53
					c-0.05,0.15-0.03,0.21-0.03,0.26c-0.25,0.53-0.49,1-0.71,1.45c-2.56,6.02-4.93,12.34-7,19.43c-0.44,1.49-0.74,3.09-1.14,4.53
					c-0.65,2.13-1.33,4.91-1.85,7.04c0.33-0.21-0.41,5.13,0.14,4.19c-0.27,1.43-0.62,3.57-0.47,3.72c0.32,0.4,0.44,1.6,0.44,5.36
					c0.05,1.47-0.08,3.72-0.02,4.23c0.11,0.81,0.21-1.91,0.32-1.11c0.02-1.36,0.02-2.7,0.03-4.02c0.13-1.34,0.25-2.68,0.4-4.02
					c0.08-1.34,0.4-2.66,0.6-3.98c0.22-1.32,0.43-2.66,0.76-3.96l0.92-3.91l1.11-3.87c0.35-1.3,0.77-2.57,1.22-3.85
					c0.44-1.28,0.85-2.57,1.33-3.83c0.58-1.77,3.03-8.51,6.21-15.15c3.11-6.68,6.78-13.32,8.37-15.87l0.46-0.77
					c0.25-0.43,0.52-0.85,0.79-1.3c-0.38-1.19-0.77-2.4-1.17-3.66c-0.36-0.87-0.68-1.74-1.09-2.57c-0.81-1.64-1.69-3.13-2.59-4.15
					c-0.87-1.04-1.9-1.89-2.94-2.62c0.44,0.45,0.81,0.91,1.12,1.3c-0.95-0.94-1.98-1.72-2.42-1.87c-2.37-1.06-1.07-0.15-0.35,0.66
					c0.54,0.51-0.3,0.19,0.54,0.94c-0.63-0.45-0.96-0.68-1.64-1c-0.09,0.02,2.07,1.13,1.52,1.06c-0.58-0.49-1.33-0.81-2.01-1.11
					c0.21,0.21,2.28,1.3,2.09,1.47c-0.32-0.28-1.74-1.34-1.93-1.17c-0.03,0.04,0.63,0.34,0.95,0.55c-1.01-0.53-1.83-0.72-2.15-0.7
					c-0.33,0.02-0.14,0.13,0.74,0.6c-0.6-0.28-1.58-0.6-2.15-0.57l0,0c0.25,0,0.88,0.15,1.19,0.23c-0.38-0.09-0.77-0.17-1.12-0.19
					l0.19,0.11c0.3,0.06,0.58,0.13,0.85,0.19c-0.25-0.04-0.51-0.11-0.74-0.13c0.21,0.11,0.41,0.21,0.62,0.32
					c0.87,0.32,1.63,0.96,2.07,1.19c1.72,1.02,3.24,2.64,4.44,4.66c0.62,1,1.15,2.11,1.61,3.26c0.22,0.6,0.49,1.15,0.66,1.77
					L396.69,471.87L396.69,471.87L396.69,471.87z"/>
			</g>
		</g>
	</g>
	<g>
		<g>
			<g>
				<path class="st0" d="M402.69,441.91c0.02-0.09-0.03-0.17,0.05-0.21c0.24-0.04,0.38,0.3,0.62,0.26l0.03-0.13
					c0.14,0.11,0.33,0.23,0.51,0.34c0.3,0.06,0.62,0.13,1,0.21c0-0.04,0-0.11,0.05-0.11c0.14,0.02,0.32,0.13,0.49,0.21l0.08,0.02
					c0.03-0.02,0.05-0.06,0.05-0.09c0.08,0.04,0.16,0.09,0.22,0.13c0.93,0.17,1.9,0.43,2.58,1.21c0.19,0.13,0.35,0.32,0.44,0.55
					c0.14,0.36,0.05,0.87,0,1.26c0.41,0,0.33,1.15,0.73,1.11c-0.09,0.3-0.27,0.74-0.19,0.85c0.25,0.26,0.47,0.72,0.25,1.68
					c-0.13,0.34-0.47,0.7-0.47,0.85c-0.02,0.26,0.38-0.21,0.38,0.04c0.65-1.06,1.26-2.34,1.47-4.15c0.11-0.87,0.03-1.94-0.24-2.85
					c-0.27-0.96-0.74-1.68-1.2-2.28c-0.38-0.38-1.69-1.45-3.02-1.96c-1.33-0.55-2.67-0.85-3.22-1l-0.09-0.02
					c-0.6-0.15-1.34-0.21-1.86-0.09c-0.24,0.09-0.49,0.21-0.73,0.32c0.11,0.09,0.21,0.17,0.28,0.26c-0.24-0.04-0.47-0.06-0.57,0.02
					c-0.51,0.17-0.24,0.45-0.05,0.79c0.13,0.15-0.06,0.36,0.14,0.53c-0.16-0.02-0.22-0.02-0.38-0.04c-0.02,0.13,0.47-0.04,0.36,0.17
					c-0.14-0.06-0.32,0.02-0.46,0c0.05,0.19,0.52,0.11,0.49,0.28c-0.08,0.04-0.41-0.28-0.46-0.04c0,0.04,0.14,0.06,0.22,0.06
					c-0.47,0.04-0.73,0.26-0.32,0.53c-0.14-0.02-0.35-0.13-0.49-0.09l0,0c0.05,0.02,0.22,0.06,0.27,0.06l-0.25-0.02
					c0.02,0.04,0.03,0.06,0.05,0.11c0.06,0.02,0.13,0.06,0.19,0.06l-0.17-0.02c0.05,0.09,0.09,0.15,0.14,0.21
					c0.21,0.15,0.38,0.38,0.49,0.4C401.08,441.59,401.94,441.76,402.69,441.91z"/>
			</g>
		</g>
	</g>
	<g>
		<g>
			<g>
				<path class="st0" d="M419.41,428.51c0.05-0.06-0.02-0.23,0.14-0.13c0.51,0.34,0.68,0.98,1.14,1.38l0.09-0.06
					c0.3,0.4,0.52,0.94,0.79,1.38c0.51,0.83,1.01,1.66,1.36,2.62c0.03-0.04,0.05-0.09,0.09,0c0.08,0.19,0.17,0.43,0.27,0.68
					c0.06,0.28,0.13,0.6,0.19,0.89l0.08,0.26c0.03,0.06,0.08,0.06,0.09,0.06c0.06,0.28,0.13,0.53,0.14,0.77l0.09,0.51l0.14,0.98
					c0.11,0.68,0.21,1.38,0.32,2.11c0.49-0.02,0.98-0.02,1.44,0c0.24,0,0.47,0,0.7,0.04l0.36,0.02c0.49,0.04,1,0.13,1.52,0.23
					c1.01,0.23,2.07,0.6,3.07,1.21c0.58,0.23,1.11,0.62,1.63,1c0.33,0.36,0.71,0.77,1.07,1.23c0.32,0.49,0.63,1,0.9,1.4
					c0.19-0.47,1.58,1.72,1.63,1.02c0.27,0.72,0.66,1.81,0.79,1.81c0.33,0,0.85,0.4,1.53,2.51c0.17,0.85,0.25,2.21,0.36,2.51
					c0.17,0.47,0.05-1.17,0.22-0.72c-0.33-3.28-1.3-6.57-2.95-9.17c-1.64-2.62-3.86-4.49-6.21-5.62c-0.32-0.09-0.93-0.36-1.79-0.6
					c-0.43-0.13-0.9-0.23-1.42-0.34l-0.4-0.06c0.02,0-0.02,0-0.03,0h-0.09c-0.03-0.09-0.02-0.02-0.06-0.36
					c-0.06-0.72-0.27-1.43-0.44-2.15l-0.27-1.06l-0.38-1c-0.25-0.66-0.49-1.32-0.81-1.87c-0.57-1.19-1.25-2.11-1.82-2.94
					c-0.62-0.7-1.11-1.34-1.49-1.7l-0.22-0.19c-1.28-1.3-3.02-2.4-4.3-2.83c-0.58-0.21-1.2-0.3-1.8-0.43
					c0.25,0.19,0.47,0.38,0.66,0.55c-0.57-0.28-1.15-0.49-1.39-0.49c-1.28-0.21-0.62,0.26-0.21,0.74c0.3,0.28-0.19,0.32,0.3,0.66
					c-0.36-0.15-0.55-0.23-0.93-0.34c-0.06,0.11,1.15,0.34,0.85,0.47c-0.35-0.19-0.76-0.26-1.14-0.36c0.09,0.21,1.26,0.51,1.17,0.68
					c-0.21-0.04-0.98-0.62-1.09-0.4c-0.02,0.04,0.35,0.17,0.52,0.23c-1.15-0.32-1.79-0.21-0.81,0.3c-0.35-0.11-0.85-0.34-1.2-0.38
					l0,0c0.16,0.04,0.51,0.17,0.65,0.21l-0.62-0.15l0.09,0.11c0.16,0.06,0.3,0.11,0.47,0.17l-0.41-0.11
					c0.09,0.11,0.21,0.19,0.32,0.3c0.47,0.28,0.9,0.64,1.17,0.72C415.67,425.66,417.7,426.87,419.41,428.51z"/>
			</g>
		</g>
	</g>
</g>
</svg>
